<mxfile modified="2023-08-21T09:28:29.980Z" host="app.diagrams.net" agent="Mozilla/5.0 (Windows NT 10.0; Win64; x64) AppleWebKit/537.36 (KHTML, like Gecko) Chrome/116.0.0.0 Safari/537.36" etag="ja2hDdUrZ_gL7Guj88eL" version="21.6.8" type="github">
  <diagram id="Ht1M8jgEwFfnCIfOTk4-" name="Page-1">
    <mxGraphModel dx="1235" dy="679" grid="1" gridSize="10" guides="1" tooltips="1" connect="1" arrows="1" fold="1" page="1" pageScale="1" pageWidth="827" pageHeight="1169" math="0" shadow="0">
      <root>
        <mxCell id="0" />
        <mxCell id="1" parent="0" />
        <UserObject label="" link="https://gitlab.com/uploads/-/system/project/avatar/443787/gitlab-account.png" id="Q_h3pjvFeThrfzfZ5TXl-13">
          <mxCell style="rounded=0;whiteSpace=wrap;html=1;" vertex="1" parent="1">
            <mxGeometry x="130" y="1160" width="1580" height="760" as="geometry" />
          </mxCell>
        </UserObject>
        <mxCell id="UEzPUAAOIrF-is8g5C7q-2" value="AWS Cloud" style="points=[[0,0],[0.25,0],[0.5,0],[0.75,0],[1,0],[1,0.25],[1,0.5],[1,0.75],[1,1],[0.75,1],[0.5,1],[0.25,1],[0,1],[0,0.75],[0,0.5],[0,0.25]];outlineConnect=0;gradientColor=none;html=1;whiteSpace=wrap;fontSize=12;fontStyle=0;shape=mxgraph.aws4.group;grIcon=mxgraph.aws4.group_aws_cloud_alt;strokeColor=#232F3E;fillColor=none;verticalAlign=top;align=left;spacingLeft=30;fontColor=#232F3E;dashed=0;container=1;pointerEvents=0;collapsible=0;recursiveResize=0;" parent="1" vertex="1">
          <mxGeometry x="435.5" y="175" width="630" height="486" as="geometry" />
        </mxCell>
        <mxCell id="UEzPUAAOIrF-is8g5C7q-1" value="Corporate data center" style="points=[[0,0],[0.25,0],[0.5,0],[0.75,0],[1,0],[1,0.25],[1,0.5],[1,0.75],[1,1],[0.75,1],[0.5,1],[0.25,1],[0,1],[0,0.75],[0,0.5],[0,0.25]];outlineConnect=0;gradientColor=none;html=1;whiteSpace=wrap;fontSize=12;fontStyle=0;shape=mxgraph.aws4.group;grIcon=mxgraph.aws4.group_corporate_data_center;strokeColor=#5A6C86;fillColor=none;verticalAlign=top;align=left;spacingLeft=30;fontColor=#5A6C86;dashed=0;container=1;pointerEvents=0;collapsible=0;recursiveResize=0;" parent="1" vertex="1">
          <mxGeometry x="11.5" y="175" width="404" height="486" as="geometry" />
        </mxCell>
        <mxCell id="UEzPUAAOIrF-is8g5C7q-5" value="" style="whiteSpace=wrap;html=1;dashed=0;fontColor=#AAB7B8;fontStyle=0;align=left;verticalAlign=top;strokeColor=#248814;fillColor=none;gradientColor=none;spacingLeft=30;container=1;pointerEvents=0;collapsible=0;recursiveResize=0;" parent="1" vertex="1">
          <mxGeometry x="175.5" y="281" width="210" height="300" as="geometry" />
        </mxCell>
        <mxCell id="UEzPUAAOIrF-is8g5C7q-25" value="" style="edgeStyle=orthogonalEdgeStyle;rounded=0;orthogonalLoop=1;jettySize=auto;html=1;strokeColor=#545B64;strokeWidth=2;endFill=0;endArrow=open;startArrow=none;" parent="1" source="UEzPUAAOIrF-is8g5C7q-6" target="UEzPUAAOIrF-is8g5C7q-8" edge="1">
          <mxGeometry relative="1" as="geometry" />
        </mxCell>
        <mxCell id="UEzPUAAOIrF-is8g5C7q-26" value="" style="edgeStyle=orthogonalEdgeStyle;rounded=0;orthogonalLoop=1;jettySize=auto;html=1;strokeColor=#545B64;strokeWidth=2;endFill=0;endArrow=open;startArrow=none;" parent="1" source="UEzPUAAOIrF-is8g5C7q-7" target="UEzPUAAOIrF-is8g5C7q-9" edge="1">
          <mxGeometry relative="1" as="geometry" />
        </mxCell>
        <mxCell id="UEzPUAAOIrF-is8g5C7q-29" style="edgeStyle=orthogonalEdgeStyle;rounded=0;orthogonalLoop=1;jettySize=auto;html=1;strokeColor=#545B64;strokeWidth=2;endFill=0;endArrow=open;startArrow=none;" parent="1" source="UEzPUAAOIrF-is8g5C7q-11" target="UEzPUAAOIrF-is8g5C7q-13" edge="1">
          <mxGeometry relative="1" as="geometry" />
        </mxCell>
        <mxCell id="UEzPUAAOIrF-is8g5C7q-30" style="edgeStyle=orthogonalEdgeStyle;rounded=0;orthogonalLoop=1;jettySize=auto;html=1;strokeColor=#545B64;strokeWidth=2;endFill=0;endArrow=open;startArrow=none;" parent="1" source="UEzPUAAOIrF-is8g5C7q-12" target="UEzPUAAOIrF-is8g5C7q-13" edge="1">
          <mxGeometry relative="1" as="geometry">
            <Array as="points">
              <mxPoint x="615.5" y="496" />
              <mxPoint x="615.5" y="360" />
            </Array>
          </mxGeometry>
        </mxCell>
        <mxCell id="UEzPUAAOIrF-is8g5C7q-31" style="edgeStyle=orthogonalEdgeStyle;rounded=0;orthogonalLoop=1;jettySize=auto;html=1;strokeColor=#545B64;strokeWidth=2;endFill=0;endArrow=open;startArrow=none;" parent="1" source="UEzPUAAOIrF-is8g5C7q-13" target="UEzPUAAOIrF-is8g5C7q-14" edge="1">
          <mxGeometry relative="1" as="geometry" />
        </mxCell>
        <mxCell id="UEzPUAAOIrF-is8g5C7q-32" style="edgeStyle=orthogonalEdgeStyle;rounded=0;orthogonalLoop=1;jettySize=auto;html=1;strokeColor=#545B64;strokeWidth=2;endFill=0;endArrow=open;startArrow=none;" parent="1" source="UEzPUAAOIrF-is8g5C7q-13" target="UEzPUAAOIrF-is8g5C7q-16" edge="1">
          <mxGeometry relative="1" as="geometry" />
        </mxCell>
        <mxCell id="UEzPUAAOIrF-is8g5C7q-33" style="edgeStyle=orthogonalEdgeStyle;rounded=0;orthogonalLoop=1;jettySize=auto;html=1;strokeColor=#545B64;strokeWidth=2;endFill=0;endArrow=open;startArrow=none;" parent="1" source="UEzPUAAOIrF-is8g5C7q-15" target="UEzPUAAOIrF-is8g5C7q-13" edge="1">
          <mxGeometry relative="1" as="geometry" />
        </mxCell>
        <mxCell id="UEzPUAAOIrF-is8g5C7q-34" style="edgeStyle=orthogonalEdgeStyle;rounded=0;orthogonalLoop=1;jettySize=auto;html=1;strokeColor=#545B64;strokeWidth=2;endFill=0;endArrow=open;startArrow=none;" parent="1" source="UEzPUAAOIrF-is8g5C7q-15" edge="1">
          <mxGeometry relative="1" as="geometry">
            <mxPoint x="721.0476190476188" y="542" as="targetPoint" />
          </mxGeometry>
        </mxCell>
        <mxCell id="UEzPUAAOIrF-is8g5C7q-35" style="edgeStyle=orthogonalEdgeStyle;rounded=0;orthogonalLoop=1;jettySize=auto;html=1;strokeColor=#545B64;strokeWidth=2;endFill=0;endArrow=open;startArrow=none;" parent="1" source="UEzPUAAOIrF-is8g5C7q-15" target="UEzPUAAOIrF-is8g5C7q-17" edge="1">
          <mxGeometry relative="1" as="geometry" />
        </mxCell>
        <mxCell id="UEzPUAAOIrF-is8g5C7q-27" value="" style="edgeStyle=orthogonalEdgeStyle;rounded=0;orthogonalLoop=1;jettySize=auto;html=1;strokeColor=#545B64;strokeWidth=2;endFill=0;endArrow=open;startArrow=none;" parent="1" source="UEzPUAAOIrF-is8g5C7q-9" target="UEzPUAAOIrF-is8g5C7q-12" edge="1">
          <mxGeometry relative="1" as="geometry">
            <mxPoint x="126.41011523687575" y="546.0689655172414" as="sourcePoint" />
            <mxPoint x="273.5" y="539.8620689655172" as="targetPoint" />
          </mxGeometry>
        </mxCell>
        <mxCell id="UEzPUAAOIrF-is8g5C7q-28" value="" style="edgeStyle=orthogonalEdgeStyle;rounded=0;orthogonalLoop=1;jettySize=auto;html=1;strokeColor=#545B64;strokeWidth=2;endFill=0;endArrow=open;startArrow=none;" parent="1" source="UEzPUAAOIrF-is8g5C7q-8" target="UEzPUAAOIrF-is8g5C7q-11" edge="1">
          <mxGeometry relative="1" as="geometry">
            <mxPoint x="136.41011523687575" y="556.0689655172414" as="sourcePoint" />
            <mxPoint x="283.5" y="549.8620689655172" as="targetPoint" />
          </mxGeometry>
        </mxCell>
        <mxCell id="-QjtrjUzRDEMRZ5MF8oH-9" value="1" style="rounded=1;whiteSpace=wrap;html=1;fillColor=#007CBD;strokeColor=none;fontColor=#FFFFFF;fontStyle=1;fontSize=22;" parent="1" vertex="1">
          <mxGeometry x="122" y="244" width="40" height="38" as="geometry" />
        </mxCell>
        <mxCell id="-QjtrjUzRDEMRZ5MF8oH-47" value="Title text" style="text;html=1;resizable=0;points=[];autosize=1;align=left;verticalAlign=top;spacingTop=-4;fontSize=30;fontStyle=1" parent="1" vertex="1">
          <mxGeometry x="12" y="65.5" width="130" height="40" as="geometry" />
        </mxCell>
        <mxCell id="-QjtrjUzRDEMRZ5MF8oH-48" value="Subtitle text&lt;br style=&quot;font-size: 16px&quot;&gt;" style="text;html=1;resizable=0;points=[];autosize=1;align=left;verticalAlign=top;spacingTop=-4;fontSize=16" parent="1" vertex="1">
          <mxGeometry x="12" y="115.5" width="100" height="20" as="geometry" />
        </mxCell>
        <mxCell id="SCVMTBWpLvtzJIhz15lM-1" value="" style="line;strokeWidth=2;html=1;fontSize=14;" parent="1" vertex="1">
          <mxGeometry x="8" y="140.5" width="1060" height="10" as="geometry" />
        </mxCell>
        <mxCell id="7OVz4w7n9kzEPWy-4BBC-3" value="" style="rounded=0;whiteSpace=wrap;html=1;fillColor=#EAEDED;fontSize=22;fontColor=#FFFFFF;strokeColor=none;labelBackgroundColor=none;" parent="1" vertex="1">
          <mxGeometry x="1106.5" y="52" width="539" height="969" as="geometry" />
        </mxCell>
        <mxCell id="7OVz4w7n9kzEPWy-4BBC-4" value="1" style="rounded=1;whiteSpace=wrap;html=1;fillColor=#007CBD;strokeColor=none;fontColor=#FFFFFF;fontStyle=1;fontSize=22;labelBackgroundColor=none;" parent="1" vertex="1">
          <mxGeometry x="1124.5" y="64" width="40" height="38" as="geometry" />
        </mxCell>
        <mxCell id="7OVz4w7n9kzEPWy-4BBC-5" value="2" style="rounded=1;whiteSpace=wrap;html=1;fillColor=#007CBD;strokeColor=none;fontColor=#FFFFFF;fontStyle=1;fontSize=22;labelBackgroundColor=none;" parent="1" vertex="1">
          <mxGeometry x="1123" y="186" width="40" height="38" as="geometry" />
        </mxCell>
        <mxCell id="7OVz4w7n9kzEPWy-4BBC-6" value="3" style="rounded=1;whiteSpace=wrap;html=1;fillColor=#007CBD;strokeColor=none;fontColor=#FFFFFF;fontStyle=1;fontSize=22;labelBackgroundColor=none;" parent="1" vertex="1">
          <mxGeometry x="1123" y="306" width="40" height="38" as="geometry" />
        </mxCell>
        <mxCell id="7OVz4w7n9kzEPWy-4BBC-7" value="4" style="rounded=1;whiteSpace=wrap;html=1;fillColor=#007CBD;strokeColor=none;fontColor=#FFFFFF;fontStyle=1;fontSize=22;labelBackgroundColor=none;" parent="1" vertex="1">
          <mxGeometry x="1123" y="420" width="40" height="38" as="geometry" />
        </mxCell>
        <mxCell id="7OVz4w7n9kzEPWy-4BBC-8" value="5" style="rounded=1;whiteSpace=wrap;html=1;fillColor=#007CBD;strokeColor=none;fontColor=#FFFFFF;fontStyle=1;fontSize=22;labelBackgroundColor=none;" parent="1" vertex="1">
          <mxGeometry x="1124.5" y="537" width="40" height="38" as="geometry" />
        </mxCell>
        <mxCell id="7OVz4w7n9kzEPWy-4BBC-9" value="6" style="rounded=1;whiteSpace=wrap;html=1;fillColor=#007CBD;strokeColor=none;fontColor=#FFFFFF;fontStyle=1;fontSize=22;labelBackgroundColor=none;" parent="1" vertex="1">
          <mxGeometry x="1125.5" y="652" width="40" height="38" as="geometry" />
        </mxCell>
        <mxCell id="7OVz4w7n9kzEPWy-4BBC-10" value="7" style="rounded=1;whiteSpace=wrap;html=1;fillColor=#007CBD;strokeColor=none;fontColor=#FFFFFF;fontStyle=1;fontSize=22;labelBackgroundColor=none;" parent="1" vertex="1">
          <mxGeometry x="1125" y="768" width="40" height="38" as="geometry" />
        </mxCell>
        <mxCell id="7OVz4w7n9kzEPWy-4BBC-11" value="8" style="rounded=1;whiteSpace=wrap;html=1;fillColor=#007CBD;strokeColor=none;fontColor=#FFFFFF;fontStyle=1;fontSize=22;labelBackgroundColor=none;" parent="1" vertex="1">
          <mxGeometry x="1125.5" y="886" width="40" height="38" as="geometry" />
        </mxCell>
        <mxCell id="7OVz4w7n9kzEPWy-4BBC-13" value="&lt;span&gt;Lorem ipsum dolor sit amet, consectetur adipiscing elit, sed do eiusmod tempor incididunt ut labore et dolore magna aliqua. Ut enim ad minim veniam, quis nostrud exercitation ullamco laboris nisi ut aliquip ex ea commodo consequat. Duis aute irure dolor in reprehenderit in voluptate velit esse cillum dolore eu fugiat nulla pariatur. Excepteur sint occaecat cupidatat non proident, sunt in culpa qui officia deserunt mollit anim id est laborum.&lt;/span&gt;&lt;br&gt;" style="text;html=1;align=left;verticalAlign=top;spacingTop=-4;fontSize=14;labelBackgroundColor=none;whiteSpace=wrap;" parent="1" vertex="1">
          <mxGeometry x="1176" y="63.5" width="449" height="118" as="geometry" />
        </mxCell>
        <mxCell id="7OVz4w7n9kzEPWy-4BBC-14" value="&lt;span&gt;Lorem ipsum dolor sit amet, consectetur adipiscing elit, sed do eiusmod tempor incididunt ut labore et dolore magna aliqua. Ut enim ad minim veniam, quis nostrud exercitation ullamco laboris nisi ut aliquip ex ea commodo consequat. Duis aute irure dolor in reprehenderit in voluptate velit esse cillum dolore eu fugiat nulla pariatur. Excepteur sint occaecat cupidatat non proident, sunt in culpa qui officia deserunt mollit anim id est laborum.&lt;/span&gt;&lt;br&gt;" style="text;html=1;align=left;verticalAlign=top;spacingTop=-4;fontSize=14;labelBackgroundColor=none;whiteSpace=wrap;" parent="1" vertex="1">
          <mxGeometry x="1175" y="186.5" width="450" height="115" as="geometry" />
        </mxCell>
        <mxCell id="7OVz4w7n9kzEPWy-4BBC-15" value="&lt;span&gt;Lorem ipsum dolor sit amet, consectetur adipiscing elit, sed do eiusmod tempor incididunt ut labore et dolore magna aliqua. Ut enim ad minim veniam, quis nostrud exercitation ullamco laboris nisi ut aliquip ex ea commodo consequat. Duis aute irure dolor in reprehenderit in voluptate velit esse cillum dolore eu fugiat nulla pariatur. Excepteur sint occaecat cupidatat non proident, sunt in culpa qui officia deserunt mollit anim id est laborum.&lt;/span&gt;&lt;br&gt;" style="text;html=1;align=left;verticalAlign=top;spacingTop=-4;fontSize=14;labelBackgroundColor=none;whiteSpace=wrap;" parent="1" vertex="1">
          <mxGeometry x="1175" y="304.5" width="450" height="117" as="geometry" />
        </mxCell>
        <mxCell id="7OVz4w7n9kzEPWy-4BBC-16" value="&lt;span&gt;Lorem ipsum dolor sit amet, consectetur adipiscing elit, sed do eiusmod tempor incididunt ut labore et dolore magna aliqua. Ut enim ad minim veniam, quis nostrud exercitation ullamco laboris nisi ut aliquip ex ea commodo consequat. Duis aute irure dolor in reprehenderit in voluptate velit esse cillum dolore eu fugiat nulla pariatur. Excepteur sint occaecat cupidatat non proident, sunt in culpa qui officia deserunt mollit anim id est laborum.&lt;/span&gt;&lt;br&gt;" style="text;html=1;align=left;verticalAlign=top;spacingTop=-4;fontSize=14;labelBackgroundColor=none;whiteSpace=wrap;" parent="1" vertex="1">
          <mxGeometry x="1175" y="420.5" width="450" height="121" as="geometry" />
        </mxCell>
        <mxCell id="7OVz4w7n9kzEPWy-4BBC-17" value="&lt;span&gt;Lorem ipsum dolor sit amet, consectetur adipiscing elit, sed do eiusmod tempor incididunt ut labore et dolore magna aliqua. Ut enim ad minim veniam, quis nostrud exercitation ullamco laboris nisi ut aliquip ex ea commodo consequat. Duis aute irure dolor in reprehenderit in voluptate velit esse cillum dolore eu fugiat nulla pariatur. Excepteur sint occaecat cupidatat non proident, sunt in culpa qui officia deserunt mollit anim id est laborum.&lt;/span&gt;&lt;br&gt;" style="text;html=1;align=left;verticalAlign=top;spacingTop=-4;fontSize=14;labelBackgroundColor=none;whiteSpace=wrap;" parent="1" vertex="1">
          <mxGeometry x="1176" y="537.5" width="449" height="114" as="geometry" />
        </mxCell>
        <mxCell id="7OVz4w7n9kzEPWy-4BBC-18" value="&lt;span&gt;Lorem ipsum dolor sit amet, consectetur adipiscing elit, sed do eiusmod tempor incididunt ut labore et dolore magna aliqua. Ut enim ad minim veniam, quis nostrud exercitation ullamco laboris nisi ut aliquip ex ea commodo consequat. Duis aute irure dolor in reprehenderit in voluptate velit esse cillum dolore eu fugiat nulla pariatur. Excepteur sint occaecat cupidatat non proident, sunt in culpa qui officia deserunt mollit anim id est laborum.&lt;/span&gt;&lt;br&gt;" style="text;html=1;align=left;verticalAlign=top;spacingTop=-4;fontSize=14;labelBackgroundColor=none;whiteSpace=wrap;" parent="1" vertex="1">
          <mxGeometry x="1176" y="653.5" width="450" height="118" as="geometry" />
        </mxCell>
        <mxCell id="7OVz4w7n9kzEPWy-4BBC-19" value="&lt;span&gt;Lorem ipsum dolor sit amet, consectetur adipiscing elit, sed do eiusmod tempor incididunt ut labore et dolore magna aliqua. Ut enim ad minim veniam, quis nostrud exercitation ullamco laboris nisi ut aliquip ex ea commodo consequat. Duis aute irure dolor in reprehenderit in voluptate velit esse cillum dolore eu fugiat nulla pariatur. Excepteur sint occaecat cupidatat non proident, sunt in culpa qui officia deserunt mollit anim id est laborum.&lt;/span&gt;&lt;br&gt;" style="text;html=1;align=left;verticalAlign=top;spacingTop=-4;fontSize=14;labelBackgroundColor=none;whiteSpace=wrap;" parent="1" vertex="1">
          <mxGeometry x="1176" y="768.5" width="449" height="113" as="geometry" />
        </mxCell>
        <mxCell id="7OVz4w7n9kzEPWy-4BBC-20" value="&lt;span&gt;Lorem ipsum dolor sit amet, consectetur adipiscing elit, sed do eiusmod tempor incididunt ut labore et dolore magna aliqua. Ut enim ad minim veniam, quis nostrud exercitation ullamco laboris nisi ut aliquip ex ea commodo consequat. Duis aute irure dolor in reprehenderit in voluptate velit esse cillum dolore eu fugiat nulla pariatur. Excepteur sint occaecat cupidatat non proident, sunt in culpa qui officia deserunt mollit anim id est laborum.&lt;/span&gt;&lt;br&gt;" style="text;html=1;align=left;verticalAlign=top;spacingTop=-4;fontSize=14;labelBackgroundColor=none;whiteSpace=wrap;" parent="1" vertex="1">
          <mxGeometry x="1176" y="887.5" width="449" height="124" as="geometry" />
        </mxCell>
        <mxCell id="UEzPUAAOIrF-is8g5C7q-6" value="Factory" style="outlineConnect=0;fontColor=#232F3E;gradientColor=none;fillColor=#277116;strokeColor=none;dashed=0;verticalLabelPosition=bottom;verticalAlign=top;align=center;html=1;fontSize=12;fontStyle=0;aspect=fixed;pointerEvents=1;shape=mxgraph.aws4.factory;" parent="1" vertex="1">
          <mxGeometry x="38.500000000000156" y="320.99999999999994" width="78" height="78" as="geometry" />
        </mxCell>
        <mxCell id="UEzPUAAOIrF-is8g5C7q-7" value="Factory&lt;br&gt;" style="outlineConnect=0;fontColor=#232F3E;gradientColor=none;fillColor=#277116;strokeColor=none;dashed=0;verticalLabelPosition=bottom;verticalAlign=top;align=center;html=1;fontSize=12;fontStyle=0;aspect=fixed;pointerEvents=1;shape=mxgraph.aws4.factory;" parent="1" vertex="1">
          <mxGeometry x="38.500000000000156" y="456.99999999999994" width="78" height="78" as="geometry" />
        </mxCell>
        <mxCell id="UEzPUAAOIrF-is8g5C7q-8" value="Channel" style="outlineConnect=0;fontColor=#232F3E;gradientColor=none;fillColor=#277116;strokeColor=none;dashed=0;verticalLabelPosition=bottom;verticalAlign=top;align=center;html=1;fontSize=12;fontStyle=0;aspect=fixed;pointerEvents=1;shape=mxgraph.aws4.iot_analytics_channel;" parent="1" vertex="1">
          <mxGeometry x="263.5" y="320.99999999999983" width="65" height="78" as="geometry" />
        </mxCell>
        <mxCell id="UEzPUAAOIrF-is8g5C7q-9" value="AWS IoT SiteWise&lt;br&gt;Connector&lt;br&gt;" style="outlineConnect=0;fontColor=#232F3E;gradientColor=#60A337;gradientDirection=north;fillColor=#277116;strokeColor=#ffffff;dashed=0;verticalLabelPosition=bottom;verticalAlign=top;align=center;html=1;fontSize=12;fontStyle=0;aspect=fixed;shape=mxgraph.aws4.resourceIcon;resIcon=mxgraph.aws4.iot_sitewise;" parent="1" vertex="1">
          <mxGeometry x="257" y="457" width="78" height="78" as="geometry" />
        </mxCell>
        <mxCell id="UEzPUAAOIrF-is8g5C7q-10" value="2" style="rounded=1;whiteSpace=wrap;html=1;fillColor=#007CBD;strokeColor=none;fontColor=#FFFFFF;fontStyle=1;fontSize=22;" parent="1" vertex="1">
          <mxGeometry x="335" y="306" width="40" height="38" as="geometry" />
        </mxCell>
        <mxCell id="UEzPUAAOIrF-is8g5C7q-11" value="AWS IoT Core" style="outlineConnect=0;fontColor=#232F3E;gradientColor=#60A337;gradientDirection=north;fillColor=#277116;strokeColor=#ffffff;dashed=0;verticalLabelPosition=bottom;verticalAlign=top;align=center;html=1;fontSize=12;fontStyle=0;aspect=fixed;shape=mxgraph.aws4.resourceIcon;resIcon=mxgraph.aws4.iot_core;" parent="1" vertex="1">
          <mxGeometry x="485.5000000000001" y="320.99999999999983" width="78" height="78" as="geometry" />
        </mxCell>
        <mxCell id="UEzPUAAOIrF-is8g5C7q-12" value="AWS IoT SiteWise" style="outlineConnect=0;fontColor=#232F3E;gradientColor=#60A337;gradientDirection=north;fillColor=#277116;strokeColor=#ffffff;dashed=0;verticalLabelPosition=bottom;verticalAlign=top;align=center;html=1;fontSize=12;fontStyle=0;aspect=fixed;shape=mxgraph.aws4.resourceIcon;resIcon=mxgraph.aws4.iot_sitewise;" parent="1" vertex="1">
          <mxGeometry x="485.5000000000001" y="457" width="78" height="78" as="geometry" />
        </mxCell>
        <mxCell id="UEzPUAAOIrF-is8g5C7q-13" value="AWS IoT Analytics" style="outlineConnect=0;fontColor=#232F3E;gradientColor=#60A337;gradientDirection=north;fillColor=#277116;strokeColor=#ffffff;dashed=0;verticalLabelPosition=bottom;verticalAlign=top;align=center;html=1;fontSize=12;fontStyle=0;aspect=fixed;shape=mxgraph.aws4.resourceIcon;resIcon=mxgraph.aws4.iot_analytics;labelBackgroundColor=#ffffff;spacingTop=6;" parent="1" vertex="1">
          <mxGeometry x="681.9999999999997" y="320.99999999999994" width="78" height="78" as="geometry" />
        </mxCell>
        <mxCell id="UEzPUAAOIrF-is8g5C7q-14" value="Notebook" style="outlineConnect=0;fontColor=#232F3E;gradientColor=none;fillColor=#116D5B;strokeColor=none;dashed=0;verticalLabelPosition=bottom;verticalAlign=top;align=center;html=1;fontSize=12;fontStyle=0;aspect=fixed;pointerEvents=1;shape=mxgraph.aws4.sagemaker_notebook;labelBackgroundColor=#ffffff;spacingTop=6;" parent="1" vertex="1">
          <mxGeometry x="701.4999999999999" y="226" width="39" height="45" as="geometry" />
        </mxCell>
        <mxCell id="UEzPUAAOIrF-is8g5C7q-15" value="docker container" style="outlineConnect=0;fontColor=#232F3E;gradientColor=none;fillColor=#D05C17;strokeColor=none;dashed=0;verticalLabelPosition=bottom;verticalAlign=top;align=center;html=1;fontSize=12;fontStyle=0;aspect=fixed;pointerEvents=1;shape=mxgraph.aws4.container_1;labelBackgroundColor=#ffffff;" parent="1" vertex="1">
          <mxGeometry x="699.0000000000001" y="481.9999999999999" width="44" height="28" as="geometry" />
        </mxCell>
        <mxCell id="UEzPUAAOIrF-is8g5C7q-16" value="Amazon QuickSight" style="outlineConnect=0;fontColor=#232F3E;gradientColor=#945DF2;gradientDirection=north;fillColor=#5A30B5;strokeColor=#ffffff;dashed=0;verticalLabelPosition=bottom;verticalAlign=top;align=center;html=1;fontSize=12;fontStyle=0;aspect=fixed;shape=mxgraph.aws4.resourceIcon;resIcon=mxgraph.aws4.quicksight;" parent="1" vertex="1">
          <mxGeometry x="895.5000000000001" y="320.99999999999983" width="78" height="78" as="geometry" />
        </mxCell>
        <mxCell id="UEzPUAAOIrF-is8g5C7q-17" value="Amazon SNS" style="outlineConnect=0;fontColor=#232F3E;gradientColor=#F34482;gradientDirection=north;fillColor=#BC1356;strokeColor=#ffffff;dashed=0;verticalLabelPosition=bottom;verticalAlign=top;align=center;html=1;fontSize=12;fontStyle=0;aspect=fixed;shape=mxgraph.aws4.resourceIcon;resIcon=mxgraph.aws4.sns;" parent="1" vertex="1">
          <mxGeometry x="895.5000000000001" y="457" width="78" height="78" as="geometry" />
        </mxCell>
        <mxCell id="UEzPUAAOIrF-is8g5C7q-19" value="3" style="rounded=1;whiteSpace=wrap;html=1;fillColor=#007CBD;strokeColor=none;fontColor=#FFFFFF;fontStyle=1;fontSize=22;" parent="1" vertex="1">
          <mxGeometry x="445.5" y="562" width="40" height="38" as="geometry" />
        </mxCell>
        <mxCell id="UEzPUAAOIrF-is8g5C7q-20" value="4" style="rounded=1;whiteSpace=wrap;html=1;fillColor=#007CBD;strokeColor=none;fontColor=#FFFFFF;fontStyle=1;fontSize=22;" parent="1" vertex="1">
          <mxGeometry x="655.5" y="210.5" width="40" height="38" as="geometry" />
        </mxCell>
        <mxCell id="UEzPUAAOIrF-is8g5C7q-21" value="5" style="rounded=1;whiteSpace=wrap;html=1;fillColor=#007CBD;strokeColor=none;fontColor=#FFFFFF;fontStyle=1;fontSize=22;" parent="1" vertex="1">
          <mxGeometry x="635.5" y="291" width="40" height="38" as="geometry" />
        </mxCell>
        <mxCell id="UEzPUAAOIrF-is8g5C7q-22" value="6" style="rounded=1;whiteSpace=wrap;html=1;fillColor=#007CBD;strokeColor=none;fontColor=#FFFFFF;fontStyle=1;fontSize=22;" parent="1" vertex="1">
          <mxGeometry x="645.5" y="463" width="40" height="38" as="geometry" />
        </mxCell>
        <mxCell id="UEzPUAAOIrF-is8g5C7q-23" value="7" style="rounded=1;whiteSpace=wrap;html=1;fillColor=#007CBD;strokeColor=none;fontColor=#FFFFFF;fontStyle=1;fontSize=22;" parent="1" vertex="1">
          <mxGeometry x="845.5" y="293" width="40" height="38" as="geometry" />
        </mxCell>
        <mxCell id="UEzPUAAOIrF-is8g5C7q-24" value="8" style="rounded=1;whiteSpace=wrap;html=1;fillColor=#007CBD;strokeColor=none;fontColor=#FFFFFF;fontStyle=1;fontSize=22;" parent="1" vertex="1">
          <mxGeometry x="845.5" y="431" width="40" height="38" as="geometry" />
        </mxCell>
        <mxCell id="UEzPUAAOIrF-is8g5C7q-4" value="AWS IoT&lt;br&gt;Greengrass" style="outlineConnect=0;fontColor=#232F3E;gradientColor=#60A337;gradientDirection=north;fillColor=#277116;strokeColor=#ffffff;dashed=0;verticalLabelPosition=middle;verticalAlign=middle;align=left;html=1;fontSize=12;fontStyle=0;aspect=fixed;shape=mxgraph.aws4.resourceIcon;resIcon=mxgraph.aws4.greengrass;labelPosition=right;" parent="1" vertex="1">
          <mxGeometry x="175.5" y="281" width="40" height="40" as="geometry" />
        </mxCell>
        <mxCell id="Q_h3pjvFeThrfzfZ5TXl-1" value="AWS Cloud" style="points=[[0,0],[0.25,0],[0.5,0],[0.75,0],[1,0],[1,0.25],[1,0.5],[1,0.75],[1,1],[0.75,1],[0.5,1],[0.25,1],[0,1],[0,0.75],[0,0.5],[0,0.25]];outlineConnect=0;gradientColor=none;html=1;whiteSpace=wrap;fontSize=12;fontStyle=0;shape=mxgraph.aws4.group;grIcon=mxgraph.aws4.group_aws_cloud_alt;strokeColor=#232F3E;fillColor=none;verticalAlign=top;align=left;spacingLeft=30;fontColor=#232F3E;dashed=0;container=1;pointerEvents=0;collapsible=0;recursiveResize=0;" vertex="1" parent="1">
          <mxGeometry x="540" y="1350" width="870" height="440" as="geometry" />
        </mxCell>
        <mxCell id="Q_h3pjvFeThrfzfZ5TXl-3" value="" style="shape=image;verticalLabelPosition=bottom;labelBackgroundColor=default;verticalAlign=top;aspect=fixed;imageAspect=0;image=https://upload.wikimedia.org/wikipedia/commons/thumb/0/04/Terraform_Logo.svg/1280px-Terraform_Logo.svg.png;" vertex="1" parent="1">
          <mxGeometry x="814.17" y="1210" width="253.83" height="60.92" as="geometry" />
        </mxCell>
        <mxCell id="Q_h3pjvFeThrfzfZ5TXl-8" value="" style="shape=image;verticalLabelPosition=bottom;labelBackgroundColor=default;verticalAlign=top;aspect=fixed;imageAspect=0;image=https://ci.linagora.com/uploads/-/system/project/avatar/3393/gitlab-ci-cd-logo_2x.png;" vertex="1" parent="1">
          <mxGeometry x="146.27" y="1170.46" width="134.47" height="140" as="geometry" />
        </mxCell>
        <mxCell id="Q_h3pjvFeThrfzfZ5TXl-9" value="" style="shape=flexArrow;endArrow=classic;html=1;rounded=0;" edge="1" parent="1">
          <mxGeometry width="50" height="50" relative="1" as="geometry">
            <mxPoint x="974.73" y="1290" as="sourcePoint" />
            <mxPoint x="974.23" y="1340" as="targetPoint" />
          </mxGeometry>
        </mxCell>
        <mxCell id="Q_h3pjvFeThrfzfZ5TXl-14" value="Amazon ECR" style="outlineConnect=0;fontColor=#232F3E;gradientColor=#F78E04;gradientDirection=north;fillColor=#D05C17;strokeColor=#ffffff;dashed=0;verticalLabelPosition=bottom;verticalAlign=top;align=center;html=1;fontSize=12;fontStyle=0;aspect=fixed;shape=mxgraph.aws4.resourceIcon;resIcon=mxgraph.aws4.ecr;" vertex="1" parent="1">
          <mxGeometry x="603.9999999999997" y="1420" width="78" height="78" as="geometry" />
        </mxCell>
        <mxCell id="Q_h3pjvFeThrfzfZ5TXl-17" value="" style="shape=image;verticalLabelPosition=bottom;labelBackgroundColor=default;verticalAlign=top;aspect=fixed;imageAspect=0;image=https://enclaive.io/wp-content/uploads/2021/09/GitLab_logo.svg;" vertex="1" parent="1">
          <mxGeometry x="1800" y="351" width="239" height="239" as="geometry" />
        </mxCell>
        <mxCell id="Q_h3pjvFeThrfzfZ5TXl-18" value="" style="shape=image;verticalLabelPosition=bottom;labelBackgroundColor=default;verticalAlign=top;aspect=fixed;imageAspect=0;image=https://miro.medium.com/v2/resize:fit:1400/0*CP98BIIBgMG2K3u5.png;" vertex="1" parent="1">
          <mxGeometry x="2010" y="1200" width="1200" height="400" as="geometry" />
        </mxCell>
        <mxCell id="Q_h3pjvFeThrfzfZ5TXl-19" value="" style="shape=image;verticalLabelPosition=bottom;labelBackgroundColor=default;verticalAlign=top;aspect=fixed;imageAspect=0;image=data:image/png,iVBORw0KGgoAAAANSUhEUgAAAWwAAAG3CAYAAACQZm9VAAAAAXNSR0IArs4c6QAAAARnQU1BAACxjwv8YQUAAAAJcEhZcwAAEnQAABJ0Ad5mH3gAANRSSURBVHhe7P0H1CTZeR0I3rDpf1N/edemutpboNHdMA1DBwICaCA6URxJs2N1djgav2dmZ0hKmnN2zhztntHOzpLUSjtakZIIEgRJDSmRFAkSJAiCAGHae1PV5ev36SLD7r1fZFT9XV3VZbqrukzcv25l5svIiBcv3rvve99zTkGgRo0aNWpc9XCnrzVq1KhR4ypHLdg1atSocY2gFuwaNWrUuEZQC3aNGjVqXCOoBbtGjRo1rhHUgl2jRo0a1whqwa5Ro0aNawS1YNeoUaPGNYJasGvUqFHjGkEt2DVq1KhxjaAW7Bo1atS4RlALdo0aNWpcI6gFu0aNGjWuEdSCXaNGjRrXCGrBrlGjRo1rBLVg16hRo8Y1glqwa9SoUeMaQS3YNWrUqHGNoBbsGjVq1LhGUAt2jRo1alwjqAW7Ro0aNa4R1IJdo0aNGtcIasGuUaNGjWsEtWDXqFGjxjWCWrBr1KhR4xpBLdg1atSocY2gFuwaNWrUuEZQC3aNGjVqXCOoBbtGjRo1rhHUgl2jRo0a1whqwa5Ro0aNawS1YNeoUaPGNYJasGvUqFHjGkEt2DVq1KhxjcApiOn7GudAnufTd6zh3LqOq3H5oOKYpWV+y4vM8pvv+/a5Ro1afWrUqFHjGkFtYZ8HeZHDyZzyg1e+OM70c43Lgpx/gpMznaukZi4t3DKrupdoZ+i8dk7hzEdYlYLpNXQVvdt4paqddTmtnDRNkWaxvW8EHqPpoXB85jkLqnGDoxbst0GWZybWjluWFn1WQVcz9d12jZjbZUOh5FXtVY+nutalumY2/u5suNh7Odv5lInOpSkXcv6N5ywq9TwzZ04vUKXNxcLOe77cbqdWfN98oIKrEL1/t59/hUk0wdraor33fRfNdgetZq82EmoYasF+G6jwuAXFOSgLZ5IlaISNiy48SuJKkDxvaqafAVUGupbAo0+pg4Jcx72hCuybMuRGlZziUlLCTnMJWf3MdNezvJzPIs8LRNHY3svaDsMQzWbTPteoUQv228AsampnlvGVkIXWaDTs/cUgjtXELZM58AP+L6u9DCqmQi4RSOOcn+0jXL8UBY+vJhLTJnoJHcTvL9bIq5/0e4KLSXY9decM6/1yVxI1rh3Ugv12YMqkWYokSeyjeuuDIDBrubKY1TQ+V/NYCZvGCcajEVqtloX5DRdHji3TWk9pOTXQnoZ32m2k9q6U47B8a1gfDq3QVtDVzC3Af1N9P4W31XCd4jwib4dcojZsdFVc1CkuUowuJXqO1ZBvxtuf53R6vwWXEgFCle5ZwfOxDWVv7apVrU3kVlk7ZmkLbi3cNzTOU3xr1KhRo8bVgtrCvgTIRVI1UfWqJDzTyi5oJck68goH+SRBMR1b69BSWs2AMb9LyGg6IiCSJc/z6mFstJpdhyEMKA3E8lHpf4//yRCrLLMzodA3nYfU57dYz9UXG8EwXfbNOL9lpyPOdtRbTjVFZfSevtb5ryHYUdPfXhB4/ipuG+NSXe2c8bO/t8IGmpzti/PgLUb+hguXV1IA84wrt5laZzE6QQObex10pl0fymu1e+TGRS3YFwkll1wkVeehCk9FofJJFxLyVB2J/MCg4aQMP9SPcXQ8xMlRhONrazi8tmrhJ1YH5BIyqkFuilmWbsfJS23IeSKndJqoae3ys8PK4EzBrkT5zIeqo/Tdm48+N3T1N+mCTsprluc/x1mUlabf6f/zXW9jHKd3a/9XyHnE2SokS5qNP64OOfOmz8BbBHMKPbKNV9FpVP+ey4Uhwd44OlB9G+oY1v0KeoLVHQlvvc8ybSqcqkR5YMHaqxV07ONoeYjbdm7Gj370Ibx/+7yF5XmKYOoeqXHjoRbsi0QcTU6NBxbMCmNhlW9bqDooVfhSlvqEJfQwS/dfHC/94H/y0gH85YHX8MbyCtaZ9Fm7LJxOs4M8lSCrIiCrsd+CLkdxZqB91Dsx52Fn9Tef7YkqTGpxNhWtvhP4vV3qjHNIwKZ1kb0/G+z7s3x3jsPfJFoXBf6wqjPOzL1n1iXV9+eqYy4FOqWl0eUAm01uWp68NXHJNXzytgX8t9//IQu7o0kLnK9ndkzWuDFQC/ZFQCk1mYzhBywyVarxVd1CHhXBRGGqDOYqoZA/20/wO0+/ii8//YKFHxmOseq5GAU+Bix0UVBaS7nbKC9gQ/so/hvVTNey61WB/KDr2PXKkBpXGJcl3XlS+bmmdX5vEqAxXsZ2ZxWf3b/Lwv7O9zyGbW2NVNLzrx/+jYZasM+BjaNAqiTSaA9NojFOpz0WeYaTS0voJ6mN0d48O2PhfqeDb5+M8IXnDuEPnn0Jh44ft3Cn24XX6yALm5jkBabGFJLC53k9uIUqAxfutNA6cvDys2NW5VSwad6p6Zx5FliG1bhicPhsztqyeRcgl1pa1s4IvAZaeQx/eAx7ULbQ/oOPPoSffOh2zLKVp2xZ+7NvLNTtqho1atS4RlBb2OfARgu7ej+ihd1pNzGOJmhPfc/qyT+8uIjejp1mcxfqHCSeOrGOn//2IfzhG4tYGdMy90pLyGm2kfsukpx15fS8BicgZV178DIH/vSp2AgKWdx8KW16hpExre3ITcuOtPoJXjkw8YO0HKVzOSDfeBRMreYgYIuLLbd4Fb3RugXta7r4Ox+9Dz90101o8OCq87Men31joBbsc2CjYFcdiZNojFYzxDhO0WyU04XHwxEiHjszO0MRLvDE0SUL/6dffRq/fzTCut+E1/CoqWWB0rGJ6GlRH/eUR8MWJVJp5avenxYEjUHQIkCnofc5lVx80xc1Lj+Y3qwnL1vTVKOLslbZr6FJV8gnaLkJutHAwsLRGh7c3MVPf/xhfGjHJrSDculVrx45ckOgFuzzQMmTVlPTtbaD61GwNVKkLLJxkiKYmcGEBfmpY3388reetfDffu5VHCt68Bs9NAIK83RkicZai47nwncpzFNnqHzWeidLaYPdbcazhvlJz9OpSmR8DVg5NGu9fk+QMd3V1WC4lNLzdg/Nnmm5/EE0jpEiQ9hqMg+VwhyP++jmMT62ewb/8fv34yNbyz6TkL/ypiOValy/qAX7baCk0VA7ZzrmOksSFGQsAZ+axo7fgNtu4Kmjy/ilP38Kf/DqQQsfzm7GwJ/jsTxHFp+y2O1cKvAsYOpErMYZe3oMPFaDRGxm8lQQ9D5nJaEuJwm1oEs7eYbWRmW/0pjmmnNmnnerJjnbPU7PfbZr21cbrv1uRWMjNPjSBvO8BW+9WhnH8n8br898oElV5cowp48/dS/KB3m5XEGj0eJzz2ggjOF6pRh3QlbewxVsykf44bt24d9/aL+F3zOvFf3YEmNeqXH9ohbst0FKsZ7Qmnb8snQm44mVLLmpq3GwvW4bXznp4B8/eRB//MrzOJb2LbzZmWXzdQ6Noo2xl2C1iCzcCxtohFqXmZ+jdbTSMrwZsxBHMQKKtp/l8KY+Edn2sZeZWGdTAyqhte6lDpqpXCVvFQmFnO2hqihb+DtQsdM/fes7nXtaj5k4VVBKvTk+ZQgbGafBA+SPlz5vDFbAW8Yc89TliJny7jdeXxVhxjRUy0fQbFNlcYvP6Si9CWXw6S8di8ybD64+6TXRdxsir/4Gje3gQ7XPmp0qUQ740WULqkjKFpqe7VI4gzdmb0OTVnMyWbHw3I3hZQ0eP13ga3q/IQU7zYeIklWmwdT1kXfh+T78dILNWYrP3FEO9/uPHrsN+xu0xj0eZx0bNa5H1E+2Ro0aNa4R1Bb2OSAXhqyylJbSOCmt4GKSYnZmFjGtbleTW4jB0MX/9J0V/H9ffAMn8xM0lctjaTZhbmULelkXa2zhrsvhLMhnna3STFvDTCPHh7bOWvCHN89hS6cBP88Q8NBT3kgeH/tsRtOiq/ymGmDiMwZh7tGC1D4qG+pdnt4+yZdyBmyqtQ07mYLHWr/lGRaZrEjhXBnDLNApdGx1vGH6QS/VWdWRVkFh+rVez2wdnGHUGsrJ92+OSXlc2WG78Sc6Sp+jLMOyzRplUpsLQu4nfdp4dPlJVL9BdQW9MlX5Oo399CenHQ203pm2NJYNsol9dRZbW6g6mGG0kmVh6zm4aWlhp3GGP1rM8U8OtWiga+/GkxbO5hICt432pMETFking/DVkkvSNYat0druWtho1IHTaplV7/Qj7Jy66370Azvxnz60GzsZD1cTu8641xrXB2rBfhtodEjBZm4yLXAZm9ndThfra2sspuUoka+8MMb/8tQRfL2/gkE4Qt4sJziATdjZ4SyCiYcodDBulgLgU+zDaAUzbRcf3LcTf+2evRb+ie2z6L5ZIwyVwAnTr6EqIU5iGyWSphKXEvrdmcdWOBV+hiqeKXrnx5tltjrdqbAzzz99rVB9PtuEj7eu3VHKpsWdb6b9tga9taMpjBurJoWNkwQr0cQ+pxLsabhw5mWruzkVPD2g+ny245vtNppTX7GurUPEStSVAwb9AfzAR7fZPHUuxeM3j8b4W7/9PNLJEF5YVu65T5FNA3TQLteS8cr8lmQ549/ncQkarbaFjQYhC22IFk/ajlMaESML37ng4N975Db89Vv3YjNr/GLqUjvbsrI1rl3Ugv020JhqzSg8lUL87PkeXnv9NSw5cxb0+acP4fMvnsQRSkJGixmiIJdjkqPD3zYoGu6kLJwLcYz7t2zCh2/bjY/tvwn3bS07mDTwz0p/6SAnN8rQm6HoFFaZUD5MMaoIbsQZSlPhLMFn+/W5oOK/MWZvOt1ZT6TAs4jGxejIWc5bBr31Cwmq7OVTnbz2/zvBmWfQuWVBl22ggs9Y0VC14DVLyS4cPhsF67lT2EdJGc92GOAPD67iR3/tLzEKWeUvlMfH2RiTEa1sp8cKmL+b7pIusc016NtPTnU6Fn1a4lmABd+BT9HvJ+XiYXGXcQrH+J8+/hH85L4dlP5p2ujlLJVjjWsTtWCfB1mhwnc682sTg4OvvYYTeenK+IU//hb+9fEYy90esmaGVNPFBZVFWuQLjSaKcYTJalmwHtm+Bf/+4+/Do3tnsZXHNKbnthEjEmqN33NzeLVldFWC1TfGwzGCqWCrVaCx+uk6LfpOGeaz9SRHjiqNPCtwcq3c8qvTDvHHR0f4d77wBJwZH+EmC8YwHiAZFWj5M6yvXURp2UpT+yILaG276uwuRbeRb0Yr9TCTZPDTAUZ5OaEm7pHOOh7xG/hvHns/Hr9pi4W7zL9NtgprXB+oVaFGjRo1rhHUgn0eaM3p6s/zfIxHAzjdDp5kw0T8dhJjrdug+dSgcUwLK2dzVlTSNjKsNvsYOou4rZMYf/L+vfh+Wtd7eYjsHh0pOrS01YGlPsmzejhqXBVQPpBvOpn+xfkEhZ8hb9IKtimQJC3ryWRiFrbNi3JpMZOpl6E/STDIxhjmI6wwL4lRmvI7Wto8dMzWlVpxth0dW1vduMBsnKI1jEoyW6VOhjUePXJjpI3AuM68EzVm8RerCf63b72B3z/UN44Y39M+vRrXOmrBPg/U3NVmBaJcgfIdt2Zn8eyJReORWIXGt7WpNeaX5WZKHuznyNJVdJopvufuW4yfumMvNlGhAzuWBdpjo5pUAZXPUp4QXbPG1Qvtr9hutY2tdqvsdgiZRwLNNnRMH7U+uuUZz0WHlbnoewXGyZhhudXpaUGhJnP9ptlE5hfIKMbad0jU8jPzvS62zG6CkxTGJNFafjkKCnuukSas3cVUo0sYkaTRxjeOr+JXnzxofJkVhDJuGpedsDWubdQ+7LeBkibNU4wHZU98iwV0OFjFST/AT//hkxb2tdeXEXXmkfoscNqJRhYVoREcfjNGEi/i+7Zvxd//wPss/JGts7S8MuuMut6hySNZRmHR7vOy9IhyuKS9vSqh0qAKU6NYykr0wiKrvDKZdizLDgrDcrNmtdA00khQy+n/9+RJ/PSXXoI752PolvlKYzg9tFi5N5lAzBu2y37Zv/Hw/r24eb6Br3/zKQs7lLrIwjaaWiAqmWAy9XdPOh7yOMEMT9aKXLSj8twfvbOF//OHH8QttAHmKP6e7dpf41pFbcq9DVTgPCZR4ATGCa2V0XiME1mMb0cT41qrg7gR0iJiQVNz2aElJWYBmlkPbjGLRzfvxCObZ40s2tasvhGg0RTKYp4XUAR9o0/B0GfPC68ylvFS/LR8gKZ5W6fhlOeDhD0IGkaJtUbwlBZ2uTaM6PH+e24bfhQgHJ+mv85UIoORj0bcRJAyv5HpaIT9LeBHb9mGT+7ZalxoDhEXixg0Iqz1gBEte9FHBy1nHnE6i4G7gKXWVuPvHBvg//3CKzjsswVQi/U1j1qw3wZmabHQBaFv9OS+YLiGjQ2GkTFgIfCn1rKMMX9KCbOoCRRtraSmH5Jym9wo2ztJxJRmelXaiJS/qQiWw+OuHk6FWRY2n7DrFvb8K14IPE+VU3l8uQNRyWlW4AEOwkCtDvm6XTSYL4ytkB9liZO8bkgDQIwnKe1livYWFx9+3x3GB27eg17gIaGYK75ewMqG1BwBjbGPaXUn6QTNZsOohcu+/Ozz+N3nXsPymNdlK1DM2HKsce3hxlCOGjVq1LgOUAv220DWUZommNB6EV1rJvM9raVR3DIm8GgxqWNHnUG0kJKSYcLmf0SLZ6XAZEDLTa5G8fyt6+sG1kKR1chWRWXBliNg9J/82lcTSzOYMTXfu3zZZh2/C/BpdYtMANtezEPKq8RImGfEmNdP1eHop9bpKJ+32G40sYdpeDMt8o/O+cb/5oP78Tfu3Y7teR/uyjq6TmB0M/W3MK219VwQYJV3Ik5aczjizuCXnzmKz7+wiMUsMLq8wfN1X1XPTKxxdaAW7AuADbcTPbk+WKQtn8sfWPoET2V8NWvVqibVJPY0CSbiey0CMj0844+1mtyNBLkJgsCfMrBRFlcrFT91Nsr//K5AwiiviLSf4jsb+ugyHRQg95jRMpQOYP7RqI80M/YaAW7tddHwfMw3S36g28Nfu/t2/JUH7sBsr4X+cGR0eEw6odBnrBwo2qnjGkdJhtgN8PraEF/85rP42stHjcmYFQONkfOJdo2rC7VgnweafeiygIkqxHlBa0h5PGOBFnOqsGV6mc+pht0YZZPIXoOToFVNVyeyYrqtV40bAiaHqrhFotNmvR1mSHza1d7EmPsJcr2KzC+Jy+9J+f/n2xqlT0jUyTDLcF+7g7997z34iZv2Yvt4aGxmI+a1ES1s5kPmN8dNjKBgN/OQxkYbTx/v459+60Xjl44uYeKG1jo8l2hv9N9rtm9mo31qvJeopeNiwHyd0CoxwS5Y8ipascysM1KjSkSDVitiE7fFAlpBoxAk8LawlFlWNa5nnNlh6Wn5gmaMcThGOmUeDowgizBCFqRGLVNClSbjqf1N0Gjo8M37WwH+w3178KndC8ZesY6i0QdamoQzQupGxsDvUrBnEDtdrLTm8aXVzPgPn34BX1tZY2UR0iov92k/V260cF2cb2r3yHuLWrDPg43Wh947rmPbNlUWj1nXdkh5HBulRvtsDluxtK6EeEJrSpmeQbXFcoNAj3+aBWbD0LaFK/fwZPE7k2x++RRlcRjnGNniUiLz0TQvai/QnH/7tnfwQ4/dZ7x5bg75JNb6q8xkau3xXKTDPDjhZ4lyKwzQ4Gfxhddexxe++g28eHzdFpbSTji2G85ZBNk7o9Kp8d6hfhI1atSocY2gFuzzQH7ram0HdSRu3bUNkzSGOw6NmiAjm1u9i9omSus8iLJsaAtp/nG5kP0USRIxVMcXtHreas3UuA5xqtcxR8gSF6QOOrGDZuSWHPt8DYztsYNGlBsdn/Smv1V+sjzFF36Uq6VZTPCJhYbxp+/ZhY+01xCMXkWY97HJDYxh7COTld5o2JKu662m8Wj3ZvzKGwl+/skjeK5PC5znE8/V5rPWJS98pounxpVFnfoXgpgFhewPBiiovgmbqG7uGR02Y60YaVCByhUztQ0H4z8jv1SZq9BshPx+muy2MlCN6x563PbINfDT0YY0cCnCNkHHOP2c8zsqpo3eIBuBh5l2i182mGfK2ZenwDwWUIR9NzF+7Jad+Kvvux+3bp1FnEZIYi2LECPUqBcKtyZryeOSSZQlukEbywnw5edfw7998jUco2iLPs9bFG+V7Y0dkDXeO9RP4G0QM8PHUYpJ5BhXo3WsaV00Fq4goeWsBXmmvf/mZ6R9It+i/jTSdiKLqNXCocVlHWAcj2N7p8JXF4AbA7bZBKk8MskKxGggQcg8UjJBE4nTmL7Xd1oN0EeDFXp/qdxGrFok7M1gPmT+Enu+i8/eejN+6s7bcROL9WBlxchMZhsiJNmYOTIq8ymZRx4Cfw7HMw9feOkAvvjia8ZlWv/Km9pa7XxQX4x1notT/3qNy4taMd4GNoHCLWhV0+ogg2aTxSgwq6iVh0a/8PlJJhMLpBb5UYqSKTnWHPVuFweOn2CgCpuD7sysWTyaRvyujfWtcVXjdKsrQD/3mTcayLw2Rbpk6nTIFt93kTk9uH5Jh5bu4YMHp2c5DXUMVgKpfCTKkr61PYO/fvs+/JVbdqPNVpw4yhxoGajUJuNMWBGUA1DjpEfzYjMGnS34+iTBP3n+BeNvvfYqluII2eT8q/vZfbFCsDHfkxQJfyPWuHyoBfttEAQUZM+H56fG2UYHPXTMosicxEgbgyWIyUjhLsw9ojEiOaU5ZzOXAs5jbZZbERut3Oq/GjckNCy0zB8apb/xT0iZORJavsx7mluT5TaRZyMk1LJ+Zf+maWqfRfWxwA9xc6+Hn3zfHfieO/cYO/kQDq3rMGyyEgh5Ap1ELm2P9gXzNSsFTfB6/cSy8de//m38xZHjPFWAQku5iucYzaR8rDiMJ2w1yuee0ZQha2P78qEW7Bo1atS4RlAL9ttAhrDczI5XGD1Xqxa34ecFJsGysdDamEULmGwD8iZSb2JU87OhHVX7Y+zcsYtnm5o2U1uqxg2EslnFNxppMWGhk30sahajqMlUzCveKrmEPF81NrIEu/futd9VlrRgr7SOR6OR+ZBFC6flrbHUH97UwH9372bjp3vL2JMctuNTp8fv1e9SoBUvYT4YIEs0YaeLuH2z8Y+Xe/h/fLOPLy8BQ8c1asU/TTk4G9TabLg+gm4Ir8XWKKn41rg8qAX7baDRHOoYDIPQqCUwGcompDpy2LQlzXetZFQPvpGZlXRcCTy/YrPWZXMUTsPIhqhOXeMGwumxIA4rcrnMJGgKK/8UblnIyeCS5hohnSKH39Ku+vxNxl+RckNo8wstRNZptS1/Vp3XtmwvqeUT7t25YPyrj92PWzZ3kYwnPGUAJ2wbA2ZVV0usMn+mccbfhsbc7+DrB07iV776DA6tp8bA80v33lkQNrT+N697RodoPSPy8qB80jUuAUo6FbpzQGWy4Lf8p62bsmTdGE13E6lR42wobNRRyZTVe2LGsyS+7BsRZDjIqnZpEVQW9sZRHQ4FndJr/Nite/BjD9yO+5sRWquH0EyGxoETY81nJp1pIafYam6BKNvCCwr8wetH8I+//ZLxhTHPzYqgsvA3QhVIGc7Yybc+ZYWz/abGpaMW7MuFSsmZXwPfs+arqLGxQm2B3JhQgauyxlmhVtpUsDO28MSz/SJRh6OykHwVZE7RrsRRIurZDjMeelmM7791O3707r24NWSrcNw3jgNgEhY0uml0BL5taSfGFHm37eOEV+DXnn/V+M+ffgWvxOro1B6lsv7fDFn4lXBXcVBY9dmGx5LqoKzxzlAL9uUGy5rcl7bBrlwsVgBr1Dg3phqsup4Zp6rYSxGvYENC+dHz3ZLKZBsg94iRRXxPq4Ufef99+N579qPnwwgKtfaPTEdjE1JZ62Kq5Vjj1FyAEd+L//bJl/G7Tx/AelFuRm01BXmmyXFqRvB0uKpZ/hJtvhcn2u2mxjtCrR41atSocY2gFuzLDTOTiDcbSDVqnB00rQvXL0nLWZY27ehTFrBgLg9asXrVXhii9oPU5zPh2tR0F3c0Pfwnd+3BT+xsG7vxYbj5CJ5N/AqR5W5JXmvghlj2m1ic32H8Wt7G//riMv75GzHWlInVShSn7o9zQX51We8jHidqxmXlMqlxaagFu0aNqw7mnC710EQ4PTVKpIKJM/9VMx3fdtYsf6Y+k73b5vC5Rx8wPrBrO/IsRe758IMGcsczFjxps9mEQ3HN09io6Lx2chW/8mffwZ+8dATa9EB05fc+y7ojFeTHlqsm5Huj/Nr2TY1LRS3YlxuV0aOcWufWGsS5JW6KKq9Ik60TUn7g06NEhKqjT0K9UazPHKVhmB7rZxke3TFv/C8fvAMfm3Gxaf0YOqMh2rSuxSLzoC1KbTel6b52jbDDiDTwxMFl/MoTR/CNxdgYF7T6ecS5rGat6W0VDq9bUcWhGjde4+JRC3aNGlcQF1Nna3heoHH9Gr0/7bS+UFTCLXHUqwTboYCGaWr8vu2b8R88fAfu6lBU+314RVDSbSGJeE2KsePR0iZTVhqOpzHaXXzttXX8y28cMD5zdMgrTSuUMysJQtfUGieddtuoDklVPdXokdo9cvGoBbtGjRo1rhHUgn25ccqI0JuNjdoaNc4GWZ4a0+zAd3JSYfqvzD8XgmrmY4WNlmzO78QgL/Ddt+3DX334Htwy48MZrxhbfg5t/qsBgbZ5KZlNYrPU2+2mjdP+0+deMf7rZ17BG+tRab3L9XFelPHgrZ0am13uGF/jQlEL9uVClQ+ZOZUpVYiM02D5FWvUOBs0RV0MCs11tBBS+eX8eaYS61P5TZ83uB+qMO2TtB0ZfuKOHfipOzfhFpw0NkdHMSPBjnlswley6bRsxZMIKaKFTXi5OW/8xZdW8L88fQiv5JqVWSBNEuO5XB2aUq870Xonk8nEeLaJODXOjVo1LiemRkee0zrpzhobrYaF1Qlf461ghlE/XfmOecSDL3PUPmv8xiVYoxRPzYI8syNSo0BkQC80fHzfA3fhI3fuMwYuxbfI4Xgaglda+pnWw+HV0zjBeBQhCBvG5f4Qv/eNZ/C7T7yM5ZiWtnzlpDb8PTdYCfDcGokiajZm7cu+cNS6cQVQ5sdycJP1nNeocVYwo0hXlV9IDbue1vkXhaqz0TocmfnU2WiW9vS7Sry1G3pAq/fuhTb+vYd3Gz9zc4htyWE4oyV+lxo9n9azft9qYhwWGLVLTuaaeD7N8E9fOIQvHh1gkSIultXL2SFxthErGk5IZpptSYFPa0v7glAL9uXENNeqsORp36hmYI0a54RGZ0z/PO0ZaqNELg4bR5Mo72l0hkRy43A6CaT5nfm9rvXA1i3Gv/bwnXhgd4/KHiOlrovwA+QU9lRrjgQeoiI1pq0A2ewMnlgZ4Z9++wV8+dBJY0Gr2aEwny3mio/5vGnJi9WwxAvzgdeoBbtGjRo1rhHUgn2FEE8iY8YmZI0a54RLu1R+a1Kei8LWYL9YqJOR/28wceWKkIVdhadJioS073gd+cvFR7fvxg/eeyfu29ZBI14zeskYgZMjG4/hSzGixOhNMjSDUH4WPPHiq/iVrz9r/PbJAQbDISaRNv0t3uSGqaD4GDUVvx4pcsGoBftyYlrWlDGbnc0l2+0ysEaNs0KZRv0cYgBkl+oqkAieFsLqLHGaG1Oet5ohWS0LIrYprD988wL+kwe34n29NWN3fAxtRHCzEUJWJIFtRe0jSwokkxxOwG9bm/GvT06M/+DpI/hW5CKnmEuL5e040+Mh14hYuUM2ztascW7Ugn05MS0vGs40Hi6VHGsP6xo3KmRn2jrWbwNlG9E07hL1urJcExtmx+tOFTnVDjNkEmdyX0+t7rIjUFTU2k6Aj99+Kz79/vuN850WIlrXgT8VYGqrqN1mtG2eztvsdk6d4xvPP4/ff/J5HBpOeA2G6fzk2WZDChLuGheGOqUuF6qCxgyuVq1cIWLVNDyziVjjBsF5BVhSrWKplfPcS3SJlJcR43iCNI0RJ7GtYaIR0yKiAfI0ZT4sXRYVTDwprrt8Dz9y+/aSd85gjz/GTJbC72fwB56xm4SYzRsIIo3XlsWsbfRCHB7l+OJrx/EvXzmBl4f5qYWlJOY13hlqwb7csJLD/6Zkti7Da9yQ2Pj0Jc1imUkq6L3cAxS5S8grhcx3irAziY0eEooo4IchPC216pdstxvme9bekBpVUvmUBdf3+bsCewPP+Ln7b8PH7rwJfuIgyNpoY8bYTBsI4wKN3Lemg5ZTFf1eF6+OJvj8d57Cv33+DawnMFoZmF6jxqWhVo8aNWrUuEZQC/blghkSaoTyzfmcljVuGGhJay2UiiJDkCdGl3RyTe4uaBzn/F6+5HJu42no/cbP54KDpHAwoHUtjvtr5X6PSYbJaIQ8TYxZ4KM/HmM47NvWXWeO5ND2Yj6tb/HWZg9/7f59eGxPE93WEpzGsnESrGPoRoh9B2HWQCMu2XJbCP0QB0+s4teefgm/dWDV2I9477rW21jZVTxs0g9fx4yj9kKtUaIW7MsGFi4rY1Xm1Ou5M2qN6xiqsKeVdqQp4X4OHwkaWWpsZjHCImVppGB7FK2pzzd3GnCyi6vsleViL0fc8o0BxVY9hI7not1qodGgqE7Z6nTR7rbRCIJTE1g2wvO0P6OPFquP97WA//gDO3HvjhWMi2eMK84hDDsxIs9BI2phdjJnRNRAEXSQbNqBPxom+NkXDhh/Y6mPIc+nDRfkujH3zTlQuWcCX/tMapGoUsir8BsVtWBfEVyIZVTjekXVhVHBXLnT94K+etNnWsiiSufG310IJGiUecyETWOzO8dzuKd2pTlFVhwhqenhFp+zCai+IMNmy5ZUeGj7NnzmgQexa2bOmEcTs8S7FH5rDWh8oPzh/KkWddKQcj8McHh5xfjbTzyPJw4v6mI8uvw7c+RINdxPtFEnLisNxlM6LWZqIZzxmxsJtWBfAaipW3XqqMlb48aFCpyTl+4O7Z8oak0+vRb8Nudr4uTGyMtsgaYSenPqwzlhrgyeu3JnaJCJDa2T+J4BCV9KYS3dDxotcu7zt9q0xOMEP7Z1N/7OTfcYH449bFlZZ+tgHaszSzg6s2JcC5jHY3VINjGvTsqVyPhlWtk///zr+NNhjAnjI2ovyrNZzZVg67swbLCS0Zht0g/suxsVtWBfAWi1vh4tErFJa0W4kTPdjQzJpgRbf6Wa6p3W81B+IE3EKM1kzu/ChhYN04+mvCDwQLniSJeWsS1ryvOeiSpMebEyKN4OnU4bm9sNfO7hu4w/+qH3oUFtXlxbQ9x0kTaKkqx+XFrGISiuqYsgzozjKMafvX4An3/qKTw9WDemvGYax9MrvBVaByUIAqtcxLPdx42EWjVq1KhR4xpBLdhXAG8yXG5sA+GGh5wh7im3mDKGHGbqaNTn0souPIaR8FOs0notMbXALxRTf7LcHXJ7VNZzZUlXrhC9v1CfsKx1Hb+16Rl/9IE78IN37cOmZMgTD+F4sdHTtb0mMi/AJBsDDc/ozc1hKXPwu8+8is+/cND4apyUo1QusnP1RsVF5IAalwp18vTXV42a4ivcyB0nNxpKWS6hV3mrS5QiLD+uli+lQvMAvroaMZIiDRIcOnzQjpzq74WBouqkJSvXm8RZqFwLFZQ35XaoeFZMRd5cEjofxV68peHgb7//Dnx2/w6EzkkU7rJRK0QlaJtvPseIQq9NCxxM5roYzMzhldjH//7qSeOvHF/HeruFNH77ZYd1H7UbscwxNS4zzGPJQim6F1zqalyPkK+6HI2hDjXTQsq3BHwjZW475azBIOD7i0OR5JiMJsZCfmwK3dl8v5UAVmK8Ucgry1yMp9t+VefQbjXljjUJdm1q4Kc+9hju2bwdGFJ0yYzH02S28d9mlfM3Yq5V/nTvjQZWVvvG3/jzb+EPnnkRL77yMhKt7jfFxrjUOI1aPWrUuNyoFIvwigxNUtKXs/SJGa1PFLJuJc56lTWcwcsH2Lt7J9+XOnchA4zskEyTcSiWpK4r8avEuTIcKvHVd+UokdOCrc/94QCTlKJPahJPuYjU9Cam0IgNP43wSDPAz95xB36oFRq3rZ1EwLgn/gj9ToHVVmqM5fZIOvCdbWhEO4wHX2niV7+1gm9OAizz+qeS6oxr1ShRC3aNGjVqXCOoBbtGjSsJWrrqTzTL1ymMhdxkGuJnxVG+bL2XyyRHp9Pke0HW7/lNbHNd8Fx+0zcKG10iei/Kd70xbCO0LKstFBWERtdzEWulyakfvIJ+ryVW/XSMD23fih958CHjLVvmkdC6LwLXWg+pmxnlntcWaFnmICiaxpY3h1cOr+EbBxfx8to6kumfhiKeadHXKHNIjcsM+SiV98TzF7ka1zNcip5P8QspZOrAE22Xcfl7HSqa3BJyZZBBFqNQB9/FQJksDJDyPKJ2PK+E+UxsdItshAk+46U1P8SUAsqzYb2/fsp1cvo3DhqdFtpFhsd3bjH+O/fswT3hGjqjE7xXuWdaU3bgFA2+sjKKE6MqlTUvxO+/fBz/7KmX8c1+36hx6PKfv9PRI2fe27WOWrCvADT9ttlsGANaNsKZVk2NGwMa0hdSsANa1T4tV9GhWGuBf98PTXBd+aDJIIlLAb9AWOfh9FyTydi4sbPwbNDIkI0jRQQdr85xf0ra4ghbTYSzHemznXOj9aup75rgs6cVGH/i7m34kTu72FJI4Fnh5GwlkMW4CTdtgXY1fN6amNLsnrS34DV/E754cBX/+JnXjE/HE1ro2ibtIius6xy1alwByEoJGt0ppzPXatyQ8Gi9aop1EsfIaEWLUKejiapEUCJVWrAa7hdrNShBArlBJM8FG77Hw2zVP7ISVoVv5EacTdB1jEItVlmB8XCMeDBGlrz5txUC7e0YUpjJTd0OPvO++/CJu27FnMNKIKLokkU6QaZZjYxT2GkYHV9Tzz00GwFWV/v48refMv7mM8/g6HiAPq16rUtyqbjeDKNasK8AZK2Mh6vGKCrHYde4MRFQAnu+i4BiRJOzpE8rmsqYp3p10aCAiyGL58qEAikNpshttGrPBgl8kmhonCbKaFLMaXFVBSBhrs7zdueSyIVBYPm2tLR9tGj9N0j5s23xqGlL8U1wGX9SLcr7Z9v4Lx64GT/kz2LPembs6I5YYUX5GMNNQ+OJ5gmccNcwogWftrbhlcGc8ZeeGOK3XhtiJejA8UrLv0Yt2DVq1KhxzaAW7CsAWRX1no43MORymLodZKH2tGGtfZKVW8D1NWLDQypXRc7PtK5Fr0gRjWKzvm0Rp7NZtRsg33UyKSetMIOVnELW9dv5ss+E/NmytEU/oIXdaqHT6Zzdsp5Ck4KM/I2W9963eQv++sffj/07thtjdTYGTQTNJgbjoTF18nJTgzSF35lBs7dgPLo8wO99/Ql8++BhvHHoEO9FvvDan10L9hWBCmz5wiJQBtW4YTB99EQO6jU2z3XRpJgWrMBF5QiPwsUanfpNActKRpmP45HGaDDfKO+QZzoyKp/0OIoQxRO0KKq5F6I9M28MKLxyf0iszS89Fe7KJWK+8qmLRNSokip8ox+8us5GqIJJKLTZ9FxvgtwYPPyDezr4W4/uNT4yE2Nu+AZaxRo8aL/JGL7ShJWTdtxxeU2/3TQmYQtfP7aGX37yNfybV4/g5cPHjVkSn4r7jYhaPa4ITmcwFoHpuxo3DirJztGkNb1jYQ5NWbtaP4PMs5jWcUaLWjvRFObLFiO3iW8uruEbR7UAVHkOSi1FtBRQoRJaWb6y3rXBrsZ1B42GUeIs8TVLeToixI7l5+r3Js5TWl5VdtULrX2xDC+x8T1/XL5uDJtCt6fNEcI0wqdubhp/9N4F7AzGbDUch9/IjDmrI6+hUSmw2ZRjNijESdjGSmseXzvax1dXXBwN5o0pT2wdlzcoasG+AlAmrzpwqoLCN+VrjRsIBYKggZt2bkGv02K+kIusZKmQEl4t0q8dYTz5JfBntC5/8Ssv4NtLmTGZCrcscIltNRwvDEgngO+WW3BVlvRGng0Kr1wfoh3HfxL/6ncbv9NrBY/vtRON/eZs4Pd54WK2AeN3PbAf3/3g3djaaMJlXSUWpJM5vF9a5A4rokQjUdQZO8FMO0TAyz35wov4jT//jvGlpYhCX+74fiOaPt7PEdP3Nc4DWRuul+PZlT6++My6hTlNHxnNAw30lwXloPSzeQwIGDYZJvjY3jl87/69tHjaLJDqfWdBsKNq3AgoF3sqEGNCcXMRsrn/3PFVvDxet2F+CRk6IYWKgijfNVXKcQOkFLzluMDrwwxHKGxfObKK+Rlgc7uJhibZ8JxVPjJx5XmMen8Gz4W3O/btvhPOFb4RJvaMpYyVTWGK+7e0sLfVwuFXRtieBmxgsEXAMpFT+HM/Q9GgWPM4lhy+NpAFLZzMfbw4Ap4apEyTFj60s4uG77I88rrTS587BtcXajOvRo0aNa4R1Bb2ReCSLeyb5vHxm7YyVAfJIrFDatwgME8vH7qNAqGJNBMGONSP8eT6Gpp8PzBXSBN5In8085DW3WDYOI4RNttsmfVw6PBxHFhcw+qx57DQdLG3M4tQW3+5Uyubx8uvXfm031PKp02aD1ytC7YGFEufNz8bhNg738PxQYBbNm/CSytjDNmqSHlEKv9IyNRSAeE/9X+6OS10fh7HGSbqiF0dYff4EHbNNNFsa6q7HWpp/HaW/vWCWrAvApcq2N91ywI+siPk7ydI2ez15Z+scQOBlbT+KDgaDNLyfWxqhTh2fBG3NgMcO7mGPOggabSRUZh8iZzEiuLnewGUkQZJjIhif3CwhpdGExynuMML0eq2MOS5u8yDmjWpRZfk3bVORJ7n9HuKJ/8oo8bq/Zl/Zwt7099GYSYFC9/wZxLK+FTXOuXnNkFlCfFdLPfa2LK9i4MrAxzN1jDw+7znAq2UFVQakL4JP6sgZI7L9AlJH2uslF5ZWcNi1sKtW+ZZAeh6rNyi+JRgX8/C7TDRy1SvcU5USZSlWlA+wRdePYKf+tU3LMyZbSL2mTktj6TMjuUi7AEDWixgayeG+PufuB1/554ZC4fTQ6/XsUK0sQOnxvWLUwUsTShCzALTTQl+9Vsv2+svfuNlfCNtYtBbsGNa8cjCGxSeiNZ2RCNBGmhQlslHoHbhkc0L+O7darkB75/vYJYi2eV7rf1hsw4JXU8R0Ia+Gc9nK+ZZ0Olir1OfKQLnljwdefpbieOZx/rM20FGseahaeAinWbzsUa+IMEqbZrnF8uwv3jiIL6ancBaO0UwbmNmMF9+wZbDKJxg4qUsW0wvf7pqoU46TrErnMP//OGd+PHbdMcK1l1rFqbidP2Wq1qwLwDvVLD/Rwn2vXMW7jhddLrtWrBvIOQSGUKGX5WX9OxfXp/Y+3/27Vfxz54+hEN5CH92Bq6mrRMhj0mZt8baPID5RfB8Sq2jle4itJIUC7RhhR5fezx3l4Ia8HrZNGsVMunZ2sspYqm17KZCTkE9F84U4NNHsoWpb6tsO/1CHZ0b0UgzNGgJq60ZqWyEZQU1dCYYJrw3Vk5I91jYhC2KQwuslHosW1ELnWFp2GinnEnAFikFO5NgO9M1eFgD+XGC9jDHf/WB7fgvPrjXgtteyxL4erauhVqwLwC1YNd4JzhVxPiq1fS05oeFaCgb8c0jq/jFP3sCf/z6MYzac1iXmSh4DXi25Co1cjpnRX5gc2/YrD9NhCkFOHZSE+fYycq8WOmWXYLn8BRAuc3KLzo04qtDNuJcYqBjL1QoNNPRCzQtJsOI4gq3vE+/IdfMCPnYxWxa7qTTajaxwshMgghuFKLR71l4waJR+EO+o4XNeJtoEyxpaPG8ycnj+G8fv4m808L5y7Pf0HWGWjFq1KhR4xpBLdg1alxGZFmBNE2MZqPS+pxMJlgdaa/E0kGxb+scPvW++3D3TXuQxCliWtCiFjjVRrxgy85jURW1PnXD860jjyfnV6nR1iOR10A93TJG9d4+65XFXDNQ+F21ga72Y3S1It8Z1E4zZ+Pbfae5BRupjsZJnln8db9qWYiOJvf0Ogg7HX6nDsUc/dHQprfbcbw3zdK0HXhIp7CuWv7ZSG6jmgxhqFX/XMy3W+ivrRnL9L3+oRSoUaPGZYKr2XvThb/kGikosgFFrkUhHaexMaDAfXTXLP6TB3bhc9sD7MmGxmYyQlhE5kboxwPjStzHGgV6RGFMmz3k3qzRLWbgT+bRiubQjTahFy0Y29EWNCdb4MdbgHgz2THKtzz23HeHrAw2MnY85BlFvmij4c/Cd3tGeQuLqEDDDdDh/YtNP+NxY1ZK60wFirc/NhbuiPc1RGEcwPFWja67SnHmZ1ZfM82mLVcrFuUwresetWBfKcgBeKFOwBrXDxwN4yynj8tGTCi2skrbYcNGU4gaZzzX8PDhm7bjbzx8Bx7ZtWAMaINGkwgao1wtilR0W4hpHUcUxYkb8gh5dFsokgactAkvpQWbduGnFEkyIN2kg1xCPeFr1jJOGJeYGvfuki0DsghCiivjlYUI+Bp4baPWtpqMJ0hjG6xn1MJP0PJWhXZlJ924pJcw6RjuaLXCCdMoMoJMU35mCyNgpVWl7fXe2VihFuwa1x20iNBoPCo5GrGAa0H/96a2tGFvGodMxlQsjeXXZA9NJMkmiXF16QQWl1ZAoxcf2LcHf/Phe42f3bcT+xo+ZpMIM05m7PouGlpRhNZ3kcoSnRhTmq8pZTgnM9A6LYbGIqf1SsqKdWipu7TYRS00ZWSF8e6xKMl7zp0UKeOYJuqI190qXDeeI06080xJh7/z1UuaMJ1yl/HX+n22hh9bIz7jTtJaL/gqOvrMs1m68mcawifeIAZ2Ldg1atSoca2gFuwrBVkAZDkIq8blhDr1sowWLOm7DRtGp2GU7xXk8jD6HprNFrShhTrN2q2WcVuvR7YQMrxF/pU988afeexO/JcP3oJPzfvY2T9idI69hHh4kFb1KoqQFnaDljaZtyKgEcEPaT37E/hTBs4YLYzRoZXdo+XdchKjvL+8It+HaG5g+yL41t8ERqmKhhnmbBHYc6AFLWrxs3Z3Ft122+5V1OSgTuqim+QIaGHDbRlTtiOKogsn69Jqb8FL21OGtL9pZfNfaVWXvkba2Ppw3aMW7CuAMiuVij0dgVvjMmNaP/K/0gWhQQjvFcrmuyqPcheXKkybC4gNinbQaNrIjTQtsDKMjTMNB5956Db89Ge/Gz/++AeM+7dvQSsMEYYNW+kvjeKSWW4jSsQ0zRAn6ZQxJnFsm/4m/CwXhThJEpLfkTommTK6COp3YvW5PGfCsEw3yAqk3AMyZgUqRqSunUx4vDZcIBWuTRyQFxRoJoxUuOIG2Ffl29IFkpUduHq24o1iCNUTZy4AVRJd6sSZv/uxffiZD99q4VkasGDW9eTlhIZ4RVE5i1ClPKRwaGSGRPJqR5alWOtrwgjzFtltNRj3Jha1GS/x5LFVPHFiFQf7AxxdW8Oh9VULPzkclDMq3QJpnlEEyzwbTtcv8TVyTpauLctKgaPYy7NsQsdDK0NCn8t3p2GjW6bv3w68tCH1MuRBAS/z0Uq7jEuZ7mk4YKuAln/uoTsp49FuBEjcDGNvgmPhPE74N1t40GkgH4zMz+6ofNma4ap4c4S8z4z3/4ufuRc/sqecaOM1Olb5Xe+oBfsC8M4F+zb8Xx/ZbeFJzmYkBaTGlYFWsNOIgnNJdeUqOXPW6dUyE7WQUBUaX1LeQcysuJYUWJtE6CcTLNGyFdbTCFoPSlO6Nf6iNFeVDwsTUi8heatyDwmpjc6QYJfHVTglznasBRnefFQJaqlBw6bttXyhsUyR5cUcloEwDU/FPfUTZAz3cxcdpxTXgGUnZlov5jF+70SMf/GiZnCyguEFs7FGhrgIQh5b1Qa8uyCdIF8vBfuv1oJd40y8G4L9371/h4UneQOt9nQhmxqXBRLbVJMxCI1Y0J6DlXVdibD2QGzQ6g7Cq6vyVF6T60BI4sTi1yBlPAvD8QhxlqAZhPACn/mpVE1NV6+E8ZToEhaiz3pTvRp0PPO0XBFlgEHJpFMqjOJQBhLVuzcdO30VNr6vFNxs+DcdxHB+tlUIp5Z+4HsIeS/Cr69G+I9/+0l7v7oyghs2GQf5+1l5TrVYFVjACDrrI/zCZ+7D5/Z0LNxvdG8IwZ7WjTVq1KhR42pHLdhXALJ4/Gbb2GjW7pDLDY3DLldipqnIpr+23SpHZtC8k9VIaiU8WXrD0ciojjkx5m8jvg4GA8R8fRP407PtHv5uQh2GsiLFZkOTQ0pL1WNJFbutJuY7bbRCH01arO0pe66Hrleyx3ubmVLvewyb8Xy+DzDjVAyNc16AeS88xTk3xCY/xGZavQth4xQ3T7ngn2YVZuEbyZbLJnKe55jjuXQNI+O4iZb1DK/RoTUsajlrl/eszYfvdCLGYcUIp49mi/fNFm2SrmNS9I1x3gdD+CyYGFOXzI2EWrCvALT85LC/ahwNxxZ2A+a1Kwa5QyqqslRHnmhhmUZUxNCmr0USwxnzeSQTvi9pu5hPJsgmETKK98ZzJVlS+mfZzje3g8T/XUd5XlGdiBoBIeiaonY89ymCoivBC0OjL1IkjY3GW6njaCxspG+vTbLxFp71HGTYOs2zfV+x2rXdaNco6dnr6biaS0o1EZ9Pj5/nWCGJfqsDj+KvCUd8WHA14oR0mi1+1g42ShTXytaZy7tez6gF+wpAs9s6vTlju80MR9QJf/lgu4hTCESJnEv7LQybaDREtnJITQ/3Wz20ugvodOZpzfWMYavL73vobdqMVqdj56oY+BQYUuuCVAL6bsOuQ8tUzAv1jZiJ/e7gslQw7xxVrFx1OySBMR14iBZZaa1T3CddhMN2yRGfa+oj83NkWnNWP746b+uyoO50vABUSXSpnY4/99Hb8DOP7rLwuGhYJ1KNy4cJrWONlhCatNL+7Gt/hhefeR4uBbDbKUcV7N25G4OlMaJxhnZLrqqGhfMQDOIxci9H2OGz6pYdWerU0/rODVa4TQrL+x98yMIvN7RxgeJUdSgKGyuKapSLXk+F6vtpnpUVrvdy9dhnWbOEr/0gL0OF83bQGPGq9eC7ZTy0drY6hT3y0DjGD/7+0xb+raM5goSWvMdK1x5B6Z7K8wi+1v2erOEfffpe/NiucsMDl5VwPUqkhuEdCfbxIf6eNjC4uxQKx6X1NtO1AnY1DBu7HjHRGOxp0jYo2P/q938Xn/+tf4X1tTGb6GUBH8YpNLRZrhHPZXNbzmLCo6BNJmNb79/JUyRykxBuoVX2XDx07734vsc+gI89/iELF/QslUcq8bT8wt/LGpcoJtOlP7XoUZppkSMex0OarbK1pTHi+o1876X/vYSWHdUIinbr9KgiuWYE5R1Z4zb2mrDhf1NoGKMmlZQfXDunfOMhWxiTqHTJtXhOuVeuJGyPRt6n7tWWhyWUPlVZeOnoMfz4V1+z8KdXmXajgoId8LsCmRaBIhwtGEVGwyH+0Wfuw4/vLsuVH7LVdAMIdq0YNWrUqHGNoBbsKwA1Z2VBVKxxeRGEtMqmS/4Lw1GA54+O8O3lCE8FTeOTmxbw59s340+3bcMfb57D7/Vaxt+f6eArnQ6+0+jiQHMB/dY243rSxZEjbEFNerj/nvvtvIIMXFmJshrlbjDyGZ9a/5rM2TITG76HDi1mY6NxKj/IwpQVLA9F0PBoLQZGT8fw2MriFmSZejo/LWienb8vR7/IujTLenqcbH3j1Hpt+i34iYtRPzJWlvqVhNwfir9cF1XaCFWcTx4/iniyanQwZOT7yOJVps0Sm7erRo8tWLZZeLRW9hM1FmhjCl3fqNXjskPFSlmr/DuVPa+xlFcBF6tCJiEQNfRNrApgddx4PDbqmI243MPiBBPMgtcRU6Z+FqNF8duyeRPu2r/f+NDd9+DRe+/DB+6/H48+8CA+9ND7jB984CE89tD78cEH348PvO8B3HPfXcadu3aYS6QoUluj+hQ2aEV1b2feM1PK/vTdJNV6G6kNIdT+jqL5kvmvWgekEvLQD+EU/N0G8U91TFa6YDb6tYXKJ63rVMcrLOPx48kY68MBknRivJpQ3YVGvmhjAlEFJGxqjZUWhd7XzRmVsjblx/ooyk9vegjXOWrBvgLIWWDaM3PG5qlRItdG0lcCXPpBy1cJUhVeaDGhODHRTvmdOrdEbb46GJdjnIWNYlaJyeVEkwItFnmCo8dfpxgUiMMu1hZ2Go85XSylM1hNOjieeThOYRRPIMNS5uNE4eP11MMBt2kczG+GGxaI4hW8+PJz06uociiF0lj98b38yxJdvT81uoQ6o67BXMJjs/5KEaqO0TRsdYxqzQ/RxorzGjrslADbNfnddCfyMyG/tM5Xib6oDj5NWE+dGDPzPWODafNeoopbCd0VsGXHDszmc8Yi9jHi3Q98tgpCHxPel6it02RR+2zaBFk57FF8cxV5/eLaUI1rHSxAaTQ0vmUyxlWOSijK8b+a3lCG6bOogq/V40yI+V01nK4707VONXU0nXke4Uwr9N3ExnNr/HE0HlAcgAkLeZ9ZXlyMEqyMJ1gcRlgajrDMZ1NyhBV+XhklDI/4OTFGvLlClm06Rn99fXr209B9qfNwIyso3cRms4lOt4Nur2t809BDRlBpqTSrXCsKVyeozlWdozq36569w7D8TflsRH2We6U308PCwib0uj3j1QTWUXxoMUKNvy54r6RbuLZAVW6KzFe9J8v9HkvhEqtx2KXkX/+oBfuKQELlGrU05LWEUwWf1MJBWtdZIlBZzFqLQouxVRbTJIqMg+VVxOPIxGVjE70S09PW1bsPnbu6nmyvhU2bkE9iNNIM7Tg1duMcM1GO+SjDLN/PJiVn4gLtlBY6fxtSNDyqiZhSFCYNF2ngMy0u32gERfl0Wl15P/N7BmaLhM9HfQJijbOjFuwaNWrUuEZQC/YVgAwGJ2DTl5S1ei2hsva0cptWvlP832Qds8mqcGt6s8nebreNmzbNY35u7lSTv6J+r+P0/nKiagEoi2/Ztg1FRMs6d9BmkDgbA5tiB/OJi4XUxXzqlYxdzGUeWgxr8MFpk1gx47ObhGyWh7z3yxh1pa3vK40qXv9jizei9FBfmLvMHsPUJL9RjPJasK8A5GEb9ftGzcK7FlE20fO3+J5TiqI6HysV2yjONottOqFDa3CIVcnSby4Xyzgqa5fZ23M1gcU1l45Fk1THX8JXrfOvkRdxkRkVFlMwEr0nq3vWiJOcB2uZAXXhXRkoshcHjTop00Bxv7yjcd51MFmZzYxvj/IAPWXHd0sWF59W1yJqwb4CkNi1ewslaX1eS6h82LL0NlrXVeeXjf8lg+CtlqBGjYzWB3CTFP3VNaNm5kkAtStMVTjPWz4vENX5bLYgBVYUNLsupUBrE+4koBiT4zDDqJVh0M6x0iqw1ERJhi+HOdZCoM/jR2wQiZlD0earROLdiu+7DeUzbdGlNJ7EiVECfj1CHY3q0A4bPaP2y7wRUAv2FYBcBpPxmjEaX5sWdmU1V4JdfZaQn8vFIQHRGGKpXOWiUJ9rOdnDRzwpjIPVDMO1t3Igrp+bb/kNw9K4HHtsyi1aPGR5ylKW1SnrM6UAM278QqMQChV+s8BJjxH0eG9aktUn+bmcDBPwtQy/FMv3SsFcKjaKZDps7izP5aoFo6roni/KVYWpvJQnY+PGqfnXM8rSV+OyQlaZZniJleBdb9jokhAl1mKr25GZjoYWWCKPnzyJE4vLTAcHURYbB9kAg3xk7JPDKUfpCOPk3Ozzex1fcT0ZIEZiBXk0HhuFiRZ6CX2Ks1wgtO7JRMusphPE8QhJqqGWekryn/KPJ6A0w8kpelQH0ec9BUnG1gKPqRTjKkTKOObaoJZxFNXKUUU56PexvLiIleVlY+nfv8qgPKOX8tPbouxT8diamhiV124E1IJdo0aNGtcIasG+AlBT3AtnjM3pMp7XEyrrZmPrQWFylbQ7bWu7dlo9Y3t+Cxqzcyjk8m6kRqeTTZnCI92N7J7xuQojfb4vmZXs0foNeR6fFn2vZ5SNPYp5jcBH5jGejJPohgGcpm/UQv5+u2F0mwHcBqnv5R6ZttFdWuV+yudIC1ZzOa5GOHLzMK9ZK4KtAzGHh1itA34329Za3rS4Sa0EeDVCWen8xnLlM2EriHlOvFFQL696AaiS6NKWVx3gZx6/DX/3o7dZeJpRIMwPev1A6SMBCDyf91cKgTokbbQGm+erR5bx+uKSha92NV08R1CMmPnKZrn18E9V0FwR9o7gecv3DOOb0zlVTefyG1272nFEIzh0Hi36nxflTEPXa+P3/vAP8Edf+XMMuvNY+MhHLXyQOvCdAIXXwMRLMAnL5+Y7FPERBT/TQvox3KycmeqtL2PynT/BR++4Fd/9oYfx6e//pIW/1ziVNzNKMyuY0XCE3Gvi6NrAwpEnaFCoe5MBuqyEBhRxodubsSGXVwNsPWym8+ujBD/1Gy9Y2F8OU0wCPld7tAkty3L9Ez9zEPIZe4MYv/jp+/HDN5eb8Lp+udnE9Y5asC8ApwrFJQr2z31sP/4vD26x8MxpotMpM9n1AvORjobodFsYDkq/8SwFYTge4g//4E/w1JMv4o9ffN7CB9vn4FBcWhGFpBJdvmg1O2m2ZlK604Zf1ZGkVei0JFA5XI/XUziPk2UVs4JQRSFo5IngBSGyqYg7Tojx2hBRf4iccWrsv9vCm0EPrDp5MlAKYqThtKLxQ3hpC4GuyOcexeX9DE+8gdkDT+Gx+/bj0Q+/D5/+1Hsr2EoLtWjkoxa0zraqOi0qFblt/OlT5e7jS6vLuO+h+3GLm2GeLY/YK9eyUd9CtSb1mVB+r84vnK1D+d2ENodQxXgxgu1OBftztWDXOBPvVLB/9mO34ec+cquFJ4nWnLi+MpYEuz8coD3TwXh9aGGzM7MYj0b43//ZL+Ob33wef/baixY+2b0V8ky0xwnCUn+tk8lWrTPB1jjnUkhkiStZJRia7t6ZLpwVNLTkqKaf54hpBXsUWSGOIwoNLefAQ+FW1qOLPC4Q0/KcBE0Uu2+20CYLuEvjOZ0kyPwUeXsqTjw+G/pwGTd1XhZ6Q+T9Rexaeh0ff/RePPbRR/D9V4lgawhjCSYeWxhZ4eHJVw7iF//lL1no4WNH8MiHPoAfevA+vO/OOzHQClSEz0pNa5sob58pyFYBDwbWShIu91DUixXsBvOIc4MKdplLa9SoUaPGVY/awr4AvFML+2cevxV/96P3WPj1iDRJaelO4LVCRP1yOVVZ2JrV+c/+xa/hK995AV8/WqZXvn83nMYMfIcWrlwSAtM3S5l2hcZ1e3Dki1ZwViCQFZkmOHzkCPbu3m3hmzZtRq7JLLyuno0sbkErIWpIW9CUu6R8DkWaYULr//jhozg54TX23GThjaCNMHPhpLS+/Qy55qETTkHLfeTR+g9sM2/5gA3ri5g7/jS+54G78D0PP4JPf/K9t7BlGKdTt1GVdn/x7efwa3/6l/jCl37PwodZik0Lm/BDD92Hn/zuj2Hrtm0W3qL13OvROtVt80SaFFVB59Y2aVqfWqgs7cuFjRb2X59a2N98Wwub9z5IaGHfh8/tLa1/N+zVFnaNdwfWi50OjZp9dj1BzWd1+pWi+eZxtHJppKzkEopB0moYndl5JJu3YXlhL04s3FRyy01Y3HILeTNO8vXkZr6Si5v34uS2W/nK9+1tWN2+zzjYezvWt92GZR67zM8r228zru64Hf29d2Owh++3bjIOdvJ6t+7EcNc8+ls6GG+fMQ63dDHc0cV45ywifh5s7RpH5GTnJuR7NiHjb9IdU27uYKnnYNkrVyh8ryE/v2Zyys8uasbp0TcO4rf+ze/h33z1L1D05ow3P/Qw+n4bv//Vb+B//9Uv4tlXDhidVgcjPptSr00VDaoASwPFNeEWrwh4Sdvr8k056Owov1WfRoGw2TRea6tgXipqwb4CKDuDJkZNKrmeYB1TLEHaLUVzT6pFi8zHShO13W5hNIwwSWi1kQkL2WQUIVpdRrRy0jhaOoHR8gmMV05gsoFjhkV8TVcWaSquIUwiYzEaIFlbxGjxKIbHj2Lt8AHj6tGDiJaOYXjyBFYOHjMOjq3CHaXwohweLWyfyS9iNOE5RrzGKsarfUzWWZmS47UB49JnXNbtu5jfiQ6tP41M0DkkkO85lOyMRsL0ENMswpCtm8Mn1rDC9N67/x7jXe97FPvufQATr4k/+eYz+PV//W+Nf/Gdp7A8HCPmw4vZEppMmD9JPTcJtipi+cdP+8gvP5SquidjGXROlFUMM5z6KshasGu8a1ABaLTnjNqt+nqCrDMbVkch1l6DGmcuZmyKh2ETN++5FZNxjnU0jEsIMZiUO193aK2KXTdFx8nQY1O3y9eue5ozeg0KNEMXM42SXR7XoEi12FRuUnKCNDI2szHPl2Km8DAz7hhnoy4WijnMZ120kyZ/2zI2eYyflcsG+CzsHu9B1PTzQO6FxOU1HMzyOHGn18a+ooubmjMI/cvrIrgQSNQcpEickkdY8X35L76Dl5ZGwN47MNpzv/HV1h6kdz2O7uM/gdVt78OXnjts/L0/+hMcPbnMp+Ajc0k+P1FCqPVIVBFrNNN7NqLptNF/DhRlp+t4aLxe10w5E7VgXwF4FIRoSItSnE6Xvq7AwqUx0E7u2TAzMVpdQrJKC26coUUrW5a22Gx3yu2wXI1o0Cp42uuwfLUV/dQM17ofCrNXDTGjFchzxlFsjEZyLcWsJNR2KRcBMlLFRIacsvTL8MymqffX+4jikXGkjRY0DFAtBAq1fMEiL2UuLI+/VWVULlbF8yYFxoMhDf112Poo7yF0j5NojIniq7qSTMYTfOMbX8fK6ip2bd2GTTNdYzIemX/4pp3bcffddyHgPYlf+/M/wx/+0Zfw6pFjWMtcxAwTdc/VcrlX0sI+n0X9ZlRqrjVg+Gw0vEi8AVALdo0aNWpcI6gF+0qAqWzrRpPm6yWuWGfOJUI+TPnbK75dfLV5rEYZ0GY214joDmN4tK7zsSbETM1AMmNiTHiumIfFTBejR2uOFrfeJ7R2E30WfTZ5pywa/DL0jDmZkWlDE0HYhJfFSca8xDBLsJ7EGMMrSevRdxsIyZbXwma3Y5xh+My4wBw5r40MeCLjBOjxNgIZ0QmfF+9dnDBg2CqQNkM1mcobfw+h9NYMwSiJjMdWVnDg+DKGvM9iYQ8m8zcb1+Z246Azh4PuLLKdd2PT/oeNEe/vT/7sa/jzb30HS2x52OxQUtPWNdqiWkrX+iiuCNQ6YhbhO/HtU3ijNa0j3/vncaVwpZ7GDY2N2UnrwF0LULNbhdV81OT5Cq7tLMM/zwuMQatj63KEEtwJRb9wjTmF0lZc5elONeedHKlcJBRChfOQKXN+LixMK+ilLkWazDR8K2Dc7Hh+H/CVdHg9vepcqY4n5aPlwaxUGC8KUtcNjU3GoRPn6MZ8Zau/nRTGVgo0eMGQ1F6OkgYxDR2KNs9nYi01f+9QPhMXgdI6bBjfOHqE9+ujs3k7a5wFDLwZ4wra6DfmsOS2EDUXsGvvncZbb96NxaOH8cQ3/xJHjhxFRJUUB7w1TR7SruwS7isxVE4pam4ovuGjNm6U5LOCFTuTgKie0I0Bu+Ualxfntk2vXkiwZWVrGri4vLSMpcUlDEdDCzdf89TqlgWuMP1Ga4qIfc0QnKFl22nZqIqAIiq6YUGhZcZjGaNOG720gE+x9HRO82vzmlpnhGruZBT/lIU5GsKbDEpmKQr+JqcFLBEO/dDYdAM0Kc4BhcvWstb4eJ/XpNXoxZF60zBOaX2TkzRHRIWY+B4mFMCY8RdT+c1dXtvXGG+NCCkpizuYUMAp7s1mm/erZUtLH2/l59Y4cHE0Gr1pxEXlC9Z3Sqt3BRS30GnAGWbGI4eOoGAaLGzVJhkhstG6EYN1dBm3lixyJfqmTcbuXbSyN+/At145iGefew5rK2tG3ZMWK+sPBlhdXTOur6+j3+8jiiK7n/NBx+gcWlemum8xYcvnbPdvZ/RYObAy1tA+G94nnrK3CbXSjHrPw3lP5Wgdk3vyxpCyWrBrnBWyrDRhIklU6FKKKq1QNrfdVB1xpViLKpBqPov6TbWnY29unqWKJwopqCxXIYVAnGAEyhdcinEj94wdnns2ztCeaJuuBAMnNsY0s5vRDGYmbczFfWyZLBpn+J2s+TRK0Sgo0LSGRQ29CylePs81zijMoifLOcb2uMCsOhcp4iV9TBodrFPkIop+4PJ+SbOpnSHFZoUV1TIrB1UQAzS003rSQdOfwc5bbzELT9SkD+o9IQGR+ye3USeZdjyftlDUIWudsjy+qtjeKczK5vkWjy8ZD7x2HIuTHMPAg9Pgs+A9i9szH931CFry+4TfwFO9ncbv7HscB9//CTwZ+/j2My9j+eArxm4xZhqoduL5G4w/WfDZ0oxnmpSVz/mgEUIFxbXgMy74fppUp/LLucHjmdFEWzeAzxlOdbzG+YsaoeOXIn+DdDRuRC3YNc4KWUIJLdJoMDK2wiZaWYh8dYJ0XC6das1lFsL11VUMyP7aGoa0xsR4urOOtm7SJI94QgEWaWkFtjEvv+RvRYkvJc2Or4RI1GgF7QgjC1/N32owQFHIZ04x4fESh3hSUka5zqUmvR1PyigrF5bSsEMJbGnF6/xy88gPrDVIkikDTW/k9xpd0uA9N1stY0LB1ugQXXWVFnTkZEYdvrayUkaM1xEDVjw+364tL2GN6aI4igHTK6WIvluCLVQbYygptUCWq4WwdAuMqygDVYdqwwilS9UCYmphx+7dmJubw5HDR/DiCy8YlQYa2qhFuE65t/i8PFYEoZadnV5XUCUkARY1Mqgayx0ZUxw9sYLVlWN2/fJncrVIdM8OS5ZTlvTp6/DXG8ibs9d3nobXInT3NWrUqFHjGoD3c8T0fY3zQBaF6+V4dqWPLz6zbmFaAF9LeZYGgazF0kenDisthTAZxviuWxbw2JZywkzhBGhotTmaE5WVdDXilddfxfH1ZQyTMQbxGKvkcjrGcSfFYpFilORYiWIcXVnC1596As8fOojXjx/D4RMnceDYMURxYvf63Ctv4PlnX8BKEqFJo6i5cxPmepsQBG0EtFyDVhONVgPNgFZcp4FipgWv20SocdvhDLrhLHwnx2B0CJu2brJOv2CrOtbm0O510ZydNT95a4bvO22SFvFcF+FsD53ZGfjNJrbTsh3SCl7M2MTeuZVmiqzHkJYzj292eX2fvwvRaLd5nhlbntVpNNDodmhdNuE2mkgitiwGq9i2fTMWdu1C0OlgNUqwtDrAs8+9CDdoYZ0tj/VxxvAMi8MRvvncc3j9yBHGYxYDti6GvH5/fYD57gztQ1q87+DxV/lHeanX6+GJZ17GU28cR7rvZkx278RJ38UwzLDSdDBuZkj5Hh4t4WLM/BrbpsKd9jySYyfRP3AUc0EHx5fG+MCDDzFdmhgMhtYy0XotPq/TaTZsYpQ6B6t82x8MMGa6THhvGhevmbxVCyovPGRslTSDmOnbM6NYKynKt31mR6ZsZZ1ynVb5558/bp+P69pmTOtaZWtKkBveY9ydJMNnb9+Ku2bLRXodN7RWxPUOthTfhfbZdY4qid7J8qo/+8E9Fp6kIZuW524WXhVgxfTc6y+ju3cTnp2uY/2Hv//HmAwmyFhwJ+o1nK497ct14JbNcG1u23bKe5v1WhiNYxw72cehV47gUMC2ObF67x5k3QVEeYtpJic3EPJ66hTMWThHPTbvpxMJvWET7aiHIBpgfekbuGVXuXBRsf1WjPwefD4Wh4VfE2wEN8vgMj65/BQULGFI0bhrNMYKRfUlnie7d7+FexkriCJAxorVwYSFvVxcyHN5/enzlj9aezgK7lofjQOvYd9CF3t3b7bNAISA9TOrGB7LqjqripKWdwVifelkmG2VswUH6yu459bb8IOf+iRmZrusNC59BIYtmMT0Wl9dts//93/0z/HrX3sa6Xc9jvSBh7GYljsbRUHT7qnJewkUv5jCTchbv8nvIP36lzH52p/iIzsWLPxn/tO/gX137MISK95XXnnZwiSXN9+0DxOK9wsvPKMHbeF79+/D3n23IJELiZ/Tabo1+LWrSVRxTnHtI2ClKCQUWbmhznSLlPdS4I31CH/1N56wsCfGCcsV30iwKf4SakGzU0MaDf5wiF/8zL344b2zFu74XVYE5TO/nlEL9gXgnQr2m1br06mudkOAcTxw6ADeWDmGbzz7rAX90i9/HusU7GSmh7zRZoEs00S+4YYfUgdYwBKKHgVS8FONCgnQa83Bm/hY6ZUCsnzTHMZuC5OcLQ5+LwQUAI/WmVopkx7DpoKNUQPBiBbwZIRk+CQ2z9FSI4a9rei7TVvVz3HKykKgBFO0C9COpGiX8VO87plkGL3+Bt4oYrj33WHhHmjNR1rjhc/Mm1A8ywrIdm5hJSBfcMHfOhQdoUXrr3P8INrpCBNa+fJ9C15WTmVXOlDeLUz/57QCMzfjo04p+mVlkA3W8LGHP4D//G/9Tdx79522JvWloOrw9Sl+h1541cL+X//8N/F7T7+CyUc+BOf9D2MdpUgOVZkyRh3eVythek2fm0bNz3hNtF57Actf/TI2T/oW/lM/8DE8+sjdWFxawpPPPW1hhw4dZf2s1qN26KFFr42Via27t6KzmS0Sz8P2hU18PnMWfvPCAmY1Xp3PU/0D7rRi1hyEBlsuZ+K0YI/xV3+93HjhickFCPanKdg314Jd4wy8U8H+2cdvw89NtwjLMk1KuNoVu8Q3vv4N/OVzr9j7n/+N30TcnUO2eweSVhdFUlqHEZvD6jB0tSkD04GJZeE+rW1t4jLD49L1Cfrl4ci3zmi7E0S0AG30AdE0wY6ZerRCZwLk02P9UYjOZAbOaB2Lh76CuV7pVhrPbce617Gdazbm3qY6OCmgKWIKdimSST7G3RM+lTeO4IRGjHzgAQsPHQp+7CJPNDKB9+CVz00qI5nVcEHteJNPLWx/PEF47CUKdGLD4eLZ0iLVsERZ18wBzAOlYOh94SS0YhOKecKWwoqFD18/gO+59178u9/33XjorjuxaVN5DonvxU5Q0SgUL3GxenDRPv/jX/sdfPHPv4XVhx9A8MhjyMJ5Cx9o7DtjtGkYY463WLkzCipgm9Z3Y5GW9Jf/CCsHX7LwvTtm4PrasX4Zg1G5zZiWz9U4dsdhReu1T1VWuSbZBB42b5rFQ3v24O6d2y38kx99BM2WgwYf726Ga+KRoM7OVuutmyG8SbC/OBXsqBbss6EW7AvAOxXsv/fx/fgv7i0LZ8EM36WFIhm4WrOX7ld3vLK2ht/83T+2sH/4L/45mjv3wrl5N5L2DBpOaSnlFCuJTcTCq3WrtX6H0Al9tFTQViOsHF6iYJdp2L39Zszu3M3j5Y4olTmg+AQU7JwCvt7R5Jjy2DAKMJstIF1bxNPf/CK2LZSF09t9G6JWDyy3SCja6VQQGizctI15ngyFH1tYUoxx+yDH+kuv4gQvt/nxRy08oJXv5w3WMSFSZ8z7Ldd4CZsNjEeltW/ukWmLYXjiOLKXn8K2WVY2CzuxGpS738iQL8dfULAthJCKU/Z5J/Bp1ecrJy34+HPP4NFbbsHf/N7vxmP334/NW8pt4y5NsCnDbE1kFGLhi//Hn+J//Y3fxcH9N6H14ccR9HZYeJ9Rkb98bhBjdsLITiOZZjE6tHabx0/g8Ne+itGR1y1866aQz3ERCdOk3S6fcU/7P1Lc8yJk7m6wEVWeJI7HGEds/bAF0WMrqJmUcbnt1r24fd8t+BArxw9/5IO8v9INI+EP3yULOxiO8YufuQc/tJcGAHGjCPb1f4c1atSocZ2gHiVyEbjUUSIfvWkTvu/2nbbQujftzbbDr1LIwpbF9/pLr+DE4XV4mYuvPPscit4WDJs9LE4CRFETg4iWdUSLNKIt6bSxOnFxdG2C5VGB4/0RlmgPZEWAPq2lYRCyOR3Amy9HSIwHI6SDIdLREMV6n699JOMB1pMhLdw1xMM+8tUxfJ6rGK9jsPQSNs+2bDkRj9b1KM4wWlvFiMfFWmKTll6RRvBozWXjCOP+GhJaYQ4t9/kspYW8iIiW7/zNN1uHW9wfIz45REarLuJ5hsO1cqPeSY7+6jrSYcr3mTEjI8Z17chhdHpdW1t6eZRhwma7zZiMEwziHKtpgX5Ca55x6NPYHDKOGpPsM0x7LcaLfWz2GvjUw49j/769NJfKXGBrrVxkhtByom7g4ZUDr2KVcT94chnPvHEEi7zf9pbt8GcXmPoFWzK0yXh+TXhynADjJp9DGGB9xsd4poGjuYs3vBAnd+3Ayt6bsH73PVi87S6cvO0OrN75IBb33YvVOx7C4d134cDWfTiw7TYc2XMHju7ej8Vb7sFg392Itt2C5c4ClmkFL3Y34cTrB3Hi1Rcx6p/A5k0dbN683ca1a80Zbah8JmQ8y5DWKJFffeG4pcX5Rom4tNY/Mx0lItwoo0RqC/sKQA1mlnqjzYC7RjAajig2mjWniRma/hIw/j5FwCE94yTxMYocrI0LDPjdmAItDilQq46PPsVixBSYsAIwskm7ujaETd2OSiZRhJSCG4/5fkwhHfE9qSVDswmVL6Fwyu3BQirmmlo+0qL7EQoKFyNn1DCyWOfTebRBAZmzspBbI57wvLymOiWtY3JEoWZFEVOkMwpvxVF/wO8Yn4SVDCudioF8uBSb8ThhJaXJJ7lxzLjFFGrqN6lXkukz5OcxqftNmQaihLPgd02/yS9YEWnWI6lpLBcLdfSp2p+dnTM+9NCdWNgyj3WmbUIjQSNujCaHFEnr+ONz5DMQI5/PUFPz2y34e/bCv3WfcbBtG0bbdmGy5xasbd5qPNzqkj2cnN+G9a17MNi807i+aTuWZ3dgwjD/pjux+a6HjPPbd2Gwvo6XX3oJK0snGddyopOSIIrOs7ywoivWOCtqwb4CYPmgSK0bo6j088lvedWDZXwYrhtjlwKofRL5GngJGn5mbCFGp0jRTMdoxxF6XmZsNTx0Gd7h97Tp0ChiYzOfoJjQancSuE1aSqTGxhX8jRtk8GkwOQ3a4KQ6A90gp0XNus6JkfC3YpxF/BzRquJ3IQU45G9JR72c2gGdv7NFocSCQk7hSkmtpWGjWUjKOHxamprB5zV8hO2GMdBwPYqLjeCgwCQUVFELLBX8buIrmPfO+Ihte+X9uylCNzP6jFfAV4+tMa1nclqDeC3e4JjnW1pnpUSL0sg8cbH5Qa2gMSs3P/SNd962F3fdsh2tlC2XxSOYYQUlzvL6jtKNcRoxbSdeakzzAQajZVY6PAebgvIti1pGhY8CHisld1DSYUvHWx0h7Ee01GM4rMxEDNYQrp9AN17FdneMrcHEGPA5L2xewIMPvh87du42y1fUeiuWqOeAuoqUDpYW/Hdee/lNwv6mD9ctasG+EmDmazdbxmrSwMV2Mr0XSClMS+GqMW/R6gxpHRUTeHmMgK0FsTUYYpbN8M1s9s/Ruu2MI2M7GyOI1tCiMLfdBF2MjTP83CgGbNKvUUT6xtTnZ4d0ByiCEdWiZMKwzF2nGEcIWxTk5thYeAMK84ACPaQQszIp1k4xD/o8By1rKo9YaDywmsrtkMdTcDWFmqQmoaHp1nwOmjauMcSiwzC5bOTcotpSREomNA9XKXpJk6LuF+jE6yWTPhrZkJVSBJ8Vk1gwjZyCosZrFBp2OF0Ho/BZ87D2KdDmK8lmvBgGrAxYsaQXsTGCRK3wGNN2yUE2wD1378BtM7yfF58FDr1qnGE8GIJ+w8FSx8VaKzfGQYTVbBmLaR+LeQSmsjFq8Cm5XXN5ZZg1Bv4C/LzHRx/CjWkta6STyHzdYOXd9Sjo46M48dqTxuNHX8NuWu2Pf/SjmJ+fPdUa0QiVZvPcOy6dV6A3wJYeKN9NeWOgFuwaNWrUuEZQC/YVgJrlYbtnbNBCu2bAVqZTuEbXDWyPRo9WquN7bEazKU66/Fyw1TApaM0Grk0pFwPepxvKv0FrVU1dvZIBm+8aImaLFMnnYqSFJP/u9LXMljKhpq8Mk3Xm+w2jTRf3Sp+yr45MWsJiUXhINMGDFnWLrRmx0Wpaq0adXZoVaYtRkVpQakKLVkPO1CEW27TqCWyBJ82UtOVdc/6W1zDyt7Qo1fEs6ztnvEQezXiX78vw6X0Y+ANCW8SJsuQnScz0iG2sM+1Oo75zNV5arXqyWlBJPJurRPGdRBo7riViI+NStIodO3bi9ttus+3DnnniKePxI0dtarkWtVLMbMgmqSGqWp1Q614HfE6aNWkLO6mvIEsYacaZ923k+yD0aB0zrXnHDuMvNhsu2o0AGVtY60snyWXjTbSuP/Dww9i2bTt/x1aEfB1qvWiBrLeBfTt95MYLgFK6Su0bAReYLDXeCdQ7Ho3WjJOonNBxLYAyiG7WNibDApqwN2LlM6DGrlGcxaWOg2ONFAeCGIfbKU70MuPJIMXJRoZ1L2NzPcaIaiSmGUWNnGj7XKdrjIouRnKYFD1EfJ2gU7LQa5e/b2B5zOuxSS724xDrcYOvTftt7MwaU7+HzON7tPhdbFyfjLBajLHsTDBwEvBnxiHjFfkpEm1M0HSRtHxj2qZwtkNM/MJGlaSsV0Qt+zrKIqwVEywyXU56c8Ylfx6LwSzW0MaA9yRqrPLQCTF2PEzyhJ/Lv3HWt/Hhq/2j6PdX0GDlJWpWZMyKY1QMEDOtTgl2JlfCWzskVUGsDlbRj1YQa0QNOcPjHty9DZ994AF8fPN27D22ZAwPH0A4XIEXr8OdrCIdrxnXV4fMj7qO1rjmg9XSAaKWGdSYeVfPOzI6cWRL2s5ma+gND2Pz4CXjnvEr2Lb6LNov/inmXvwq9o6PGj98/3687+H3Y9P8FquMCt6feFkgla94A6AW7CsBpnK1iLusLOFiO5muJCr/utYGcWhoiq7vwqe15PiBjWqYUFjEmAU78x1kDdpetLaq9aYzClVOYXe0KD1NoKrQysrTsDo4Aa1L7zRpKWvijKab0K41auq6vtOQuNwN4TVo4RvbjEeTQqfjKQi6Bqnf8gu+l7+Yr6QXUoAlirynVBMr+FnUzEx5jCPGM+V9prxJUROAUl5Vfm6NsPB4v2Ihqzugdd6h2rdayNhKEBMyDRpIafXngXa84bE8N0Rap9YaYbqInlokrOQiWtmtFq1axknUhJJxPMDaeJkV1IS/Z3qJroYFVjMwT8NlOubJGCHFtekVxgZr0/HJ48hWF9Hss2I4vmgcHjqEuL+KQGnP4zLeo1jwXjLGjZ+sr6JadtZaBbKEaXnn6igkI7Y8lB7Nlof5uS56Lcc4Hh3DwZefwqFXnmS1OsLHH3nQ+IOf/iTuvmsferNdNDpzfNoa0cJndB5RNUt5GgXjWVGeRO0FW0hKLSjybMMFr0eUJbPGZYXEuddhRietiUhcyU7HlNaX9pMcRxFW19awNuXSyjKOnTiOI0eP2TZR4huH38CBg4ewvLyMlgqb0zPmCYWIpqZXhDTCQmh0opjQatb+jLmJFAuNKiKRTW4pNhvelAMKeeoZk4zi6bdZfBtwUhY70s19BFSoIKeo8TdyD4i+bPyCIsfraOZowN+KIY9hMS2PzygGbMGL7oTnS/i7hALGy4stirqnKey8/4LpkGtYICkXAWNcxpMs7BhaumMKJitWl2FalKo5paPxefwXsvIIGVePcRabvH47JiceOqfooEWjtUWtbScOwpjnEqWDLHJynjADUCA1ioWtDsZHkqYWTeBQ/HmsaOP+edygP8CJEyeNJxdP4sWXD+DkOMPhyMV3Dg6Nn//K0/iHv/57+PxXv4PnI1Y4O3YZk527gNk5FMx3GlWSrpZcmLSwY9LG9qSB7WzxbOX9iQu8/81RjB1ZgZ2sacUtfJ6b1KG80od37ChGL75sXHniBWSHlnFLdzc+/uAn8dmPf854x8232VNXha9RMdUokfObwfpex5l0nxdvns3ANL0BUAv2FYAE2wm6xuYZK5VdTlT+Svl/xYyFP/N4/WbLGLR6CHrzaMzNI5hfMHozC2gsbEZzdhN27NzPFkGvZNJiU5oSmnfQbm9CODNjdNpdRM0QcYfWZreJgucV0ezAbfdoUXZoZXdpxdESNcrHvYBOcw6dcMbYa8xhtrkJs63N6DZm0QvmjDMM6zbmaUHyOqwwcgqg6KYBGk6bv+2h7fbQcmeMHb9nbHodfu+XnGZxtsz5jgJJq0xs00qepQU4227ztYeZmVljh/fR67Qx1+5gvtVF1w+NHsU+oPhrNUCvaNC6nS/JyqxN8sqYKyq2wBTCvBNijtIVxKyyyJYqET4PjzzyxkFavhoH3mdahAhSDXnkAbScl48eNR546WWsLq7Ac1p8fsw/ZJ62aXW38NzhAX7p33wdv/TbXzP+k9/5U3z+y9/CUycGcHbdhF0f+IBx0/33w5ubw4jnH0Yj5CNa0uTMWgO9kx42rznY3i+wMIyNs4MIc8MxZpb7CBfXja0VWvMn1zF87gUc+vOv4sjXvmlsHFvBh3bvx9/6nh/BT378R3D/jvuMqnRjtiTVmtIOO+cTYZNx3rteC5ev6iw4jzLpWGudjCNjOWTw+kct2DVq1KhxjaBe/OkCUCXRpS7+9HOP34af/Wi5rGem3bivUDVZrZKmUQuTNMGzrx/E0RPLrKZl9fCFze+CVqP5V20ZTmCinkXeS68xg2g1wVe/8W0L/5Wv/DGCXXvh3nwzJj1aetXiT0mOiE3fgVblabAJPx0JEGcTG0Vy08DH4PAJRBp5QOzcvRe9uQVkPtMtLY91+V2HzXK5VFZamY04EZqTJuaxBenaMp7+1hewdaFc6Adbb8GIlrkZbTTGUlmmROg5ZlXn6QRxUq6Qp2cQ5gNarIcwYnw2P3ifhXdk1Ue01GMXE5q+o0aZVlmS0GoO4JprxeONlOEnl0/i8Inn0Os10e7uQ+6Wq+FpZIXtBCkf8LRZXmhVKieWI4jtiTGyxeMWPjrwKvbPdPFjH/0wbt4+h20L5XKk6WSEpcESho72x+S1ozKDTMb8rmjSOvZwcqlc/nRpcRWHeL4Xlg7i1dVDvNcyrbZs2opeexZzW2/FwtZ9iOY3W/jLW+dxhOdfGQ+YvmwtZGULzzvaR7S0Cl8LKfFysfxbhDz4GhGjDsnxoFytz2eatDSCZn0JuTfEfXu3Wvg9t+7Co/fdh++96y7c4ruIozIuSci2VEutOrZpZCxP3ctauvZsW4Rp9T85zw6uj/HDv/EdC3s6yqEFIQuNXCk2Lv5U8PlkaEYRfv7778YPVuthB20bzXO9oxbsC8A7Fey/+4nb8V/fN11KU035btuK9uXUbblhtI6F0GLz/4WDh/Hzv/wv8MRTz2IUT2dbykXCGDsaYsdmv6CdsSWAmg2XNNR5aMFYWY8wM7cNQXcTBZW/GZdfzGfa29HDOI+RaGZfME0rdYzxPPMUiHh5hLWpIDjbt6JFwY+dCUW8nKYcsGLpFizcFIplin650CrjHbcxk87Bi/ron/xLzLTKSmUwu5MC27Xd1iesGFL5oYnQD+BoWB4LeLtRFmSf7xGfxIiiP+T9unt2WnjD43Poe2imLsYazeKPLJzRtk0Y/MxDI5XP3B4sBqM+1kZvIGAc/HabFVwpDupQ9SjNGvqopy+o81JDGHkKE6tiNLTw/sljaEQpbplfsKGHtjs4kcV8Voxb0uT1+LtNSRmXRpZiFU0sOV301QtJZEkTWbsJbOvBo+hvni8rjs2btpmbxwlmkMY+1qZpcrwXYLCyphvAvNPCpnG54UH0ypcwefVpdFl5B6yktVa34DHus80e1Nfp2mIe4OcGtnS62LJtE+5+5Hb8zc/9qIW7rRBHhn1s8ns8jyYAlWmSaGKVXG9TVOVH+UEbO5+JjYL9Q1PBfuZ8gj2mYH/qHvzQzdNKnM+zFuwahncq2H+Pgv2f3VtaU3A76HVpoTLzvtOOxype1RrHG1GO+S0tnjYL3BOvvI7/2z/83/DsC8/xHkrruN1uUZApkBRTjboQ9NmjcERhgZTi6YfT8CTkOVkgwi4vHNgGBcJc7Nlmr0lQ+h41MkTQXEItu7mZ99ugtbo8tT7XWuUU78yNEKXTJU1zzYSknUoL+ESDlQV/LbTjLnrjnm0a0PIpllMhXwpm0ZdgU1A0gqHKwB3ej9YJsfU63GlB5k+8bJnhEYasENZ65eL7ft5EayVFh/cypoW96k8rD7Y4GgVFmZa3xDxkhSRktEQLf5X3l9HqzSgkZdpKrm2taIoKQy2ElzfKQNcY5sb0MRejAfwooXAG5Tri01MoH2SsNEfWaZtiS1wuLNZKIwzCeYxndrHJU6413W5tRj7TwWBTC+kcrf3puH7PnVYarGTGwwKr05p2aYbPrz+0Xe835S0Ex8v1zdde+FforR3EPTftxt65GVrR5f3nSYSt6teg8O/ZzusSj953J+ZpZBw6chRe6OP++x+ycJc31mdrRucu2NLqdMq0rSozdagqZ5Z+7DK/vp1gH1gf0cIul1d9lumkclWo86EW7FOoBfsCcKmCrYLap2D/zHfdjv/qnlKwXbdLC7tzSYK9MeNrr72YTdWMVlprOt13424eOiaajvkOKYR/9Kdfxc//i1/D00dPYOHussDlCzswpGBpQrXtFk5sYsnotppY1/Az3lfAJroh52dahzIZHYqDT2ETAqZJpsWZaFkXHtNBHUaEhsZpwaaOJrrwt5OpNTlwNPGE6eazQtCwC8LjvWhJEe1MorSspDDMGqwYGtAKfH5jwHsqBXvgNSiGITMv7zNLTsWlrftn5RFrP8mpi0cmMO1/FnKel+xTtAWJmzfIbNRHzpaEKhwLVzz47JyE5Pk9xr36wmvy+Wqomw0FLCsVHs370cgPnmdab6rVIsuQl+A9Ac3pkDPtrONSSFtMC03cmRrklh4yZifqcKMgzU3dFgHjMAgcjDsUI1q4QouVraIUKw+wgnAry5vVWcLfLpFDVqZV7IbamIGtkDkKZU/54Zm/tPDuy1/DXTsX8Ojdd+JjH/pQtaMaXnruWfQ6M7ht/126CwvbMtfD/FzZYhHyaWUwGA+ZFqxLWFFqMSpaDhb+JjCeWotFkPvIjjsDlWC/LpfIF0rBfi6iIcFkMMFWCk+fvc8WT8ic05wk+IVP34cf3FvuQlQLdo1TuBTBDhkgg2lAwf4fvvt2/Nd3TwWbzdtLEWwT6VMZn9lbn0kN/dLkB8FnYdB522yyy+qu4q33v/XF38I//vXfwdMsCJu/74ct/PjsTThWdNgUn7E9/4Q7nASztKJWKAzrPF9gBYbn5v1p7KvEU0t7Wk8+kVHVbGNWHpZT7CvRSs2XLcqzK0urjItGWEupFCcJnSARCzWSQpaxiV8pQgXVTuOsY8c3d4Y1jxWuNTRUwTAebhbbcDmBDQI714TW8Eg+dcKiT+XUiwq7ri34TLdcikohdlkJyRUhyL2ixgNjyIdIq7kMNpEqdK88oYasORJcQpfWaezOpsdmesOKwmV6aKheThE12Hn5zJjGGmOtCTOCKhK9dwJJMH8xKveudGmij4KILQCtFlg+4yLv0/qP0RsAM6zQHLfcwSVnS2ZAgX+tGGFkoyym10xO2KzKLitT9+QhtL72JQv++Gofn/70p/CRxz+Im/ftZ0UxTa83Cer0HIRG0FMspp9K6HYVcrYW3sXABLtI8Or6BJ/7QrmH6POx1jthatmptR5KaXyUGxgUtLBT/MKn7sMP7CkF2wlOr9NzPcOyWo0aNWrUuPpRC/blxAaDRAasWNpUlwqZG7R0+NQ0EUFGrEPLqdloGhWWaquupGw+yhIWDbRIc79A0AppfKljjt/FQzjjdXjROpwpo2gNSTri9xFbCWMUkzVjxuOKcd9+k0cDJP2+Meuvs909QDEYIO8P+LlksU4TcL1PjuANxuTE6A4TOEN1cg3J9Sn5W42l1Yw6MorHRq2NPRkNkYz6CCYD+IyHcbTGcyzDHa/CHa1jsr5i7K/ylb/RBJmCzX8xH8eM+wjpcMR747n4vZ2X19FoEk2i0fTrEY8R42iMdMJzyKfLV2/CeJPqmPNGI4DxjddXkQzXjZl2Yo9HfNV63gNjwrRKGF9trBAxzSbRlHyfkhnjkg+HPBetZtIdjhGMmTaDBF6f1x0sGt3RKho8dxgntKppe5MeWyFyv7iNEH6zCW2gIcZsVfR5zVRuD7ZWqglBGgnUzpoI12PEbyxisjIyBjM9bN6x3TpQhYhWu6jZuIJaZylbFaLGOMu61hrmVSvPQMv6nVrXgvKxRudM2GpRkdlQbM6C6nrlq+drzRO28N6FeFwLqAX7SoA5sFpc593IVsqcRZZiefkETh47xkI2NjYo2ur4ySjGKUVLlYOY5DnChXkcY1P+CJvexync4lrDQdxlA58cd33j0Y6LQ+Sql2KYUTxZyxjlauB5k0xN/RCNsGXs+F02Udvw8jaCrENxaBs76Qx6yTxmkjl0o1l0hz1ja72Hdn8GbtSCG7OSIZE2GccOJs4MRpjDwJ0p6XURey1zXTgUxna8auxFxzE7PIz56CRmvBgdVkJi2pzDamMBI3+eFdmC0XMW4HpbgOYWpK3NiJqbjMNwHuvBLFaDGayRw7BnTDtzcLtzrNxarPgc28xAxDCyXcdnchedwKdYlkx8B6M8wUo+Qd8tjONuiHi2jVGvi7VOE8NO1xh3ZpC0ZlDwup6zCX4xZ2wyjTqjHnoDptGoy8+pUcvQ+gWfY8ZnM+WQ6bRGLsHHYV73YDwwvj7p47hDQVUncdC1yUXi1kGAuxYLPPbSCh574QQ+EM4Yd+/ehb17dmH3jl0m0nKliQNWJPqsPKYNH0SFTyJWqMwHClfeEt89MD+rUuCffP7ihUDxcYO2UW65GwG1YF9GVPlO/s/uDIWL1ApywsV2OGoImHzIoqBx1V//5rfwW7/9Gzi5dMwYxUvoj1fMt6vFgzSzT9QMx1WNJ9aA25bW+/BLqpOu1WE4X9VJR8YUowmt8THNHh3jUWhEXyNbgpBCRosupHXXaBu1xseIVuwkYiVByy6lyIlF5sKluLm5R0s9oLyUf5R6BPy/GbQQ+rT8RJfize+07nQ+fRW1hkhK2lhxWpPNVkmtSdJfW8fx5SUMaB3nfmAseC+R62GY5BhN0pK877E6IlNtXkAB5rlETQanPYuM78UJ01UcUqDWKNB9WrxaH9tvdoyNloZiuujTGl5c7WMtiYxZ6CLszdBi7SDWWGTSFp2ipTukoE4oRBMJHhnRgtQr7X/en1pIfJoi4+E5TBlaw02mTyv0jdoOTWPpI4r3KOY9kZnD58S0yBmficd7pTEg0k5H4rHy1fBM3mfOY0WluEvLPLJ1RY7ipq3bjY988BFs3VKOp6YKm/9XDMgRWxIaEqoRHaLCD77xBp565ln84Zf+GM+/8IJReJPF/Q5QinRpzV/orEUtqsbmkFGCfyOg7nS8AFRJdLGdjlpnSKNE/vuP34afe2S3hadFg5bp6TGqFwJZOJp0UEzHgbleA8ts1n7pq1/Db//r38Rj77vXwh95+EHceefdmGl3bXsvLYkppH4D/8cf/Cl+4fP/Es+NJph/+BMWPtq5DytOx7p0NChN2NZOMU/xm0lcNLWux3SI1pDnW19dY0WQodXuoDtXjv/VIkESlJRCn/FYGqEG2mXqmrPmraoNZzpqw6M4qiMpYjqecg/llE/tuE7hUDVG+bJgj5WGy7RvUbR6xQgtWvzC4I2XcezAKxhQVLfsuAlbdt5u4UVvNyucWcbj9NBAdSBSBij+QKzyPR0NY49UHXEq9IyPlpkSnCyGlyVo8/ue76E9NfcKWp5Lx49i8cgRRP0InW45nGz7rt2Y37kdGSu/wVS8hhJpnjdjOmqBpVTrkBAp84RGmdjiV3aP5bnVP6ilR5Uueu8zLQSPgp8w3cY8j1pngjaD8LIx3P4iJiePoC83DeG051CwAo3a2zBxKbSssIWFBqvCI29g8sTXESy+ir/9U5+x8L/5uU8hptXcZYvMRm5UMsDr6EobOx+XVlbw+S98AU8/+5zlg//qP/tpC7/v7nvsVVAZuVS3BLM3K5cBXh5l+PFfLyuCF5iRzt7pyHLFCrsxTvGLb+p0vDFGidSb8F4EbDGei9iEl3qAeBjju27djPfNeTYML6cINhq0VJlL3y6D6/uqEIjVvngqXNrm8ImnXsEfU7C/+ZdP4tjho3j55YNYWVljM9FDS2IigfRCChaFl5b14WNL+NaTT2JVa1ds2UZRmCCcWTBLP8/YBHe0lVeKLY0JZvnd5vUhukvLiI8egrN0AquvvYjlV17C8NgR5P1VFhxK4uoiNJel1fRYOVCU+b4Icni+liWlVct6ScPlYr9AoiVMNbabYWO+ThpsBfA3aegga9Lm5HW1LZgbpExjio0EvaAw5eRwHdGRl5AefRXR0hHELz+F6LVnkJ08ivZ4hPaIaW6TUhzIVlecWI+gRREM+Ww0vFJ1VxjQYmbl2uD7gMrok9rGK6TAN/ld4BXoUSRm+L6T08LU0qUnDyHtL2H0xmtYPvgCrdTX4BxaQvvkCO7xZbQp3v56H84wQkOLTg0ogkx7DWds8lX5IORrk5WZL+EltYJhzlZNtaJgRqs8YTxjPouUmcbncy/43tYOb3bRavRsEasWn2dvHMFbPIn8wIsYvfI0BocPIj1xlGm0iiId0XDg+UmNWfdYwQesDFeOHEa0cgz37d+NH/zkx7B1+zbs37mN12Ll6bH64Ku1+KbUsq7f+ta3cHJlCcdOnMDLBw7gS1/5Cl5+5RUsLS7j4fe/H8MRnwsPH/DeZ2ZnLY9O2LKQxW0b7vLLCxVx1RUFK8plpt8Xn1uyCmORIq60KOs0laupsWLlis+VNfEP7N+OO+Yb5TVYSV1sq/VaxPV/hzVq1KhxnaB2iVwAqiS61IkzP/ddt+M/n8501Djs7kWOwz558iTW19bRmfbor/UZh9/6XXzpz/4Mo/GY1lzZnI8nA4StLu6770HcceeduGnvXgvftXMHnnj2GfzKb/8OXl5bRvPexyw833Unho0u1mlROdO1Phb8PlrRBM0VrYGxhpV+OWV5mc3iyXiCnNZh0Gmjt7DFwme2bUNnYQEOm9Z5qHWhpxM5NJtRrh9ab5oCTzPIwrV7uJKztLzKJqxGpDjZOjy1QNIE6XQN6GgUoZgwXqsDjA69Cn9crqfRWD0Gd7CKlOdttuYQtMp1M7LuHrjzO9iC2ITGTOmykL9dezlqpxw0Q2TTpn5SyGXDloBaMnmGcnw4n1uawdFGtsurtOaPY3TipIXHcgeN1+DKtzuhBVuUk5W0i03eolXb66G5aZOFtbZsRagp460WJrSug6A8tmD6aH1pWc+yhPPpbEl1tyn/2HhutuKa6uQkGkoiN0TML+Pp9PZ86SjGtPqTk68iWT6MUVw+t7xBi73bQ7ZwC7zeFrTVX0E0aGX3X3sVc/1j+JGPPoQfo4Ut9LRZA5tqPuOikSDVJCtZyIP+Ov7ky1/GK6+WsyJPHj+O9fUBZmdnsLK6ipun+er7v//7cPPu3di1dRtuue1W3kX5jNV/omnyFwo+glMukb82dYk8R2t7wtZOecq3ukRa4wz/6FP34jM3lS6ReuJMjVO4VME+tZaIBPue0ufrOB10e28v2KU7pHx/6NAbOLl0AgcPvIIXXz5sYS+8eAgvvHoAYx7TbLfQnhb8jEKn2W7azitPMsxMpy3v2radBd/FscXj6CcTpNv3W/i4sw3rXgtDKkUyLgUhmByHn/QRxhNoh+xyoBXLAwXW97RYFI9V5xmFV0g0pMoPEczNl8utTguqz3tsqGOSn222pHzFhFJIayO1T/pol/pLoV5m2r6BKFnHOF5BXwsVEauTHMuxBNVBO9RIgLIy6GHMtKWY85QJm9IjLVhFrFI8J34LM+EMK55SPJuskIJuC02KWaAJRdq2jCh4Lt2bLeA/STEZltecsIKK1paQDVfhUcRCnl9oZilC88YnNpSynBjENOerVgAYx5L/Mk0Q+mi0e2j35tDs9JgO5SxFt9FETlFx+H1OEc8b5f3kISs10jZi4LP3jy5ZuLM2RKzOSw2B7JfPJ9OQv3jI+x+g2eSx0wpSfQaDZIxR7vMhNtEM+Ep0A94n76WZ9/HgXftw775y8atkqN85GEdjHD9xAstL5TU1QiRhpSSXx+lZiUynhE+OlY2p63QiUIPpuWfXTnzk8cfx6U99Eo3pkgdrq8vYpJmRzDPadPd8bpFSsPt4aZjix7/4koXJh528jQ+7ScH+/1CwPzsV7MJnXjsV3+sXtWBfAN6pYP/Mx27D3/3IbRYuH/b5LOsTLEBf+cpX7P2TT34H/dE6jh07jOXlMtNGY83+YyFvdCxufloW5lA+bj9ggcvNyvGma4n4LHC2+wrzc0bLa6VXLoB0PG2g77ZoHXfNhyiE4xOY8RIK9xAuC683XfvBhk1RIUsvvWMdjIKs3ITXjXVdhokWzuvZAkc8VrMDzaduUIiP2eEMZoZl52uQLTPsGAundkuPkWs7biKidTnWqoBaS4LpaTMTiZ5DsXIi6oZ2vqFVLl8nMWxpmy5WHrGPXl6ua6HRJzHjkckS5lWSaaHWbjW6ClNGujKdW0nEEZ9dTIFmK4MVU2PaARjIsub1fE+dgxqtUcZRz10+49wLaT1bECYMVEsi5dXVIrGRHUTOV6VXzvRKma4aUWLhzD+CZo/qPjuTMr+1onKonfy2rWkeDAoKKa3RMF/h84z4fMr7mTBeI1WktDRTR+u+lH0pASuUZs68MFnGrJeh5ZQtj8nARcBnpmpGlbuuI6T8naaSh6yEG1PRl05bK4Df+XyO5c40PAfTRCOgejM97NmzG9vY2hJajdB21NH+kh9+9FHMbSoXPpN4n81QsTog6uNlivCPf/FFCzufYLd57C/Wgl3jbHingv2zH78N//10lEiWNdBg0/ztoBXzBoOy93/Apr9WitMwsJDWo7C0MsKxpUUkDi0vFUytw0nsYNN0+449LBBNpLSOX3ntkIWv8VzrwxGef/EF/MV3nsJo4WYLH3d2Yq09hyHPW2h4FBE665hpqFOMTVJJzrRwObSqZFSa+PIu1VklaAiWRoOkLNU545hXljTvXyM8BPtdWfL0S96LDz9nJVFekqIyQqc55De07rLILFghpVU9cXjPLKRaM0MdeEKziBFoRTuNLGFSavsyYcw4aBHBjHFQhSFoUSZJl+JowkChLqHX8nxSbHcqqm7BysrVGiOlm8SjeAse05lntY5kPeF4WnlYy4FpJNG2Lwl1Tue8/yxVmvG76ap35d3zeyaI4ij3iGCvSitGSSH+1CXkxbTmNZyT32m4nWBLltpJyjVZykn3fG6sTAJWNvMNBx7zzPDwaxbecsa49459uPvOm/HAHbejxbsSjh46Wo6Q4RX1jE+NY+b1dF65SsrYTP/nf1oOgUdamKB1bNJUwzk1jjszY0G46eabcPO+fZqrhTbDOr2ykjjX1PHTgn3hFnaLx/6jT91HwS7PXTAP3wiCPX1KNWrUqFHjakdtYV8A3qmFLR/2fzZd/MnxLmR5VV3vtCVzNsjb4Xl9Wo6sdWndCJ6rTsnT1rssJWGdpzu+OsCX/uiP8Av/5J8j3lb6sMPd92K1vRkneS1/2sx13BGaDdozMwGiVk7Lu7x3h01fTcLR5JfpSN0ynOarzYCjleiZlTq9J1qWPs0jfdq4FhFb7jyLh8hrYVQar2h4Q3SCoW30mqRs5jdLSylv9DDK2IyOaUc6DVtZT2jLws4SFMmEluCY5y7jUq4WWGDAaPSV+ITDOOnxyQ2j69pGvYRcJWVczeZXQbBwfXZo6Xu0WG2BJ20oSZTj1Ms0GPD/bLqBQ3UOBp8G4+NpCVret8c4B1Nr3K5YPioern6K6X0q3rQaCyUSrfMimg4ZnQyZ6XifjEvlUop9jZsP+Wu1tsTywm1miLnBADudPsKl1zF+7WkLv3NHG3/nb/97uPu+u9C7yPH/VwqVhf0Sm0c//sWy0/ElWthvNw5bFrYWf/rBvVMLW4s/1RZ2jXeCqgzrteKFQc330n8pqudeTKdTgodad0M+57yNNAqQxO2SCcV5fc3Gw9p0Y426IKP1dSv083MzcAM1Y8fGOO4jnvT5Pobb0PoUlKV8gigZIZswbEiBGmUlxxSfEcVsRGEhMWU+4WdGJVMBi7W0aTplhjGvPTpFdQ7GGIpsuo9HfQpYYpTLZDhKMR5rudiA91ZSS5wGWWH+ZV8di3L9kOmE79UEdz2MogLr/J0Y5z4Fu8nKjLLKwl8yRc74FxqrPWICqZYg89HkFAuG6/vqmPI9f6t7q87D6+TyKZM+6+SQ34lBlCHg/fqk9n008n5dVjx8OMiZzkkyME6iAaJ4wLQZlM8g4yuZ6fN4HZPBKqLhCp9lZJR/2JZh1YQpibYqkXTE85MxxZzPL4jXjY14Da2cld7yIQxOHEDPz4wfeN+9+MBD96EdeFjr97HGvCCmjGOVry4H5T5R3r1YqN40Tj+fC+XYa76peIOgtrAvAJdqYVfD+n7247fjv3mo7Hgp0LbhecrKl5rP5C/UEquCRmzkFEEhDAMK3widTo8FPWehLzvM1mklxp6LF199GX//f/4HOBiVHXLOjruwNrsTS7TavJnSYswmJxl5vvG3UExnTlmetpYxX5UWGgZXQe5ZLYOqJU9V0VSZqSqqShazsKffqNuSRiTjRku+PR2x4YeYaMV/8wfTkpx2lvLGlGD8jU8rNYc3HZ0QU8w8z0enNWO+6QmFTVCnokZtZA4FPSifg2LgmA/cZQuA55/2DMq3bSe3V4bZ8ysh61ejQAqPQq3aRLDv+Z6vjSSlOJbXlHU+8ShSfJ9ODTylh9VCVbOiuh995Fch/zNLu9qFR8Ksjj/mHy3Fmk/7B0rzcsQDKM6V9ahWjNbLTrv8fYvpUl5j2yTC1gkr5le+hdbJl/D4XWWfyX/4N38Su27fD9VF89Pdaa42KCkrC/vHpsP6XmLL7m07HVlR/vyn7sUP7qkt7BrvAiyfTSGXQbs9Z9SqesI7SXibLq4LkOocclnARe0Wo+IrUdXX6hQSPVq7HX53y+btuPWWW2jVaSU2Cg2tLE8dTj5/S9EXqcw8L88iVaWo6G1JHqftZPSef7qCqM5E61AsS9ZbwWDdqwwiUf/JE9RoNfSVMRvTch6REh+JlUYniHpPyt0ii6rVbhmbjZZdM1Z8dT6/nEGoSkqWfuk+qM5uET6FKqq6B51Tf3YvfG/rbYuEOvMsFU//oKSljxSGiWPWpFpB9hPGib/QPTDNjazg7cvqtzo3v9ZvMop1ZY2q406WtEZo5AUrqem5daz9p3PqPKLeV+fjf6cuRcFfOrmIxZMnsWPHNnzyU5803rT/DkbZ57m1imPMV11HtcX1geqRWVLdAKgF+0qAOSpSc5iMNa/8XYREp1q4R03QwG+Yb1wMp6T5Co/Wy+5eB4/dsgcLjIfYXjqKLeM+drB5Hg6Wjc04hkMLFukQqTtm62FSMkwQNWJakwkmbGXEFfk54WvmUYDIfEpoaJ621XL4PZlOqcpLTGgFxxgaUx2rMePKjdE6/OGicW54GDuj1xnHV9BceQ7NwQvGTnMdTtfBMEwxLCJEbPqLmXwV/pCVWIqAUTCypaPNChz5iCmSjlwwpMZ6FMWE4WOSFmyxgWDl4dKytWEsel6khFQWfybRk5fbN6ak3Dcprd7KlVNawGqm8J5yVkzaaIB0kwB+zMpl4vH0fEYjVjZi5CFgeDNuoRGztTOcMfojWsQTtsziOThJ2+gm2m8yQzNfx2x8Etvjw8bZ5ABWD/8lupuG+KGf/F687yMfMq6wNcCmjI0wOnZkGW8cOGSUeF9tmJobU14YXFbeorWebgDUgl2jRo0a1whqwb4IqPl80VBzzSlo4XjGaozxuwlr2pNh2EBzOrvRPjebxs2bFzA728N4FOGRu+/GTQtzxnRtEe5wDe2CFmk2MTZs8oYsUFIzKDUMhMxptdpO6DQc5QbWwAcb/GDeBzXTeV9yFyjMSKtZfm35cW2yidKBpDWdkdoXMdM5NQqjyZOGPJE6Ftl07871jPv37cGjD92OD3/gXtx/981oNRLjeLyE2GX82rRseX6LkwxaeZt4Gp6dUZj+FbRmGTd5Ny1aRWEstwbT6JaMr6epz7LGtXqeY9/zUP1Q0D0a+BxpPZcMeX55pRUBjcIgNSbb3itxyvmRRiUAk8X6EaeGu+hMaGXHbA1pKVpa6FpXXJRF7WVtHkzrmucRdW3zq/OZOGwNZONl49KJA2i2Enzku9+HRz74ELpaUZGcn52D77mMuovtm7cjidi+IOO49AlfSsfg1QWmxUVa5dcyqqxY4zKgykLyrbp+19icTo2+kpDPVH7SOClw2747cNdtJdkQx6AfsZVPUfPZ3CYLig8KxtG2/aayyCdMyg/u8hzalVwdeNJh0Tr05BIVVfar91Jz9cTye0evFSlaWicbOa+TaVKMdjqXmyBHY5RiV7OFh7duMd4908LWaIBbqH+f+/BjeOT2/UafwpYNxow9v9B1pnH00xxNJ7FJLxoyJ2r1woLXMz81aZe2qBWsktTNp82ANflnA/md1h/XE9RUcdF8+uYw5llYAcmNI2aqjJgQDunyvciDKeJkRvFnxeQkJZGwgmIaanNi7byeKA4izxP7IsU04LmDyIhgzHjylQksd4H+fJ6+xWfTHSXo9cfwji0am2ur+D99+lP4G9//g9jc24RoHBmHtutNRGGmwPO+gwafOllOgOKp5TK7KqB024gzP78Vqj+zydioUSk3Aq6Wp3WdgjmK2JiVrmS+shEdU8oHu0mWa28eD999v3H7/FbEaxSPIa07f9YYpy0W7hmWBAqqFl6KaAKS/iRDK0vRTAs0KciNKQMKmaxXu1MT6ooKUSdluRmBOr5sNmHuU+TJpAcvmjOGgwCdQYEdSQOf6PbwkXRsnP3GH+HgP/4HOP4vfwF3rh/C992217hv605WKL4N17OKJeYFyS6txm3JGmZoqTvyHU/J9g2jRmucIlVRy5mmFNfYp3D6qfnhK6ZkTuG3SfhsZYjUUfOHa3P1jJ8nQWyMycSPKdyxyb/o5jErt4SVUAxvmMAbl3SZjgpzWLFoRIumpIvaBEHLzEasfyIJdjg2ZuEqk4+CzVvUJg5ig2m3Zd3B3sUIuw8cwW2Hjxt/YMsC/v0PfQCP7boJLaY3GiWDpjab8DEz2+Vrjq3b5owbd9i/KqDsorw6/bsg6DdS7VMtn+sftWBfNpQWmvheZadTYq24UKRsJw9aiVu3LRg3L2zBhNbeeBKx2RwYJ9NFfrQ/JH9wipnESLdU3RPPZ1Ya/2mYsPaILGGlqDrMWE5nLimh0m88X+tDTxn69lluA4np4lrf+PzLr+LVo4fxwmuv4x/8P/9XvH74sHHL9i1o9rpsNahXkSqn4VxG/p6RnFCwZSEb7W8aFUVhCn1+O2z41RnkXShNlZYVNazQXpkGpFnQIiu4VJ2UGp1Bat9CtbZkDSrpTqWhCY6qvSmUzpbsDOdpN15fwxjlsBry/IvrA8xs3Wz84Ec+hDHve60/xCiasDUVGc2Nx5+mfK7JhOlVnUrhVxEuZccYed1uML2uBfticME1P6FjaTvxXWwL5k/Ga8bxdN2Pyw0NFxsMR8aUhUEb845p4Y1GY+zc3DS+f6uD+8IVtI98Db2lF4wLGKIjf67irnHCbMKL5VoitDlpHcq9UvmIA1cjIXi/VBG5TDx+L2r2pZNpFAZFQ4s6aSQGWXgDWqgDtJ2cTfvEiDzCuBVjqTfGijdBMtMyZs05DNfbOHEsw4HXVtFfhbGRuuhSsBp5Qos3sX0PxbEbYNHroB80kPkUR9HROna0aiVzup+pqNqjkXUu0mrlWUvmTd5Mi0+vPaXeMz4VHX72eZwWXRJZsWmNk4BiGI6mHKYI+OqPcvhjfuf2jG5DK9jJv81LaBrkdLKi01LFo9mNmnO6dCrNXW8WM60ZbGd8dy4vGm9ZfR0Lx74J//BXce/OFI89tN14+21bceedd6Db6sCNmf4JK11Sq+xJDJVzU6Z50AiMV48r5NKxsTRevNxfm6gFu0aNGjWuEdSC/a5D7TOSFkzpCtDqFbTvaIGJsnyFy907L1dINR7bMXeDg1aLVitNkX37bjPev/9WPHDLTnjjRSTLJ4yen9Kyc2kxM360lHkiY5pGNuXdOuPYBo0z2q2kwrTllVwotiu8rkeqk6ug2a1lW7NiwlTQ2tr8vaPlU9OyiU5LUFSc0tDDOMiwMly364v33H4PPvzQh/DwPQ/jex7/HnT9jnGwtIpiEiF0eB02//O4pNwFWbMDRzuHT3tFbbVXWpZKD3NBTOMnT4SeETRjVL6SatiLWcCko9Ed1UgPUmtxG+UT149l05G0XnM+U4cWsc97MpqFS9JwdtkaKGjFi+oAhc+4hTSree1C64SIKVtd6YBZZY2fBwiatMjJvPB5X5ltNdZji0WMjh1AdOIgbt+1CY8+cAsee98dxve//0Gb/Snf9Pz8JszOzho77Q7CMLTwlkYN8b2oUURXG5SiF4pyxBafRNA01uOwa7x70DCsK4yyyVuKSqxZhHzVDti9bo+t7XK22wc++Ai+63sexxYW8Gh5zehrL8fJxJwBYRCiqb0JSScqbGRGwUonoMBZs5ssIgoUNbzp+LZpr639QTYyj+cI0UEDnZzM+J5skTNFA1vdGFuKgbEXD9CIBvBGIxxdWcLLg74Rt96Kmz77V7DrU9+HuQ89hueSofGl5eMYeaz4Wj4yVgDV0ENNX2+kjPfG5FbaMymsQtFoDn4WS495YZNq5H93clY86izMIltS1Wdl48vdwopH9LIJv5vAp7g68QiISjpMq4Jpqfot5llF7TqfyZ/OZ5D5TOu8b0S6TpmJWLHxWjwXxlFJ9SsWXcDbwjebbJSj2BktIlw/CTdaRjwoOVhexu4d2/E5pst3f+Rj+MiHPmr0vMAqJUHGQMVrBacfmYS44tuhkq4LOfb6Qb0J70XgwjbhLS1oGXYsc5gMx/ium7fi0c3lriOaaq1d00uL7/JlNJ1bsx8l0iGpV0GL/niMr648MztDsZ7BG4dP4uAbh9DUcLgkRocWYOHPUWxo6dEi9F3Fl/eYufxtgIbTMN+1T2tU5BXQ8Jp8DShqWqWP90jLtUVhDnNayzHFcsSWBjXKjSiqkwRbVo+iu3wY7cEixsMl9CcDWpqaTenhBIXmCIXwRCPA6vxmHGw18Jf9FXztyGE831/DMq39bKaFnOE5LdQ2Lccg0BhmJu9InaNsEcgwpgyUazgXfD7y42qIHl8VRnGXn97ltbSOnxb612uD4VoLL0hTno9iTQakx5aCz7RxNVY8HrJ+oPCa/10+YqYmKyKtBS5q5xhti6bhfoXH37gUeU++9gHFf8iKRZVCYq5068DUmt/+PLmNUW6jHfV5nRhb4xW042WMjx9AfPg1JGtLuGf3ZvxHn/sr+PBdd/LZzaPT7VrlrOdd5afqffX5aoeSIE8nfK4FvvBcufPNMusa25jCbuF0uTq9CW+OH9i/DftnNGyTLVeWOC2zcL2jtrCvAGTnVLueX8lCVLlEqgKdUoQS0tayIGUZNil6n/zEx3D7vv3G0XCI/uoaxoNVjPvLmAxWjNqbpB3yHmh9TsZ9VkTrxiKhlZlPTMDyyRDpWCvPDRD1VzGiyK6vnsTq4hGsHj1kHBw6iKUDr+PFF1/A0RPHjdGwj2Q4MtdCp93CZMJrkK++8jqeeuopvPj8Czh04BALNSWX1FRr2ciJpvnTspfLR5RFaWPebREgpbMqpukrC7rRCn81ekR/knUdo6JAkZXo8jg9s1TrezC9jLKiKRIxX7UOi9ZtsbVbFB8pr1bTk0VbUWeW+4jnOnVu0kZ+MH5qvVQTm+wZsVLAZGR7RhYxWzKkfCrRgM9jvY9tW7YYf+yHPouPPfIBzM/Oos3W0vUBpqOSi+9OJd/bQMeexvT56uUGACv4N99+jbeiSqILW62vnEHGBio0vmDtxBJ+9mN34uc+fI+FawDAe7WqmO5D4lPdj4RCFnec+fji733Vwn7pN38Hx9fXMQy0hggtSx4jJIy4hgDK+esw/tUwLFmS8olq5xstxqSJNULLd23EQqcp69vl59LCb9LS156Wt9x+O7beVO580y88PHv4OL516CSS3masBeVqggMtf0dL3glk+2rXlfIcebpuS5LadjMUalsMiyiGmjRDa7XRxkRieQoSTr3w1ZmGK5601BQu94iuIGg0jK3vrVc9LE1LJFyzzHk4XzWwRNuEGexnknxNzCnPwR8rccvzK6wSk+mrx6uFiVYfZHoSWi+7qVBWPo3RBO7q8xbuLb0GL45wy0278FOf/ZSFffdDd7P14k4Xz3KtAhY08kPbd12LUH5U5f/SJMeP/Vq5RdirTN5zrdbHdhU6cY6f/9Q9+IGbynXmc7X43qNydSVRW9g1atSocY2gtrAvAFUSXaqF/T88fif+3uP3W/h7Dd1LNVJFu2KPx2NbrvTwSa1SB/zyb/xb/Na//QP0nUXcdMcO7Nm9x8KTJMPxpZO0bWgtt+WSKNMkohWq/QZ9Ws7qqW9NLfKZdgsLM3OYm+2i12rR0tagY9iuJw0tk7plK9yZco3wdVqX33rtML7wle/gpZUIg0654zm6WxjJBhM+AbT2hTs1UbN1JnxES5rnlAk2tYIRe/By2l9uE1pj22A/obmmFoFZ3VPL2FoI/B2tW/mT81gLe6hA6Hw8RparLO1pS8JmnE9NZFnY2tnGoO9pScvhkVeThzSjQ8eWP+LbqV3EdLK2u2ZmjlJ0pgZhl/fo8SdZxBbNah/e8ncsvDc+iofuugN/7Yc+g0f377OwIJ1gZm7OWjQaFZJM463ldTUJ6VqE+hnii7Ww2UL5+e+/Bz+4wcI+vcv79YtasC8A71Swf+5jd+NnHy13TY8zDyGbr+8WNo4EkIvjfNg4eqAS7MkkQTQt+H/xrafwr/71H+H5gy9j1+034RPf870Wvnv3bgx4bEQh007qtnY0oR22PTbFtaiVhvU1p24LCfZsm2LdbqChjsppYVJzXu26E16MdQmx4IZYXJ3gD7/+DH7vmZdwxJYm5blndyELe8gYN5/6qTWvBdcfw+Vz0Ea2k0wjYMr7cf0ZFLGPgnF0JOZTlBsu8BmaT3maXibEhQoAH2zZ2WqwR83/0rJj0hZsIqS9+kqjTRSk1T0MPI8rF4i9LcO0aJSdXgIt4Z66LWxt78CHx/RuRWPMT/Wlw3SIV5YxPH4C3nCA7bPl8R+6dSsee+B+3LbvFuzfW25I0Ah9hGGTacL7ZkScoKyYlPbn2uT2aofSLaFgv3iBgh3weffiHL9om/DOWnjOPHQjCHY9SuQicGmjREb4rlu3432zPrRtV8YDG43QRPOddEBWorvxHBdyPh2zsSNSo0e0wl+vq70mO7hl9zZsphWcDyK8+tyraBcB1g6fwJ7NO3DPvtuwZ9M2WoRNzDV72ERun9uCLd1ZzDCsG7Qx1+B5ghZ6fhOtzEXAcuaNM7hDihBZDGOkgxhr4RjjfIAsj9CgYG0NG5jPKdwnlxDx2rMUywxtVoQdeBThNrpoaqBgwfP68vlSbJMUkXaXMX8xn4HfkWrrQcGRfzgn+eqkFGON6BBVSeg7vUrIJaY22oPvNwo6n1MhS1l1IGnT3Curmha1UtpSm2LjUbCtS5EBFc2nTRGxVfsSBmgMthMyqg2EjPdMGmEuHqLBuAXHDwIHn8emtSN4dHcHn/vEo3h43278yPd8FJ94/CPYtW0rGhTjpo2fduFT+LVNmgwJn4JdPdMLef5XI5SqeTLBYlLg16ajRNYYmJ1rlAh/0cgKfHb/NtwxV24IonVWLsRgudZx/d/hVQBlSNs1hVRhfjegwlpZy3p/MQ0l7RVo1O/5urGge40GPvb9n8C/8+/+FLbt2Ibf/+M/NP7aF38Nz73wAvrRCGM2y0eTsTFKIvRHA1vmVOuBpEVqHIyGWFpZwfHlRZxYWcTKYNW4PhzSUq9WkGPLhNSID8dvYIHCtI2WfJdNftENJEIaD67vpa0Ue3I4GWAwGSLW+Ol2m5pIURSjiOJIAXZZpFk5ltTEFIkyqS3TNLLEyPc6Xu/VuagkEJWMpK2+JyGUu4O0eTWssLUzjFxKp1bxm1rTpdbzXkTV3mpJlLW4zGKjKzLOGsI2ZpotLS0Zjy4uImi18L7HHsH3f+YH8GOf+2HjrftvL38vSIxIs0ZZ4bis4IJW+9Szv1bFugJzsyW9qstplXlO3MiiVQt2jRo1alwjqF0iF4FLdYl84pZteGyLJs7I8goQ0tJ6N60inafi+SCLWqvZyVJUHLSinIbLqfNK46DjaMLPHtq0+Fq9OSytLmPb1i149vlncezYEVp1oVnCQSuAF3qYaNKCr1l9GS3vCCNaj1GeYOIwLZq0dJsBv3cwYtqMaLUOnIyvOaIR03JCs3nkIOgnaKysoUnrea7FY9eXsLMFvHpYFv0qet024zxGmk9oYUa0MCNo9TsNffZp0WZDWskR031dy5hmCKMxgmgJfjxEYLuMj22Gom8zGDNbKEqkvUpmNFwZVy14JV+03CiMv21mYEP39DyZVnKj6BhPfm9eh/FwwfPxQcv1kWY+4xaSPp9yG57TRItx641GWJisYmYywpb1I9i2chALyy8jPPgdNJdeQWPtDbxvRxf/6U/8AH7gYx/Ani2z2DQ7AybZm6aQn/l8q8/yW1/L7hBBlnXGPLnMJP7VC3CJyP1UukS23nAukVqwLwKXJthjfOymBXxy/y40murJfncKmH6v81TnutDzVaM79LsgoMhYR6qPNE2n3/BeKHjau6C7bQfmFzbhzrvuwoBN+GdfeB4vH3gdMcV+luEjHtehuMg9m1EANctPbhGXDEIKFz+bK0GlbupWSCmImnximxhocwFex08S+NqIV+nXbmDkhZifm8UJVi4nxjEGgxRRynjxJ5l+oIomTVjII8afYs3zmVtD624Xgc1MdFlFqGA7hUS5gMff2pR0xkluKUsuvtGr0iTj+axzUr4NVTaWpkoPpQqPkJDz2rx0OTOSiqoZo2qkJvJTZ0oE3RPjySMo94oswjxHN2Aaex7ilRNYeuMV5IMl3LZtEz5w3924de8e/Ec/9sP43g9/EK1WG9u2bGbaNWzUzdmeqZ6bOtfEi332VyuUwvJhL12gYFc+7M/Ugl3jbcGy7HrZRQv2J27eio/vmmeuotDQ6nove7PNDyvVYUxV0MuZjxoi5tln+RKzcR/DwQSdsIebduzATdt3YPumrbYmyeEDb+CNVw5ivN7HgRdeRku+55k5SpYPj+LEYkPrlZUJr6OF+j1NVed5FW5kweKVKe6sJPhewqZyGdL6TnjchGXO64SY7VK02k2sjuXrPcHoMo4UUjePeB4KMq1hnYeSVQ4rpBCHjItSVsKre6RM8ne08J0Gr9dAygpC19U05pTqn2mhJ34u/egaYUGq09INWDnot5IGyrMc6LxStVCURsjojnKew2FFohEkXVZYM4xjh5xJh+iNl9DrH0d77TDSwy8hXzwCnHwDW8IcH3/wbvz0T/wIbqY4375nN/bt2YW53oyN1AlUob+H+eO9gHKjLOzFtMCvPlsKtkrX+QT7ByjYt9eCXeNckPF18YI9HSUyQwsrntAQdN+VUSKXCs3iUxHRpbVqnabLyz3iqpOMMOGmeDq0gAMKVY/WXsv1sHvbdtxzx+3YtXkrTrxxFM8++SSOvX4Qy8cXzS2h9UdaQdOG8GnmXijBk1FK0Way2MgG2rY2G0+iHRchv6ZYMqVCpl+D19SekUke22J2LZ+FcobCGTgY5kOMk4GNBaf5z3qPFjnP0wjbLKR8JlqvhA/AZ4HXdHuWZRNr2sG8oZDPh6JNy1vXkljrVbvgsL2EnOex0Rxa4Y+Cb/T4O5nzoj1JUsfonvReoi/B53sv8xEyLXuMd3cyQjOdoLl+Es3FwwgXD8Ant9Lal4h/+uE78ckH9+ORfbtpUX8I+2+5Gftv3ou52VnLC81G44YT6wom2BtGiVyIYFcuER1SC3aNt+DSBJsW9i2b8fjOuVIMKQYaSvdeNWN1XbNMKdC5LFG5Afivio9GPriKY6uBgs3+KB1TXGMKWYGZ+TZCikp3bgZzC5uw77Z9eP7lF/HEU09gfbBOrQvR6bYorBPMzMzYQAmtWaJTmxDxNaclqs0UCvuseOjUWuMuszHdcc7vAgqjCma7h8b8ZjS6sxgOU4wGEQKeMx5rZAdtXxbSnK0DW7aWLQWt/aGxBtVOLnZPLMSn3k/vj4eUsPLNcGtxKFyVC38vl425WmjJ85yOVWhyrVDq1Yrg+wZ/oufbKPh9MkK6toLRiSMY9VcxXl5EkI2wY76LDz5wO95/7x24fd/N+MQHH8X7778Xt+27DR5bBTbFX9GYxk2jT7RcrZYDuB5GflwomOq2PO4Sn+kXnl/ifV/osL4bzyVy/d9hjRo1alwnqGc6XgCqJNJKcV4QX8JMx7vws9PFn/7/7Z15kBx3efefnnt29tCudnVY1mH5lG35xC/YYIxfAgQDhhAIuSoUqUqKSuWAnBBSgCuBQI4qIMUfAVdISAWK6wUMgQTzvmBjgguwwRjbsizZsmSdq2PPuWf6fb5P92+2dzx7SdqVeuf7kZ7tnl+f0/Prbz+/53e0OpytAZXOFe77NNRL8dVDhGfivBOMdmdeqILKOLQqAUn1dhDGmZycspHmGmHR/Yv3fEUe+J8fyO69+yTfk5crd15r6Tuvv042q1fZ179G9+1JFe2glTo8bl89yFxWndnAg6yrh2xeLbwnr2EVlgC9+Ep6mFPNquw7fkp+umu/pT+h1//kqZpe5D6RTI/UwzfRT2U9qan3W6/B8+6xNGClCv166IqjXyJIU08aFZEpz5eaetPNsKdjOhFGs/2ang9i65as6dhOt9FdIOzilfX4ijc9LX7xiHiTJ2SwGXTv35RPyaahQbn9JS+Ut7z59XLqVJBerdWkr2+N5At6zmgvbuEpFAKC619v1LQUUZRcLvAac/mZ3pqrGdQ31KbG5clSU970paCn4wG99lUtTgVZpHNPx0+8+mp5Xdg1vdElPR0p2IvgTAX7rtuulHffsMXS8fbu1XAjougO0BxwqlyWL3/zG3Lv9x6QY8dHLR1d2C++/FK5+rrr5aJt26y1CSgU+iSr33+sXFG9Cm4whGdQQQnRzlgBObjeaI1SUqGs9+gDQrfbffCUpT+664A8s/+4jJ6sSln3UcK7FZViLqGCrUJYzegTJriRDTyM7PfR/QbPCEmqYGPEPRS107ocpW+QQJM9XS/h4yGiohwKeb1SslCPV2tKdbootYmipWc0bdCblOu2b5Qbt62ztC16+Buu2iFDa9fKxZdiSIJQ9ZWaijbK/PiHkBRAiAzhEDwUy9MluwIAY12fTSwfh2GW8OueF+C8ylOnTLDf/MU9loa7ayHB/qQK9msp2KSdMxPs43LX7TvlHZcHAx156Lbd12/eahxjbq6ytBVf1WtTqVTk0ccfl7GJSZnEG1SUz3zlyyqqz0GNZcOGjbLt4mAslc1bNpuQbVg3JIOhIHn5PvW4ByTRSKo1rD04aDbK4idqUtPrO67iWkVsW5meTsrBw0XZtfeQCfeRicCDHVXHtNmTVNFXjxttDRXPaj5VgO2c9ZqH553GA0KFwMNbZdTThUcN/IoKsYpwAoNNVcpSK01aekU96Zq9baYuW0fWyg59CIF+Fdud2zfLrbfcKqWJMUtLezXZefXVNo/mhzgLAEGxgbf0fJCj3DVEW+q6PuDMy1ZBdzckXut1NkD+LZX1QaCHRp0ByOWDcbjPB+BhVych2NLysDXnzCvY/TVfPnnH1fKazcFYIhRs0uJMBfv9t10l73nBVkuv+Wl7t95qAdfGCY952yps4MCRY7J337Ny/w9/LE/ufUam0QVcqdbq0pvPyrWXbpKRgSBs4Q+sk/TGy2Wod0R6kiq3aKmh9OYaUsjibSK+HPWnJD8UCHwuu16KxR557vi07DugRen9Ryz9Z0X1uvX64xVlqUZwPB/hDlQa6k2eSqhwhyEeVCo28aIAFehUvSJJvPZLqY6fkHp5QjL6Ww+pZz/SH5zjQKFHRoYH5YZtF8kaFbqs/uagb2BIbn/1nTbfDsQZXcndOM24TnjgQcRtTBAVapcOwXbX0U3PlqDiPEpaokE777I+hEAug7bcqDY990QF+80uJKK2kGAjJPLacPCnhkfBJiFLE+zghkjrjZnX+2386Ji899bL5K6XBsOr4gZ2Xt5qwgm3u1ZOdB7etVvue/CHcvDAIfs8PjkuR0ZHZezYc/ZWGlDL9klmZIusX7tR+vO9MtDfb+kjgz3SV0iIl8qIN6TCmQ9uSN/v05tzSBKZAak0c/LM0aAp2I8P7ZPdowekNlWSjHrTAOOIIDaMlh4eOt24GLZ60TboU6MihXRSCmGwOqXpfdmUXLphgwzoNBcK8wUb1sv2izbLq//XLZJXr7odfO/orTSX2GIAMIgz4tTRdSCqbnsnPO4anikYuKpYLOnxAk8eFAr588rDrrQJ9mI87G4U7PPjFyOEELIg9LAXgbtES/OwPfWwPfWwJ9TDvlg97KCVCBy888SxWRbwAtwAdPeuq2dX1NmmJMPXeGEclWPqYT/4k8dl7zNBq4/jJ0dlVNOOHz+u0+PqEQdeINZNIL6r3mcqkxG8aBckMzlJpdT70kMh3OGHYY6GHqeGLubwqOvB75BULxWdbGx4VC8h2UzgHRd6+2Tt4JDFjNePrJNtFwUxaXidF2/dKi+84QXSk81a7Beg5QzaiefyPZLtyaqnc3o/IvISrN27jXakOluedRTsH8d1+z5fvGuAUmd58qTsshj2U5aG8ti8HnY19LC3MSRC2nCXaOmCjZDIlAr2dhXsKy0dTdlcxU83ghcmTE5OSCqdl2wYy0fXeIj02Pi4PPrEU7L/0EFLn5iYlHK5qkJZk2KlIlPTQQVgtVyTWrOGH0Z6+gqCt60AhCpMULNJyYX3bj6bk4SuB4Hq6++TDcNBS45tKspbLrhQTp04HiwbCFobHDl0yFptjKxbJ319fZZGlpczE+ywlYgJ9ir2hEIo2IvAXaLFvXHm+YL9/tsulfe8YL2l1yS/qiodFwKeHZjtPar3bW3AwzhzeH0h5gcPH5FxFW5QLpelt9AnF27ZrFfWlz1PBi+nnZ6aNq+7UCjI9u0XyeHxoNfplIr75rWDMjy4xrxtgAH+n927x948jpYR/YWg4nLt8LCsHx4RjFE+Fzgr1ybdcT55pquFGcH2WjFsPLIXEmw063sNBZu0c+aCfYkK9gWWXpdsq2NEN+KK5pi2V66dbiigHIoq3upeyKQFA5wi1AEw6t1cuPOIHhdp7jPFeWWgYC8e5sgVAKKQyvWbZbSI3s1ABCHUbhxnGAQyKpqQX1i93pBKpSqTk5PW4QTXMWpoWYH0pE5hPboP9MxEmtu3E2Uz2/sMOCbOxa0Li34mK4j+TsFvFZj+OkH6vOh6WG0xq64SmCsJISQmULBXGgagjKhH3Q4yJQxFXLxkIZ/PW0Vg1BN2Bk89auhmbt47PGU1HKe1vu2dnI/gtsBIiy2PeQGv2bIPDBt20T3FPEzOW5zYQoA7geVzGYkXS/3FfCfSTri7BAo2IeSc03KSF+kxt57Ji1x/tUDBXjG6LGcRskQwBO5S0LJUONc9ULCXwJllEFzqRBdmMUIWxsYvbG/GsxhwQ3XRTUXBJoSQmEDBXgE8u8wY4zl45yAhpDPoKGO2wH1ijnUXqhcFewVAS4fS5CmzcjiY0OmU/ghZlSy1ekfV2iodg+7FXQUFewWAJ1Bv4q3edeuJZzQp2YScCUHJ1XztmWZ+qxwK9gqAbtF9vX1m2fCFsfC6CSEzIGi4WGfbpBovqQj0umuUjKpBCCExgYK9AsDDlmSPWSocQJ8QEuJC0YsNa+h6MwFF52J3BxTslaZLYm2ELDd2K3WXXlOwV4Jg2CFkr4UaKxHSvSxVd7tIp1tQsFcAL5GQcvGUWSVs1kcICVEvxsc42DozMx72/KQwyJe9/6K7XGwK9gqAZn2VcsWsUUddeBjXJoQoKrih5i5JfqO63iVFVwo2IYTEBAr2CoAXueKN3bBMLmNpbIdNyAyo3fGW4CajfGqDsS3JJY8/VI0lcLpVhgjJJVJ5s1SKzfoI6cRSgoR42b3pNG7JLgmHAAr2CpBIJmRq/IRZabpoaYxhEzIb6G7D983mc5qxXtAt3WbM5lt/NUHBXilcxuqWnEXIUlnSvRHIdiBh3SNjFOwVANkKg9MEhoxGCDlTgph3YN1yV1GwCSEkJlCwVwDEq3t7C2aZLEfrI2RuUB6dPzbSqnDsQqgaKwCiIF4yY5akUBPyPHzUwcNclGMxQLm7DKrHCoBWItPjY2alUtnS2EqEkChNezXYYmjdOV1YH0TBXiFQLdI9VSOELJVgiLRFgRKr54kNJRLSLb42BXsJWM+q0wCvBesdGDLLF/KWxhg2IVGa0tBSp4uMLIwfvoQXf2DdIdlUDUIIiQkU7BUAnWX8etmsXq+HqYQQh+/54idmWlbPFz2EL23+NN+aTpYDhD8mJybNquWqpbHSkZAIuB0aqtMq1GZB6pwEUr3QWqsPCvZKoJkxk82ZJVPBJWcMm5A2vKaVRs3CpE4EMq33D5v1keWg6TclV+gPLBdUOhJCTg/INER7Vqu+LtFuCjYhhMQECvYKkPASUi1OmpXLlTCVEDILc5tDmwcsRpO+oB32IjZYRVCwV4KEJ8VS2axRZ6UjIe0EFY0JtYU7mM2OcUPCukfGKNgrgN9syMBAr1kml7M0VjoSQpYKVWMFgPfgpbJmqUQqTCWEzLC0sIZnNY7dJ18U7BXABn+aGDMrVUqWxpAIIQ54NIEUQYYXJd26evc16qNgE0JIbKBgLwK81svMC57/wTTEZvVPUGvSRuAD4G/Db5r59KwJmQVG3uvv7ZOBdMZCHRbu8CFNMz40Oq23TG+hpEpXOol7Cet0j69NwZ4Hv+lLvVGXSq1iVq3XRKazMjhWkEq2aFb2a9L0MiKpXs03Sd2obpbQzFTXZSI1qeh++gc2mPXkC7ZvVjoSEuDj7QV1T+p6S4ytPW5WyY2pMFclUa+Lhy7rkjarSEqKXlYmsnk5cOhIuAe99bqk1yNVYx7QQxFP/3QmHVhKBbmZkOGkinNGcxHMHAFUJKqhQhGNQ9Wg3XX0SU80xE8mpdxomDWbug0hpAUKpk3fUxOppifNJFFSv7mpEp2SjN4/iWTWTFJpvQXTUk2mZWKyGOygi6Bgz4OHV2Bo8cyFM6aLJf1clL7BhKS0XAbTlfS/inBTvWm1hAqyWcOXFIp1DRV8VfDp8XGzcoVvnCEkCnzjdDIh6s6IV0maSV3vmmZS05OSSmoJFvcSTO8bL6H3FsS8C9WLgj0PGE4dslqqVswqtaqU6xX1niHGJbOsVCWvRbdMvSZpLb7ltGgHS1d96dGpNDOSa6akkM6YJeGlA4ZECDEsnNGTkwl1bhL1nFm61q/3U0ZSNRXwqmq13k8wTy2t/lFay6/BYKzdBVWDEEJiAgV7ARJWYIOf3ZSkFts8LykNq8m2aIj4vqefdammJeApYHU1616LdXS+ruuUaw0ztDYxGBIhxHCv3ivXfEnq/QVLpJPie01paKkVhrofGFpoNW0YVkS4uw8K9gJAeBt+w6zZaEgml5V81pPhdNMs3ShJqlGVjFeXrK6PShIYaraRofxsQqZ1rlz3zbozmxEyD35TMCTa0aovmWrCLF8XSemtkkSlf0LTkp5ZVgU7U6vIWq8memt1HRTs+TBn2Hxls2ZTBVe97GTak8HegllKl3h+XacNayCiUm2WMLVWTyCZlKlSRfyErqmWSUPW9cIzhk2IlUzRPGRCBfq5sSnxtBQKS9TqJk4ZvWeySXWC1AmHJfTGSqjj1JtJq4B33zAPVI35QElNn/DIGGbptH72JZVIyqaBQTO0DsVb0TWbSUPXrXmpwFJpqaQT6mGLPD01Lse0WAdLpTMq/PSyCQG+im9NRXvfZFGePDYqXjNhVm/WxFNxbmoptp5oSFVLsLBas6q3YFXW5TOSizQT6RYho2DPQ1K9Y8TTUirAsEwmo6kJyaYSsr2vzyxrL6KrW8ikglh1ImtWyuRlSr0A6fHlidKoPHT4qBni2E0VbkK6GYQXYQh5TKVSct/Rw/Lo6CH1ppNmXkodoVRDSl5Vpv2iVBMls3q6rA5TSUbUuU6po9RtULAJISQmULDnwcYP0X8J9y+RkIaFMxKyds2QGcIjiG2jG7u1AAnNS3piI5DpNifGxuSnTz9jdqJckkQqaesT0o3gPvG8wNDvd9fJcfn+k0/K0dHjej+lzVBXhPsIpdG6euJBeBKl3rRVQqZyOUlmEMPG/dg9njYFex4g0PiXRiZRy6YzNp5ILuXJzvWDZkOVsgz6denvzUkil5dKImtWS+c1Q/ZoJlsjE96g3HeiYvblPYflKHKpZj4MBIVKFxgysct63ZP9zi7Ra9dpvpOR5WdWHjdrSiORMttdSsjdP3pMHth/UprZdVKWXrNKMyOTDV9KcIS8lPo+oUlNBsrjcklPSq67YofuPVTyLoGCvQCaXfDHzFMBhzeNdtj9+bzZFZdebh7zxPS0VG2EMbQVQdda3bJRE8lkRQq9cqhYNbvn4Z/Jtx7bLUfV0/abdUk0AvMwrwKe0OPwR+nMQmKL65bQ3wa/lc0jUT+7+U6G5a50ZCWkRWDrOesy2n+DTtYC10evradespl6ygnPk6I6LI/tO2x2z3cfkJ/teVpluCnJVFotZZZW5yihU50RL5sRX+89GLzt9cPDMrymX/oKem/hJ8BhgiOuejzNfN2X6xYJWnPY5bE7GxfLk4oKbVPy8nAxyCIPn6zKv/6/78vjY1OSWLdRqvCelWYTbUYzIup1J5pFyU0EI4v11KbkypFeedklm+TmrRfIRWsGLX0on5KCHqdYnMbGkkoGXdjx4wQDkcElxzREMy+S8UAJT69Fpx8ULwJ26bhp2lnIR/F1m/bjROmwywiua0QbboS1thN2Hxc6J6yAFjrVGkZFFCnrAzKf1aKy3ujFYjAwUL8+LIvlslQqFSsxocMFCP76ku8paBFcH8Tq9QG8d9OG99T1Oh5f03PZbOv7lnW/wfzM2lrSt2iYfkH77IQ9ncnY8Wu1qq4907E62Dw4nksDM3ucPd86uE5mpQM79ZnU5+3PLWstsA10EiZEtu3IQstBsyE1/V1q6ojkNf87MdVbRZ6dqsmuI8fkR7t2W9oP9xyQZzNpme7t1U8D6rj0W3pdhb6uv0lKPRi0Fqk0xy29tzkmv7njIvmlK6+Qm4bz0hueThOdbYLZVU03fEdCCFkV0MOej9DDbqoHBuB5NdSL8/y07B+zJNmbTMin7v+B/M/+URnP98pU6DU26z3qDQxKspmWhl/U4lz4tnSdNpqTkvNLsnWwINds3mTpN2wckcuHszKsjnWvegtZ58jotInD61R9DUvCIILwiNKYqDmP2ebVgk+zQTqWmzNlKQFY13YXbuU+O1rzc3hWs9bVD9HP7jjBOQVLUCKYIUjDX7d7O8dwlei+3NYA9Qrw2nAd4IVNo1JKma41pK47wk/g2rqjpOKrt2f71z9un+56WD0FEkM3EHdDAl6d/ZvBzdt+9MA2DIERnqyCcBYIloR/bRIssH3a9sG829LKPpoelGGCeRBOWlMHPGgMFInV25cBXL8wyyoRT952HWwx8zsEZ9Je6grf2DWDc5N1NbctfFpshUWYuvR6w5dJTR2vN2RKr/1oMUj/6eEp+dGBUdk9elQmpoNRK6f09xlDaTI3oPm5T2qT4XmUKpJPJ/Q+0NJIvazHmrLkiwd9eceLr5IXblwna/O+9CXQ1FaPrSfcfsqrEQr2ImiEgoAbBUJQLldk/9FJS5saHpbvHJuUex59Rh5BO2sVW9DXu14qx7G+FoWzekMkA8H2ExglW4vrTS1KowhvqSJDmuV79Dj9eowBtbRTrWRDBVuLh3oH1nRbUNfP6UZS8P51ZO9oEdgIP9pNrUQF/XmrIiGS07F4VoYIP2BENSxzq0bXsTTbbyTsouaOBUGYFVCZdYCQcDGOkkQLG8zbkwkEApoMVSih18a+mmZdtGufqgbXtlxr6sMQcVLd1j1k9R/ANbB0+6SXX88BcoPPEKfWeeOk9X8SyzQ9PC0VhOB3xWfbxj7p1K5fsB+3rokdzl2nbj2Q0DQsQ1r0etg6+p08XRhcs2ArNJRw2cB9D9FrY98D6Vg/SDUwj2uD8Je7+NHlwAm57dbW0T3rdUy59cMNWsdT7Fz1I5bZAy08qaQ7frjPBgbVUSabNTlSmZaTk2WpFBOit4txotKQE37dxtnzcoHQeurkHNcd1zN9kvJ7pDoe9lHQW25tb1784oQUp07J+rXI7SL/+7ot8ptXbZKtel+sTadljRv90p34KoeCvQDRXonm2Wi+KBbLcuTwQUtbN7RR9mQK8umf/lzuf+gncrIYZLjsmgulVBqQkrrHVfWqq2GmrqIlkrrPnnoPeAw0q2FuxttsEIezrrd684Yx1eDOxKA3TRXuIA2in6ynJF/qCfJph7xqP2r4y+LQs37kWZnbLZm9k1nrK26pbdppYXuafoZuzAm+itsptnXr2nZuZy5RPWT92xK5cDE00bVACBLwv+3hgH3N/ISzj6mYMLk0Bd/PnRr2Eq72PCKbzL6cEdBsbeY7zCa6iZbjdK2Z7+aOiRS7hprg/GT3uR0kuUUQ9JlV5ji5FliOazZDVKxbRJLc7PO+dzNIKKaKUk5OW5b2/bzm3kCck2mdprL6u+lvZq/30n3ob4dewn5Tl1X0rOtB+kAqJyNeTZLHD0tPfVKuv2Krpd958/VyzRpfkuWiDPX1S282GOqhW6BgnwbwuBta3AOZRFqeUuX4v8fH5KHHn5Kf795n6c+dbEpP7yVS1vw31ihLw9qM6ra5pJRTuOQq7Lihw/vU7kS4VPiMfTvBNvkIKtVUyYNpUrerpSU9XZhTLGKN++ohbR9nMVP0P3dEnunLR1hcwuiQi2P5buvQwX7eEZy/X8tqCbJXSz0quhgPXmpuA/WGEd/DDjCyE8AmTU2HWGM87PApny8lJD99TDZKRa7ZvE5uvfESS79pU79cjEHX9OjZVFpLroGH/bxS5iqFgr0EyuWyegkpqZVrNhANaBQrstdvyLFCrxydKMuDDz1m6ff9+Ak5XBiWUqbHHA/furWrFmuGRFtuFCvTKvZ4NVKQHnogmvHQOcdlQDQ5S2kxUlM1LRRseNqayf36Kvcuwms8J+dTzl3oXM+E9u+5nMc6I8ITaxYlnVavPZeXaclKsxKUOnMq1hkV7brm31I6DBEmPUmV65JWwcbLPdzzt1qakrXjJ+XGC4bll269Xi4ZCPJ+7cABuXHH5dKv3nW09Nstg6l1x7ckhJBVAD3sReAuUbValkwmq5+bkkB7aaUxOS7Hc1mprBmSipeWvQeD9qL3/XyP/OtzT8mRknrLqR5JZAMPG++q86t1yXgZydq76gKvpKxeeyKnRciEeiB4juoUePCw1ZPA8K3o5WVp6nJhZMCSehVoH03I+YCL1hSma9Jf96Wp98pRvDQ3vH/WSFowIHHRq8updHD/IDTSO1mVDAZySqLtdeB5e9mm3DxQkJdfcqG84qqNkj12wNI35NbKmnXrzbvuFq86CgV7EbhLhJBIOp2ScqkkU6OjlobmXX5vr5yoVuXQZFHK9UBoj1c8+T9TY/Lw4ZNy8uS41NAsQclmBlRwNaPVdDtNwoiAoOEnVPD1WII3baT0lwkyIypl0mqQcc+fLdh4c/RyBbGZKchScXmmR52P3qYnjVRSTiYyNpIlKKAzWSMhZalIMR1UtieznvQU8S5Uzd8JXzJhrHH7xZvktTsukxeM5OSCVEmaB56z9JHeNTI8MmLz3QgFewngUsHqmrmK06UgUXU1k0qp962ZcHrKxhsBp44ek0eyWdmbysv99z0gTz8beAjNXL8kBoaknszLVDOpXnIg2LV0ToqaoSHNTqwDfEmoRw/BdsNJWisAdWeaaINqgn32f0JmCnK6wK/wVJiRNdGyyQ/rXtB6Hi/7SPgVzc+BJ52rV9XK0t9syLa+PnnBRUFrkJuvvFJ2DPepmFckWyxLvi+4r6Zq6jTl1FO3npHdBwV7mThx+LB8++QJKVx1tRw+fkL2HDlp6T/dvV92Hzouo6WaVJJZqWd7LF3SeVV+tMoOBHwG/XnsJ8JYI0HlDZpdQbqt60zYlOps0noEdF+Jk5wFUn5GUl7QDd9LNbUwGZQM642qinkRNfXqoQRDB+D1epdvGJadF26W6zeOyFUjayx9g26/JdGQ5FRZBbshhTVBj4VqFi80wEvWg3bZ3QYF+yyC1h2uc8fk+KQcOHVS+tdvlEY6JeO1IP3J/Udk9+GjcliXn5iqyGjoqY9OFWWsVLVINV70O9MTDYKNViLqaasXAjDvo8gpqdnN2s7iL2m5goJNloBzHaoq1E0r+SUkpXk2rL2RvnRahnrysn5Nn2waGrC09YWCbOgvyIXDa+XSC3okVQ2EfM8Tu+TqS7ZLPt8jzXpFUmEHGTTjw/Cr3Ri/BrwlCSEkJtDDXiasc025LCn1otGzIlHos/RSwpOyPifHq3V76eizJ05Z+qGxcTlVnLb326Hfm/Ow0QsOQUGMne3Xg5CI+Rrqafjqaczqo3aWHr/Yo9WR8nFOlgAqyMGJRlWmvbq9PLe37stA2K1/JFmQTT0DctHQWtkSjlK5NpuXbLNuLUnSAwmpZ4PYdjKD1iVB/vdTntQbYQ9iL62l2PawYfdAwV4mMJxntVaVVK0m9ZovPcNDll4ql2RsqiQTxbIcK5XkVDgeq49ejmlUJM4ULQ39kEqlZdsFWySfCZZAR6fKNdl/8DkV+Oay9LRjpiBLxb1FaXjzRmtuevjwIcmqg5ILsrgkVbxTlYYM9/TLhcPrLa1WrElPSrf1GprPPSkMYEgzzeMeKi1VqOGkaLbHux8BwoUY16ZboWAvE8holUpZPYMJSSVyku8NBLuuXndNRbxSrUhNRR3jOYPWmBb6a4STALQQUTEfHhzRzBp0b8cbpWuNmkxMYMhANA9cBsVWuve2IKeDa289ODBgA0OdGNPSY0RcbbEKbw4v/+gPxr0eq5Q0P9ftjU75dEadEhfxDop3kCe0uXbNX7sdCvYygZAImvqhbsT3E+o9BGILr+F0M58Lk9QqNUlrkbFbxk8gqw+8MR1MqmAjZxfQWkqF2Y2ySIHuDAV7mcBlrVWrLU/ZXWXUdrs3n8ALd5cfXgTm8Qky7Ip9EHp0tMFLSYOsPEN0LAVCzjXOgYCzgryM3JmBAIcijPxe1XsCr/nqKQTNWfFWmro6ID25vKTSgVND5qZdAwghhJyn0MM+h8DjiLYntXf4hk6zC3bAa8FP1K3tTkl8cFICDxv51cWeZ3neOtVypQ1TDprNhqSTKYZAFgkF+xziMrChPwN+CnzGW09cJmdGJnHDWnaEzBJsTUfnsgYGNEOrKAUhQrxphywOCvYy4+LMc3rI4eVv/xFcJickjjhZac/HC94PZF4o2MsMMygh5GxBFSGEkJhAD5sQQmICPWxCCIkJ9LDJnHTqmNNeifS8ytJw2mlbgFi+22ahdZcTOwdm/WUh2jKEnF0o2GROokKKG3AuYY3emovNTCjarbhMI6u7yl/9LnbeS6wMPhcPlzjihmIgZxcKNlkUTqg6edhRyXNyNp9/5bZZzLpnFXyH9mZmait2/FVO9GFGwV4eluZeEEIIOWfQwyarhkWFK0IPGy+EOB14uywMY9jLBwWbEEJiAgWbkJgSLVG096RtL22wp+3qgL8iITECQuzsfON8PrfVAj1sQgiJCfSwCSEkJlCwCSEkJlCwCSEkJlCwCSEkJlCwCSEkJlCwCSEkJlCwCSEkJlCwCSEkJlCwCSEkJlCwCSEkJrBrOpmTTmNCxGEQoXq9Hs6dfwPpNxqN1hCt7lpi6s45er5YF4bhSmGEULDJkkB2gYg4MYfYOCOELC+8ywghJCZQsMmSwJtEUGzPZDJmmEcavO5zRXRIT5QA3ve+98m73/1uM5feKbxzLnj66aflPe95j7zzne+UU6dOmYHf+73fkw984AM273jggQfk9a9/vdx7771hShAmId0LQyKkIxCKBx98UPL5vH2uVqsWZ73xxhvl6quvliuvvNLSX/ayl8lFF11k8xDFcxEacSKGOG+lUpFcLmefweTkpPT29rZiwSsNrpmLS9933312vRx/93d/Z1OINc4RRG/Hv/7rv5b3vve98kd/9EfykY98xNKi+yNdCASbEBU0M8f27duhHIuynTt3+o888ki4ZWfc/lVwOlr02J3otA0susyRTqdb5xZdB7SfRyfcsnab6xzdckd0//oQC1N9Xx9ydk5/9md/5o+Pj7cMfOYzn/H/67/+y+YdKui2/l/8xV+EKb5fq9XCudnHaTeyOmFIhHTEedb79u0z07zSsmeeecbCDrCtW7fKo48+Ktdee638y7/8i23TjgqLhU1grsVDu2HZXGELbN9pGxiWRcH5RdPw2YF5V0Hqtnfg2LD5jjVX6Mctd0T3j20cjz/+uE3hWff397cM/Nqv/Zq86lWvmnUN3Hz0O7g0nEf0OO2G5Z3OlcQbCjYhhMQExrCJ4Tw3F4O+4oor5MknnzRvGmzbts3WccujvPa1r5X//M//tHlUlIEXv/jFHeOtzz33nOzZs0cOHjwol156qaVhOjg4aPNzgX0Vi0Wbr9Vqtv0111xjn6PnjuyMY7o0rIvP7efyyCOPyPHjxy0mv2bNmjA1AHFwfPennnpKhoaGLA3HWrt2rc3jGO2e88mTJ+UlL3lJmCLy+c9/3vZ76623yqFDhyztkksusen3v/9986xxTQHi1/fff7/09fXJ9ddfb2ngwx/+sLzrXe+SP//zP7d50P499u7da1NcU1yf6667Ti688EJJp9OWTlYZEGxCtPg8K0a7Y8cOi5+qEJgBxEZVCC2OqqJm5rjlllts/Te+8Y1mUaampvybbrrJDOt0sre//e3h2s8/l0996lMdt9Giv/+tb30rXCsA56fC3VrHxXzd/n7jN37DDMtUMP2xsTFLd3z84x9vbdtuN998c7iWP+v753I5W64PNzPE9PF5w4YN/u/8zu/M2kfUPvShD5lVq9VWWhQsQ5oKdpgSHBeoUPtbt25tbddu//3f/21GVhcUbGK0i+Tll19uN367YLcDsQH33nvvLMGI4gQMpp63v2vXLl+9W189TTNXwYnKOIDjuGN97GMfs2WbNm3y1Qs1U+/Xf+c739na5ze/+U0zgO2igu3OD7z//e9vpUfFFzjxdMvvvvtuf9++ff53vvMdMy1xWPoFF1wQbjHDxo0bbdkv//Ivm2EeFYaoRJyYmPB/9rOfmbl9Y38/+tGP7GECwwMN6RD+KJ0EG2Cf6mXbMvXIzdTL93fv3u3/4R/+Yes4sO9+97u2jXtwkXhDwSbG6Qp2dBvP81pCcfLkSUv74he/aJ8vu+wys044wYJpsT5M9W0fLj16HMef/Mmf2LJrr73WDGC9ToL9t3/7t/YZXjUsCrxWiKXzlP/t3/4tXDKb22+/3ZZ/7nOfC1MC1q9f3zoeDA+jTrjl7YyOjlp6JpMJUwLmEuz3ve99ln7VVVeFKbP5+te/3joWSjVk9cBKR3LW0PwUzs2M56HiYdPf//3fNwPlctmWY31YoVCQ17zmNbbs3//9320KPvrRj9r0t37rtyw+rWJs5vb9wQ9+UH7wgx+IFv3NANaLgljuV7/6VetEgzg54s2utYYKtU1/8pOf2DnBfvEXf9GO1wnsA9xzzz02dbgY+Bvf+EYzxLrVo52zlQaOE8Vdt2hcfD7uuusum7r6gnbctQTqyVtbdODi+iS+ULAJISQmULDJsuA83R//+Mc2fcUrXmEG4PW6lhvOW7755ptteuDAAZuC/fv321SL/jaFhwhzrSTQNf5FL3qRrF+/3syBdeBNw773ve/JG97wBmuVgZYcaF8Og/eL9srgyJEjNgWPPfaYtS9H78M/+IM/sCnsL//yL+UTn/iEreNazjhuv/12m955551mAN/f7b+d9lLA6YJekOjiDsO5wtArEi1LBgYGzABaw4BoCYjEFP0RCTntGLZL02K3re/M4T4/++yzZsBt4yrdgAqirYe4tONtb3ubpaECDyAeHa1ExH7K5XLLAL5DT09P67hRU2G2dQC2dedx1113dVx/LmuPHb/1rW+19HvuuccMuH1Hcdu7lh6OY8eOWXo2mw1TAlwM+0//9E/DFN96Rrr9LNZcD0pWPMYfetjkjFBhsundd99tU4wzAnOsW7fOpojbdordwoBrNxxtY4x2yUBF2qbtwINVkWsZwP6inu0NN9wgf/zHf2zz6I3pwDouprt9+3abArQfx/F+/vOfW1vsXbt2tQzeN9pQf+lLXwrXDnDHQywedraJeuSuZyR4+OGHrRQCe+KJJ1rniXksg6GEcdNNN9n6Z8uzJ+cO/oKkI+7mhiA7UcYUlWmYOrGFUELcUCwHEEcnkMCJBcQPBqLbw8CJEydsunHjRpuC2267zabobAPc+q4yr1QqmUAhpOHCGhDP6IMBFXP/+I//aKGKo0ePyute9zoz4Cr5tmzZYlOg3rk9PBCGueyyy0RLGi3DgFe33HKLzXdidHTUbKXYuXOnbN682Qwdndx5Yh4dcGDozOM6/1Cw4w9/QdIR5326WDCAOLv4M8QOhriwE1YI3Nve9jYzx1ve8habfvrTnzYDzht2Q7SCj3/84za94447bArQYgO42HF0fYAWKDt27LD13LoADxWH89zRUmRkZMS2gf3zP/9zy5vHeTswlKmLncPTdnFzAG8VcWMXE27HXZOFcA+pduZKb+flL3+5TTFMqwPbuvPEA83FtNGDkqweKNiEEBIX9MlMyPMqHa+55hqrsHIVaajsO3r0qP/ggw/6//Ef/2HL3Tow9WRblZPAVXChMlA96tZ6H/3oRy09yqtf/Wpb5rq0R8/ld3/3d23ZnXfeaZ8d6O3oeh+iIwkM4Dyjx8Nnxw9/+MNWOuzRRx8Nl/j+O97xDjOko5s9OrNEae+pGMWdIzoJwUB9nkrH6DkB13GmUCiEKQF///d/b+mokI2Cylu3r89//vNmDlRovuENb2gtf9Ob3mTp0d+WxBcKNjHaBRtdsN1Nv5ChNYcTKC2Wt8aAdvt74IEHnrfN4ODgrM/oXu3AvqKCh2XRdaP2whe+MFwroFQqzVqO1ivAPUDau6AfPHjQ0h133HFHa9nQ0FBr3tlnP/tZWy96jnjQYBnGPIGB6Pk73D7cOTkOHDjQWhblb/7mbywNDxKHE/svf/nLrW2c9fb2tubR9T7a/Z6CvTrgaH2kI4h/ojLRteVFRZ7e9Nbq46UvfWmrNQQq81zLBcRQ56rYGh8ftyl6L37jG9+QsbGxVmsS9QLlV3/1V20+CrKmiwmrEMoXvvAFm8dIfTgP9WzlzW9+s6U5VCjlV37lV1q9GL/yla9YHBvnHm09gvbKX/va1+Sv/uqv5Ld/+7fD1AC8GQZx84ceeqgVb0clJHoYuhEGsT+Aff7TP/2TxeA/+clPWhpG6Gs/HnjlK19pFaXf/va3W/sFqAf4hV/4BWutoh56mCrWGuXtb3+7/MM//IO89a1vtbTofo8dO9aK7yMuj9eNoQLy13/912d9p+h1JPGGgk3OGGQhiHW7QDk6iVcnOgnLYrZ1lW1n0goiKsDzcT6IH74vzmEx53E+nC85e1CwSUe06G03eyeiogYxWIwYO0F0U4hrVCTxeS7BhUDBoutjHtNou22A9dpbiXTaL74f1sX27fvAvuGpR78X0rBep++KdWGuRUqndYDz+tvPKXrOUc/b7bfTOQJsh+UAvwP2ic+YunOY65qSeMJfkxBCYgI9bBI7kGVXopgfvTXO97CCO1eGP1Y3FGxCCIkJDIkQQkhMoGATQkhMoGATQkhMoGATQkhMoGATQkhMoGATQkhMoGATQkhMoGATQkhMoGATQkhMoGATQkhMoGATQkhMoGATQkhMoGATQkhMoGATQkhMoGATQkhMoGATQkhMoGATQkhMoGATQkhMoGATQkhMoGATQkhMoGATQkhMoGATQkhMoGATQkhMoGATQkhMoGATQkhMoGATQkhMoGATQkhMoGATQkhMoGATQkhMoGATQkhMoGATQkhMoGATQkhMoGATQkhMoGATQkhMoGATQkhMoGATQkhMoGATQkhMoGATQkhMoGATQkhMoGATQkhMoGATQkhMoGATQkhMoGATQkhMoGATQkhMoGATQkhMoGATQkhMoGATQkhMoGATQkhMoGATQkhMoGATQkhMoGATQkhMoGATQkhMoGATQkhMoGATQkhMoGATQkhMoGATQkhMoGATQkhMoGATQkhMoGATQkgsEPn/v2U/AmGUqcwAAAAASUVORK5CYII=;" vertex="1" parent="1">
          <mxGeometry x="2117" y="1740" width="364" height="439" as="geometry" />
        </mxCell>
        <mxCell id="Q_h3pjvFeThrfzfZ5TXl-20" value="" style="shape=image;verticalLabelPosition=bottom;labelBackgroundColor=default;verticalAlign=top;aspect=fixed;imageAspect=0;image=data:image/png,iVBORw0KGgoAAAANSUhEUgAAAYIAAAF3CAYAAACopUwjAAAAAXNSR0IArs4c6QAAAARnQU1BAACxjwv8YQUAAAAJcEhZcwAAEnQAABJ0Ad5mH3gAAHjESURBVHhe7f0JuGVnWeaNP2va85nPqVNzashQmecACRDDFEBAbUQFbYfP6WrUj0sb5+7/ZduNtordfn0JfnZrO6CirXwyo8ggIQYkEEgCmZPKUPOpM+5xzf/7ftZelZMigSSkUsN+fpU7a+93r+Fda+/zPM87OzkQwzAMY2Rxh1vDMAxjRDFHYBiGMeKYIzAMwxhxzBEYhmGMOOYIDMMwRhxzBIZhGCOOOQLDMIwRxxyBYRjGiGOOwDAMY8QxR2AYhjHimCMwDMMYccwRGIZhjDjmCAzDMEYccwSGYRgjjjkCwzCMEcccgWEYxohjjsAwDGPEMUdgGIYx4pgjMAzDGHHMERiGYYw45ggMwzBGHHMEhmEYI445AsMwjBHHHIFhGMaIY47AMAxjxDFHYBiGMeKYIzAMwxhxzBEYhmGMOOYIDMMwRhxzBIZhGCOOOQLDMIwRxxyBYRjGiGOOwDAMY8QxR2AYhjHimCMwDMMYccwRGIZhjDgj6wjCMBy+EvmFX/gFcRxHqtWqbk0m06mv8u+Vf78l6/+ujaePlQhAnue6jaJIt4ZhnPqUf6/l36/x7HHwEEfyKTJyYERBfvEXf1F++7d/W1/ftzCQ6dkivdeDpzRXaRinBFkm0mgUr5eOhnLuXE1fs0TwW7/1W/p6/d+18fQxMwcy/sKG+NWKONhS9JAmk+nUUfm3yb/TkvV/v8azw0oE4Od//uflne98p76++0hPxsbq+rrT6aNEYL7SME4FaPBbreJvs93uy/kbiuLB29/+dvmd3/kdfW0lgmeHWTnDMIwRxxzBcbiuo+0ChVyTyXRKqfzbZAWR8VxhjsAwDGPEMUdgGIYx4pgjMAzDGHHMERiGYYw45ggMwzBGHHMEhmEYI445AsMwjBHHHIFhGMaIY47AMAxjxDFHYBiGMeKYIzAMwxhxzBEYhmGMOOYIDMMwRhxzBIZhGCOOOQLDMIwRxxyBYRjGiGOOwDAMY8QxR2AYhjHimCMwDMMYccwRGIZhjDjmCAzjOSLLMhX+V8gwThPMERiGYYw45ggM47nCcSTPURLAVmUYpwnmCIzTlzx/cp0k8iwTuAK+UqVJoumGcapjjsA4fWHU7eIn7HmFToFI3HVccVAqoFg6OIl+yTCeNuYIjNOaaNCXfrstYa8naZqqThYOnFKe5RJHsSpN4RDgl441IhvGKYo5AsMwjBHHHIFx2pIiyk6iSBqVulT84FjV0MmKvl1cO/c8cSpVVaVaLdJRUqAM41TFfp3GGYPLJgNtIjh57QR0Bh6MPuXQMRnGaYA5AuO0hcbWRUmgE/YkjCPJ0lTlFt7AMIyniTkC47Sm1mxKvdWSoFoVL6iongp278zz/Os1TDeMUcUcgXFak4ShZCgNoCgg8SBUJXFMqy9JFMqg15OcdfeQGwTieV5RZ88tpO+RbtU4xihjjsAwDGPEMUdgnLZotU6aiu874kFBxVXxvSu5BJ5Iw8dPPA5VndVV6aGEMEApYoCSA9XtdKXXXsO5njj4i+fWMQnW/98YAcwRGKctNNZJEumP2FGnkAyVaTpsu/ieI60kVNXzWII0FD+LoeiYgjRWh5KkkcQ4jsoyOAE6B6syMkYAcwTGaY3r+ygNeBLHNNo1VXWsKX5zXPxWSxrjLZlsTas2T22AZmXzxKRsGC+0cRrvN83J2ERDxnDcWHOosbpUKv6x+YK09LG+yGAYZxAIpEbz1x2GoVSHA35+/ud/Xt75znfq63uP9mEEavq60wltINApDH+6YdiXVqsmnZVlufWWz2r66tElnfNny/xWmWmNS29hTdNdryLVWl2CIJABon8SokTg1PAdVwNxK66Ew/RKsy71WlNatWmZ27hRfy/Efg8nDw4UbLWKv9l2eyDnzdb19dvf/nb5nd/5HX29/u/aePqYIwDmCL4xx/9EHJ1j8+t/Ns93zxvmKw4H0mzUpNddkQ+97681/Qu3fkUkqEmcB9LlvD/iaXoAR+B4vviBL1lSzEkUpwOpIt9J0hffgWPpdTV9164dcv2LXyK7zzlftp21Xfp9cwQnG3MEJw77VRuGYYw45giMbwojfe17Dzkctcv/1qVp+kloVOU1vUqASNETL2/I/qVMdevBttzay+T2WlO+ODsrN80XunnDrHxyvCn/2KrJp7GlbsU+X6uOyaHGvKy6M3JgyVUtLToyXp+VIKig5DG8oGGcoZgjMI7B7pJZUva8KRpJmZYgLYoiVRKntMCSZKmEg8ExJcOqlucb1/Ek5MCxsI/XuWp8rCm7tm2VSy64UK668BK55qJLVVddcom86PIr5NrLr5QXYKu6Aq+vuEIuv+xSOe+8c2VyYkzl4P6q1YAXGF7JMM5czBEYCuvbaeQ5o2cEJ0DpLJ4w+g62ThqpknAgcRhJFidwEtgnjVVxPPi6toTnA16z2mzII/selk73qMr1AulNbpCFxowcThrSjsdUR5OaHM4zOSSxHE1z1WIayMEkkIdikcPjkxKNt1SOMxDxEviBYs0xwziTMUdgHMOVTLtMeo6ryjJE2EivBb40qzWV53EvDtZypdGqQy2V63onxRGQCgL3OI4lzQux738POV9OMlkcRLLUD1VHOwNZ7PXxuitLvZ5qpRvKSi+ShW4fzoIlHThECF4RZ+bSk3Q2ehnDOGMxR2AUsN7fozEv6t61/p1GH6WBMEkkzh0VrKy2CcRpJu3VjnQ6hcpjnm94SU4tNDc7K5OtSZUbxlJD6aYZZjI2SGVivaIMEhlPclUDRr8Cg1/FfeWuI5HvFqoU7/UChnGGY47AMAxjxDFHYCiMe7VHUNElSMUNZ+hkTQnryinHKxZeqdZq0mi2pFZrqAKuysUDnm8YySODmzZvlrHGmCqIYmlmImOpIPp3ZDouNJt4MgPx9WTqqpqJK5XMlQD3mKMkEFe8oYY9oaxayBgBzBEYjwOjl2ap1vWX9f00hqweYh08xXl8+Ak/f0L3UbzXxuXnnSKvvu+LwElRGfNMGw7B1kuCLRVjvxD7ww/gdaEkT7UHVIK8c10C3kMhnrfwAyfDvxnG84k5AmMIon2Xc/VTvopphFMypDD2lMsFYLA9HnYzPRk/JhpqwnG/UZKpUmQ78x0Jg0z61Uw6tULteipL1VSOVHJZrKSq5YpIG+oGOB7HsdMshULC4ycvt4ZxhmKOwDgGl3hkCYDb9cs9shGZETf1ZE6AcDEYj9M2I4zOEWU/XxTVUSidJIkkUaxKUWpJM7yXFE4B0T0dw1C4MdwPjhgKNySOD+fnuzqVNbcUxw84/AzHmB8wznTMERjPCFabcEZOjiFglQzHHVBqMGFkmRZGMMI0zLofq5oKg/3NhP8VGpZEvg58xvMfU8ZrhRJxbAMcUZI7qgwGHi6gcAas0or6qkHYkzRHvO/gWOaVTo3XpqWnl4jhF+JE5ceZuOYBjBHBHIFhGMaIY47AeEYwEtcGYg44Q7TPRmKK0zt7ni/j4slEoyb1SqEG5Ekia0tLsra6LN32mqrTXlXxdb/XVYVdqM8VxPpFlI9ov1CkCrm6GPYrq2/8mi9jzbpMjjclSjNtCKbywBfxfck50qzqi9PwVH6jIm69Km4NW+yjwucu8u3gnjzXkSBPVRVOscHuUqcw/C5YOmO+k5jTf+AZDQbIthVljGeGOQLjWUNzU1br6CjkJJa1Rx6Wx/Y/Jo8tHlQdXtwv7c5RyZ0IjiKGYLhUmfhDeW5aiO+x9SWFo8nFc5AGBT5eU/jMcWPprh1WHT30kDz66H3ywN69cu99D8jq2qqKo6Jh2qXlV2S6NSYbmlOq+bFpmak2ZQLOaarWVE1UmjIGtap1CTwPCo4pl4zW9qkqqk46rPaKQrg+OC0Pf8lUlU4On/H7MIyni61HAGw9gqcP6/1hLzXq5NxEY+Njmv7VL31RFmCQP/7PN8tjY4FkrYamN7BPK3ekCuObO5yzSJNhrIsRypzJx82LZ+zCkvmUPnN8Nnz2HiJ3jX6zYgnKldVioZkogiFEWpxzJbFU+ivtYTocxo7dUp/bIjUXJYC4OE+Oi/e8SKTiSlWK79iLKzCgjqRpLP2oJ507Pq/pV0168sYfeYvMbdkuMxs2INI+ddYjYBdekuFfnMXyyL594tdR+gHnbtshTphKhCd7pv122T5l6xGcGMwRAHMETx+N/PFI2DMojTMZn25q+k0f/5Tcf9tt8rFPfVYOzDQkHyscQbUfSS2E88C/mOsAs2cRYIcddlV1uC7wMHrlkpNJnMAxIJpv4rxB8ew5kI0OqIjNHen2epruY38HUX+G87C/Zx5yfiCRQTeUaH6TBJPzUskrkvaKVcfYeJzWUYKpwf0MmAPcR+hp6YNkKHHke+/Q1zdsm5Tv+ckflik4grlTzBGUJZQKnOadd39N3veh90sWFKnffsP18uLzLsB9Tkp7gOc+fIa4a92ezpgjOHGYlTMMwxhxrEQArETwzGBkJojSWX/eHCue4RduulnuueNO+ft/vkWWt06Lu2FW0x0ZE9+tsVt+cdww+udTZVWQE+XHGjergS9HFo5KFEeye+duqdaK6g6OC4hZD+75Wo/fCwea7nFsQ8CSQigpSgPtpWVNP3TwoHSn5iSY2iA1CcQtllbQ68TVRDKOlYuLEoHXryCyZhfSFHnNJHzgi5p+3VxNfvItPyyzm7bK7ClSImD+fdw/G4TJ/fc/KB/Ec/+Hz39WQpSOyGW7d8qPXv9iueqKqyVyA31GhM/uGHze/P5OM6xEcOIwK2c8Y2gMWV1DaFMKu8JqmpoMaJDGmyIzc6ru7GZZmNkhC7NnyZGZ9UIadGRuhxwdanFulxwd3yyLk5uls/1caW/Zo1rauFuW58+WlY1n4/XZsrr5PFVvx4WytmWrrG6cksH2OYl3bFCtzI9LG+rOt6SzqSX9TWOqwZYx6W0Yh1oSbppQxVunJIPjirdMiWyYlM50TbVYS2WQsarp1DCY7B2kMVueyYNfu131vg99SG6+82sytu0s2bB7j+qr+xfkz9/3fvnYxz8qcb8nY426Ko25eBDu5zR0AMaJxxyB8S3BKn9qYnJSglpVG3DDBJF1lBTqrEl/+Yj0FqGlxxUirdSg1MqCZGvLUul3xRv0JG0vqwY85ughWTu8X1YOPCJrR/apBksLsvrYIeiIxMtdccNc5fQTqSAPXoiSxFpP+ivIA9RbXJVBuy2Dta50l9qqAdRfxuf4LO0MJOjGKrc3gPGMYXdZUji5sCSQIR8VP5cg64vbL/TQATw/tyJnX3SFXHDVi1TzO8+VhxbW5G8/9En5xE2fkZWVRRVXkIvCCI4Ed2POwDgOcwTGs4YlgwQGl9qxY4eMNSelH/uy7DZkMXZVbPxteqk03QxKpeUMhfctB1qXNoH3TZTq61VPJgNXalmoqqehNCTS10HSlzrToDGcdywJZKzblMloXKazQmNRXZp5DderSC13xSsFk+6h5OJ5jgQcM0BljvixI3UEy7PYf6fTVG3PGuLjvopqsOENnyQ4ZsMPkFdvIMsL++Qzt96pOhxXxdlxCUpX58mB6XNV1atfLc0XvknuyebkA5/+V/n8F29VVet1qVRrEsdFFZdhrMccgfGsoZEsB33Bjks1qMHg1KTebEgNW8rlbKDYj1NSJDrdRKZiWkZDy3mBkK7rJTu5OhX2jQ8HfQkRlVPsGuogkuXsoBQ7+WhHHxzLnkMBjDsjd16D6nba0ut1pYeouT8YaG8lyqv4uAYcF16zAybFabZZ755p7yU5Nl/RyuKSLB09rJE07PBJoXwuaRLroDwfD/nI4cPyr//6ryq34srmTfN47o5E/Y6qEQSy5+zdct45Z8uhg/vlHz72UdX9D9yH/XCvKA2wmskw1mOOwDAMY8QxR2B8S/guokyOB2BEHyHSZLDpBIjAHVWEKJsddEKUDGKE8ZFbKMH7COmRi3TfVaUexJk/q4jQGb1zC+U1X+LAxb4iA8TxPUT11EocSTfNpSc4F2Lmilsr5FRlKhiTKbciY7EjU2FeqM/XjkziwpMRt47UcXyQ5OLEKDUg8/2qo+pUMunHIQodJ2d6bcIBdSo8N9eLpDfoyWNHjsr+lZ4qacxKMn2WhJM75WhjXvVwPib7q7PSOOdamdh2rux99DHVxz/5KVlYWhS/UsHTsjYC44mYIzCePbAngXbp9MVNYTg7PW0sznIYdDgBir1FsZGE1T50APjFUZzvnwOKUy+T1C2UcIQv9ovhWDLPU6dA8XXGz3wcE/ji1SuqBMdEHF3rBrhOgB9zIbgnqcMZNXJfavBEjX6qasa5NCIITqEO408FyIjLzMAh5B6uXYHjgkI/l5CNxceqhlgXRZ0MHDiCprQHA3ls/wFpTEyr6tNzktYmZcltyoo3plqrjMuCU5NgYovsOe8imR5rqL78hX+VO+64QwZRX6ehKOdvGtHe48Zx6E/cGFHKvp9DY8D66GIEb/HvCbACvazbHyqH8WT/fipBhB6GEUyw6Jw3DowqhYO0Pt/H4T4Nb5ypeC7W1HOMgAsLT/lQNcmkOmiLHw8Ep1SliNa5fxUGv+5XpIEtVfcCqcBJFL/iFOcPVW4YSgIjN8C9DOCJIj8YytfFZyJdqwCOh60EcES5h2JMzhHNGfLpqHIOXmbvGmS+18WebM+AaDj5nCKcO0aJpKzHL59J+b5Mey5AoQTfS0WOHGrLocNHpDUxoZqYmZAAzjBrr0nQ66nG8fA51iLEg6tt3y2NC65QPQoneNO/3ir79+3nA5UIToXitB2GYY5glFFDB2n1A6J3GHQ2vLKKhwphTFMYe7UVHJDE6D+oSKUCVatQRd0FleSeLvc4xlKA05PQG6gY4fuZJzXY2nFE4y1E6JQDo4ryg/QlFieuq+rhuIyHmUyGR2UqWoPhz1U5InM35syggXhcZ3I1UtX6xeybXYf9/XHcIFFtpDEPWOXkSFKpSb/RUK0gtM9dX52HCzdA5c6yJOkybmJVPETLE3FN1YjHZGJqo2zcPIvngvOjRKJiryPccQ33xV5ISFDV61Xx4Zj4Do9TxUf7rbB+nehaw5dHH9ovC7jvhShVpQ08fziCcTjTGTwSyl/Bc0ep6JFqXb48d7587aJXqB457wr5l72H5cu33S752oLMtAIVs0jn9lw5LeP0xByBgQgRRrkL493pCqeQa8FoUwHSAxghzmmTscoHWltZldXlZVleXJQlKNIpo/vi+4UzYa+dXh/htNYJoQTA6aBhZL6+XhqGB4bVgbHmHEIUAnVsOetosTcX06fYfZKljyhOoFj34T/upWfldfFePRbE49kLiOhIYNbtQDFKIoNBH3lEfuAMqAzndWEIG62W5j/shypejyUZxw2l0XBl0O+ruu0VqSBPU2kkEyiM9Lpt1eFDR2Rl+SiujYvy2hB7LA0LW98SzBf9MP0Q52Vyfa6oxgF8SMR7TgfOwpeKTp1FMrzuDVBCqjZUW7dv1xLYXXffJQceeQClqVzFSf7Yi4tP8lhvrqGM0cEcgWEYxohjjmAEKRsIy8gvjAYSxl1oTZZ6R6Xn9lXS9CX1sQ+02l5WPXpgrzy870F56OF75MD+vRK226qF5SVpR31pICKdCTPZHASqDZMTUp8cl/rMpDRmp6Qxha0Kr6enpTUzg9cTqspUQ5xmXZJKIHHFlRqOpaa2bpaZHVtkeutGGd+6QcY3zqkq05P4bKPMbdsszZkJ5LeqyiE2MjtVX5rjLRmfGFdNIg8TuObYDK47PaWqT07hujNSm56VrF6XQauq6jQrchilhwMrfTyTgRxdOKg6tH+fdLuhHO7E0u4ncuTwQdUdd35ZHnn0IcmcRPqdJVUehVoy+VYbZDmyGIUx2br1LHE5kruC7wXq1BxZbCRyqBnJgfGBamk8lE69I3G9Kz3pYr+Ganz+XImrc/LVh1bk3ofX8L37Ks6hNAgjlBZgDNjmolV+VZRAApbZJMW1mX2qWAu6uJ9v9Z6MUwubdA6M2qRz/Mo9z5POWjF/v9fAHzkM/2c/8wl54K4HdM4gpdGUWqUqrElmIzBxYB4G8UBiGMlmhuc3rEFYXu3LwQOL8uiDB+TgxfMSbd2k6bE7If0sEN91pBLH4iQ0OSKDqiNRE8Y6daWyxgop2PC0JoOlu3GtQ7Jt5x5Zm9ig6cLeQGy7wHeRx4kEaXEO/eHC2fRhbFv4PjcdWdL0++65V5bO2iD57Kz4CXsRFZPXZVmC77Mvgcd3w6oqPAvegpPF4ofYPvKYJk+2j8oFu7fI7NS48FdSH8ZMldyDMcwlSXPcU+EoSczFdrBLHc8r6Xc17frrvk12nLNHpIqjneH1ngFl9UyeOzI9VpH77viK/O4f/Ll8JdUbkOC1N0p3/ixZcaoSeRVNqzgckZ3hGeE7xfNuuEX6BJxX/9MflepD98oPvewF8gNvfoOmR3C6+x55SA4f2C87tu+QuY0bNX1lbU1WVlalBQc6OzunaTGee4jnr1VteH7l3wbvjQ5P7/FZ3OfThc/DJp07MZgjACPrCDqFI1hePiJHlh+WD37ow3LL5+6QvFHc/6DVgnHzxYU94opfhHX2g7joleNHXE2seD6NoIUCxBiiy0yO7JyUzmRL0/tpHX/AVTgXGPw4EnfoCMKqK1kDx2aeuGvFmga1pCpZ50GpOkdknJPVBYWDiGF8tTXA84XNvIVpg6FjDyecYuDGMh6nctZwYZpHYczbuzaLv2Fe3MiF0yoMKscE+BVY+zzRSJf4fkXr4NNwIBU4rObyUU1vLe3H5XCvfMO2Dl4IeDxOD8V7ZClBCYBw0R03iyQP8fspdpUfeeP3yMtueIW0NmzmQ9fnTni9p0PZzsE1IHY1fPn8TTfL//PXH5GvscEcuK99pcSbd8lqDkeA74kgy3CKuVTgqNjoUsH9kUku1nPHrbL6pS/IVdtn5PXffr2mz8zPyMGDe2XvfffLYNCTaqV45tXmuDTGx2UGpbcxlNZIpVGXJjTRbOpCQ/wtEF7KgXPI8H2cSMwRnDjMEYBRnIaaXzsHF5FD+/bL/V/5onzi1i/KLfffL8G27ZrenZ1BpFyVMOJUEsXiLh4icBdGnD8al5Hn0LA3EkdqoYtSRlf6G2DYJwvjkToNiVKONUCJAIbCGRqLfsWTLkoEHqLd2rBE0IAjWFu4U+L2gzI2t0UWG5OanmZs0GRjJqNPRN1sOQWcjiJ3Qu2dNJnGsn2lmEfnwP59ku7ZKbWt28SPse+g+A61mibo4RjmoUjLseWgrTSKcT+OeEcPaHp1cR+toXQ2bUPoDaOH6xM2IOMs6gQc9joS9ljCrjinl4SSHz0oleEKav/Xa26U87ftlj2XXiWBjxLNMMJ/uo6gJMcz2w6DfveX75J3/fX75XNLq8UHN94g7o7zZIBn3Bs6qgrucW41RqmA31ExBQdpwplGD9wn9938z/geOjI/MywlOW1p91ekAyfAewu0/INrBk3Jgjq+/6IHFmmN1+TsLVvksrO2yfk7t8s5e87V9MXVFRkfG5MGSpCcRuRE/c2YIzhxmCMAo7oeQfnVs7rn8CN75f99z1/IbY8+KpN7ztf03vSUBC6Muss4vHgO7J0ziPswpjDgPvvyF+l1RN3RQlcOHTwq7q45md65U9OD5oz0IhhY7BfEsXisWgC9mi89/B07qSONzrimTXhNeeTez8rRfV+WLWfvkf5kUU2RcRUyHBamcCQwNI2hI2APmtxPJPJCmYhCmV8oSgQP790rlcvPl7HtO8RLA/HTYbWJ78sgXxGvwjwX+e4PQs0bxw6wvrzzwF2aXju6X+Z3nCUHalOI+lkSKYwhj6KBZb29g6ISnQHhOste3JXuvkdkcGC/pv3ADdfLhTvPkYuuvFYqcKDP3BEU3w8dAZ9198AR+Yu/+oj8zV13a3p8/QulsedySYJxOAJNgpFPZXotkiZyzB5WWosDJhxP4nvvk31fvEWqaU9a9SLfUbokqRfBkLdgZMfEc4pnFaN01OPqbnCQfXzfpD/ooxSIv48kksmKLxdfcoGmX3j+uXL1lVdKY36L9BEwPJtqsKeDOYITx/BnYhiGYYwqViIAo1giYHQVIEoli4sLcvBrd8v7P32z3LT3ERk/b4+mH6jVEFeOI9qtHmsLYN/7GIet9DoSRZ1ji6ZPBVVpdmI5urgoze3zMrGhaOhFrC3RIBYfv7IgjsRDFE96VVfaNUTVCEyb/SlNm0Zku7DvS9JbuVe27DhXllCaIJ0w1b79XKieFR2tahG1cvBbyIZriWTWc2RudVgieHCvTL3gcqlu2izRcihOr8g710TupSgRNBDfu0W+Q+atgvtjnVPmyuIDX9V0d3m/7DrvAnk09mSAsLpcSJ+5j3FdTpPBuhSubEYC5KGByLm2tCj9h/dq2g+99AZ546tfI7Ut8yi9FPs9I4bPiiO3WYp48M7b5YH798v/+MgnND29+BKZuOJFEk3OS3u4QD/HErS6RampEySS1Yvo3Ms8Wd17EM/3MfFrrtTGi9947Az4xUhrbAy/h7pEYVFqCVGKS1AiYJGCS0KTIByIs7wg2cFHpLbvIZTA9mn6OZta8rpvf7lc94obJatNSIZSHnGHbQjPFVYiOHEUvx5jJGGVCJWkmcRd/AE5FRgsT1KpqDiHXJh42AYo8vuq9iCTdijaE6iXB7KG/al27kkfRmiAn1QEQ9lhNQvV6UgWwyD1ip5G5dQGUR+vdZrpvsQw8hR7BOnEddwmmSSDSBV2OYdRBEvArjCpJGGsinH+uD+QFOLoY1ZjUIN+T3LcE88TrvWgjirpdHW/uBfKAK+pmF0nofbKmnAx/sCvqNgxqYu8RTGnk8jxHAoNkK9+mqt62Kc/1ACfRbhmBscn7NUDcQ6jqWpLGsh3knEOplz1tKEhhYJKRRqtukxv2ijnXrpHnQLVxz3FuMc0d3U+J4pVeNpwq84Kjs93VWGA75VVfbvPlnT7WdKZ36gabN4uvc07ZHFyWh6tNOVQa0q1PL1J2nNbpD27SVYnN6raSMu27JLWORfLxosuk1pjTLX3wQfl3nvulGywqm0+xumHOQJDfBiOpJLJIBhI4g8k80IV58CvBKnUEbY3MkS8UD1PpBb1pJnifeBIE59TjTzGfqn42UAaOM6Luqos7omLyNSpwjCzq6UHqwl5CNr8KiJqHOv4kcpDCcGrcSI5OIocxj/vqjI3EhfH+9hX/FQyH44Cyj0YVxeGEPfAXkCxWyhF6YDTXXBOIfirYkoMiH3jg1pdKvUq8oQyDqWjdFFq4WhjGF0X0SSVwHBGTgZ3mOC+IjjJuJCbQglKEHAakIfrqXBNrsFcPFA4A46oZr1+yOcQiZ+kcDpwXND6Qjhfl/o6mAbRkR49fFTGxydk69aNsnPzpCrjSOalBZnAs28iD1SM72hQcaWP+068CA50TdXpLeIZ8fv0dbQ3xyNQOv9TLxZZjcVZ6UmwOhQcs5MiLUKJYe2oKuguyGSyJhtx3ik8ezaUUzt27ZLzdp0tdZQKMzoC3soz8HfGycccgaF0/b70aojeq3ACDraQm/cR4UVSG/RkDNExNY1QeRpR+zii+rFkIFUYOqqSdqUJ41zNBzIJw91yBipX2jDUbYmDriQ4Z+og8oZyrwcLTaeDqNZZVYnXhXOIxa/BceBz7kO5fhefYT+cJ3JWJHVXVXmN6UWvHbgTOAdEwpDXqOJ8KSL4BAG1KzUYP4oTUbCahTUX5RTPari0wom9bDzpwoBRqz4Me70BR9CXZrwmjbijqmZ9xPx9nAsGPYOxhBGmEIbjvJx7qYK811SZU5PcbUJwPpWaVOGMqHJSOhykVY9lhF9SOgWOV6AY6beaeFwtOCs462sv26magXHPHrhH6ktHpIn7pTigba2Zy0LDkW4tltBrq5aSJVlIO7KMkknHDWRQHVf184YMojqe8YzU3GkY/oYqH7jix3iW7PGFcg7V8OFw8rYkyw/Jvvtuk7W1RdXll14hV151jXgsdeTsTsB+VUUVk3F6YI7AMAxjxDFHYGgEmiWIqREdex5nFq2pXI4ZYCSNKLYU++LHHEVaq0pQRyQ5rEpxvEAHd3EKAjYos15bxWoStjZq5H2ckJbrFgdCOeu6Ic/zxUcEzcFeOuAL5+bANlbtuI4vHLpAcRI55rFeZ7Rd5FXzi+t7rJrBqaMkRvRdLGHJLq98zzUThrUuDORBivNyycoKro3yAbOLe0wh3A0+5XyjLDEgf3ydswQxvIcSnIx/TDxfEkcqRv0RSlXLKEn0Y5Ryhv/YvZLVUPp5GOrSmdSwIKCwhMAF61VpKNVWilJFB3mLZc8556nm5zfKgX375d6775bu2qqqWqkKg3FOpMdlQHELqnLWWJ/fBy+E/Kky5MvnEpZFozBnlKVq2FcQ3bN6sFkNVFU2zne7snTkiPS7PbnqqqtUF190iUxMTeOibGPCA2DD+rBx3Tg9sG9rlBnaMtqfIIMhD10JB5mECbbQGixK33NlpebIkUam2h8k8kiN89ukcqQey9EgVS0jvZ0kspbGwuUGhKNfoSzxJcxbEkpL+uvUkyYrXTQ9lDHVwGlKO/JluedKJ65IJ6qq1qBe2tB9Em9cUndsqEnpp56sRn1ZSwayIpFqGeoFuS4u0/cS6fu4DwinlrjuStyAUW/CUXAupbovfRg8drpJvKJdgeqlA1l2cG9uS476k7LgT6iW/Jas6gAu5MmhAlUftxviuiEM/yArFDtduf+Re6XPgWb4nO0YVMUNYZA5ZpnrF7BhPFaVawnTMbPKKIkSVb+/BsfSEaffkc1wdC85b7fqdRddKFd5VZnZf0D8Q4Uq/VVxolVxkxXpd9qyutxXhT1eA9d04fTYhQv3qnJzrcYJB22p5YlMeaFqIjoq451HZL53v2wJC00d+bI07vln2bD3NtlTDeWGa69S7bngAqk3J+Dc4Ix9FwEFe1Ot82rGKY85ghGESx8WLwpxmmj21nFhrQIYGh9RNsWq8xBGbICokHP76/z+VS4hCdVgUBGtCowlxQZaTsnA/otPCArhSNiDhZF0yi2MhWqYxtrnHCUACvE9hIg+qIrH+XkClkpqkqFEkGD/HOKkFhlKBZSwFIJSAiNaTjCX8VoQ8yIBLs5lLhHeR8gnFWYxIm/27mH7QaziEjUhG0V5DELiYeEEpR+UQJq4NiLj2K9JgnxQKfPDAW4B9sWz0omLKFyXjc6elkzwmteHoeXU1c3mOLKK/MHQUymMdJK2Ed2nUmvgusgDFcd9dQDaXkBHgH0pJx9INcik5uCJ9XvSPXxA5a0uS2VlVeL9h6R76KAq5wpk+B7g2vC88T0P88eOTAkMPZvWM3Z5HX5vzLdwkj88+e4AzgtOkGq2ajIz2ZCaBwd75FHVw/fcJkcfu1e2TVflDa+8Xl5w3XWq+twGdYwDzj3FchPyfqZ2uz5TsW/rDIF9rMtGyFLaXRFB3+PCPjAsvV4oa2urcmg/Z9M8iGgTEeDERhkMYFg5CjeFE4ACqWN/VmHkakBVvBiNLv/QE5wUtoRyEBXneSBpVpGIfdClqvIQPXs5jDtKGBV8XsFZKT+D0Uwd8WF1/byichKv6MnCBkocw+nuVCitBEjj4jQu22VDR+VBFeyPq0gF3ifHPReiY4vUsVURobKahIKlhVHFc2EX0ihUOZwvCfdXh/HldBl5XAhHIc2XSoLcolRT5eppUD30pBlBoV8seRmKqsEtu5/iGVcdV8UOUuxJxB5J/V4PETPyDvkw0AHXdcb5ul0Y7IxLe9IJct6nYq2HIwcPyMKhQ6rQq8hjbVc+e9+C/NHHb5bff/8/qf7x3kfkUBUlpS1bJdu4UeW0WigpcaqPjgTdXDYmLdXmqCkb8Z1uwr3OhbHM9AeqOdzrVjyaLbjf2TiR6U5f1VxekeyxR2X1rgdk6WsPqiqriVy29TJ53Yu/W2588XdIfWxa1cZz7NDB6oADOjbjdMMcwZkCjB6/TAqBMOJmGFhE0LXAgdhzBoYNUWm1WpFGvSrjk2MyOzen2rltp8zN7pS4j6g3RNQbVlT16pQ0WpPitcYkqtVU/UZFwmZdsnpNZyeV5pjKrY4hOm8hAw1ElBVEy+OqRmNWxqqT0qxOSAvnm6jNqMZr03g/qdvxeqFmMAln0YAhhlGHkfcRYVINnLcZjEndLdTCeam6PwaDW4XB5kR0cA4wsFSAiFgXa0HAPjbekinkj5potmRickLGxsZ18jRqvNmQqXpTpqEKjHhZYwJXBceRiO+Nw5lMSsNpqfgPV5fJvClTeU2m4cCoGbcm41xBbcCeNa4qoPOB413e97DM4tlvQL6oOtJwl5L14YwfflQOPPywyh0kMlMfk8lqS8bUgdZVn7/zIXnvhz8nf/aBf5H//ZFb5CNfuk+1D46kee4Fsvmaa6S1e7cqrgbSi7pw9n2pdFyZWKypxhYcmWvDCXQyme7C8XcGqqm1vtSProm3sCqtTij5wcOqo1/5ijxy87/I6le+KlsjUX3HZdfJT3z798urr/t2lBY2I0Bg8MFWFC5wg1IZ2z70x2icbpgjMAzDGHFsiglwuk8xoVVAaaJRP4l7iDQXViRHUb3BKaWHUxSzaoizQ3Z7PZ1IrDJcd6Ca1eXh+x+Tv/nkJ+Xe9pqMn3uepg/mZyXFPhxtzB46pMPZPnGY77HKKNK6ZzKTBTJzNJTH9u+T2Y2bZHa+mDCuUh+XAev141iqcSo11kmDbs2VNT9hC6qMDaY1bQrR/iP3fVYW9t8mm3ecJ92xYpqKxAu0xoE9hVgH3WDPF8DpFAbhqrgcxOYmknSKKaSPLByRxtk7ZWL7WTKeNWS8W2QyQ2mh38xk4CTi4LqE1VRuxGohR8JeJI8evE/TV7r7ZOPG7ZJ52/EbaCBi0otrdVPRvIr3ToQouGjgrbmxVMKO9PfvFWfhkKa9/IIL5GWXXyRzk00Zw/cQ9VY0fTlp455YBRZI1GV1XXE/KUoVK91UFhChLxxZkocXisnrvrb2iBxawj1V6rJhZgNKMsXUGzNbzpXW1DZZmN8gDzaKcxzptqXN77aGcks7k+xAMVNphO+1VmH0jmeWIc/DnzX/+rvdniTtjtRZiukX03Qk/UVp4VldunOrXH7+2Zr2bZddIpdvmsdtx7ISxuJVi2s+X+UAm2LixGGOAJz+jqCoF68NDeQ/ffoT8pGP/6Ms4w9cK6W17hbGAH9ImQ/jM4h1XeGYjYmgH8Aw+K6sdiI4j4aMTRYLkeSVpvQHiYzBUI4P5+ZJnEx6NIAVGEQ3lygvDGEDHqE5cOTo4ookM5NSmSmMu1/1pJ/14AgGUmd9/tAp9WqOrHqp4HQyPpxrqJVVZbB8nyS9h6UxvUGWhgYvd6swlnExmybeV+kYAKeTqHlNOMAWDHtf0l7hCDoweuHcjARTM1KPKzCIxX1ywNNKMND1C7jADKlmcAWpg7z5koS5rHaLaagH6aI0xiaKbrN4hFyynjg4jl1eOaaWjeI65xDBbbH9IVpdlsHCgibN1Roy1xgXrlXAthkuZkPCwJe8Gkg9i2U67MEXFoZ0yWnJUWnIIKnAQFckmyoMXb5lSupT4zI3MyfTk7gvOATiOFz/IZeFii+LuoA/vuOlFXG5QpzfkurCHdK57zOanh3aJ+P4ztxOB99/G06l+B4afkPiyJWxoCqbJydlbqr4LraetVGueMmVcv5F18DpFd9xAk/sOVV1yOwmHAyduj6g5wFzBCcOcwTgtHcErA/3PET4RV7f+3d/LX/7//29DPoDqTYbOncO4cpiDnu8OD7+dmF86oUx6AapBHydI2qFQcyleC5epaFLJE7DUNST4mcS5ZnEiCwRGiNaRnSdRJrO+e9nYMj6/UgWYOQitiEQP5WY00SkIQwf1xIo8tKpOrLkI6pE2livWHegEVak6RyGcV+QGNHxkUqRLngdw5By8Xoukt+qFQYgCSMJctyf02QxSNy0iH5zGOSlJts06lLroVS0WuS9WqvKUqUnkcdm7OLeK4jGkQ1pagO5K5lbRMRZBXl2YPB11DCehVM6Ao4eZmN4riOUh3O9CYP6Chwup9mIhyu/jcFLBHDQEfJOPKdwYH04ghDPv4rIfWO0hrJF4Qi6jQ0ymNgileYGlKSmJZ5oaHp7riZ+qwZHX9WR0hxvQaIwkF4v0efdK24HD7aL7yKQ+agq3b03Se/Bf9LkLV4kF+/cLnOVQPKoK+PV4hlu3rBVpqc2y/bNW2Trpk2yDCdKDh9ZkA2bN8rmLTu04wHpDfrFeAs6R/ZswjN4PjFHcOIwRwBOe0eAPxCyurSo2/e976/lE5+/VeKpeRnbfSGMRGFQeohmU0T2YzDi0zCoGQwjWfNh2jh4DFEv53bjJHTE5WAupHIOUgdGmLCPPSweDGaOSDcvDCXgZGPjiNzZo5STShRLxDBYzITBd4rotwZnUkbiqe9IhHPgRDCIxR+0n3FQ1wAn60uC83WDoTOBAWXVFw18DSUKLgdJokFYVthoNI6YXt+xJ2if3UYhP8Qd9Ir7qSAKDgPmB/dbHIgSCY7lfDucbA/ZcVldBfwqSlk0+CkeCP5E+LqgmIqCXTOZltGhAgb1ukwkLs41E0g1w554ILogznB/QucRIgPVxJHJFE6OzxR06hVJmyjhoCTBgXScN4kkPB75zPEc0tyXHntrgUVs+bX08Ixjp1gzwEcJbQaGunJ0WZzbPi4bVh7V9IvP3imXXXiRXHbpJbJ4+LCsLBfVVDt27JKt287SaL/eaOG+NRnPE98Rzh3B2ZYWghMUPm4uyi0pn82JxRzBicMcATgTHEG9WZUDDxfTAv/pH/y+3Lr/sHR2XSL+ZdfLwzkiZtCvTsOAubIFBnMXjH88NLQLrFLS0aUwc7BofvmTgIFK8Y8jclkrTjizZYpjWS0C24T0xw0DYmR9VYzFLdC+TDiGxtCPMxi/Yv8K1yrWvWDchs+YkXHf82XAaJO2hY0AQKeATmJE15zLiMcWeeG43y4Md6L70RloMgsrMMAO3RcMPfI6TCc60hnv46ExZa5dOIwMSnC/x3bFyXSEszoCPIXhz8DhmAeWHLAnR0GrBwAeHALKWTCoj7sMB8Y+dziiOdMqtYweCvBZOl6KEkxDvMEsnGRx1U6tJylKLJ708DC6UuW0pmC6x663HL3dkkgashgXzvcR6UvGLy3D/lmxXrMfxDKO/IYP3iFbb/qkfOeWrZp+5ctfLedc/gKZ2zAnA516uyidFMth5sV4Bfx7/Ptk+tePB6C5WD8v0vOJOYITxxO/ZcMwDGPkMEdwBsD4LI0QcSISpJxqRXJEn0HAao++5INVldtvizNYkyRclUHUljzDZxAXVXGiNe1tlPXXJBt0VTkbMjsdidsruqXyfodFJYRkeM268DW8VuHca31xOwPxO7G43UJ5ty9RB+fE/hlep6zOgZIoRB4GUE8iLnIDDXrIE/JQCdckCJdx/JLK4XaAPOCz7toSLrWmSlkvEqHU0sc5ez1J+oXibk8G4UBCvI7iCAUbPBdVjGi4j+twHYK+Ko1DyRBFOshPBeercMuBZjhftrYicWcV5+bzQPQ9VDxggyvOgecZh3g+UIS0PvIfIi0ZKu4ij3hWWbeLexiIh/unOMWz2wvxHPGM20vi91dUQYzSAEd4oxDiotThOOybDwVV8Rs1ySuu9LKBdHAtigPkhL25tHRVUzViT7wjbRk8usACndRnNqha8xvFZdUYSkKZy95jsaqYzyjTyF+n4ca2kP91pQFyskoDxonFHMGZAP5g+cc8OTWpkqkx2Rv35bDvyEJFpFsPVPF4IHmrIktNTx5rOnK4XqgNZ9BPOUFaLgMYBvYEopLcFc+HcQnGdFAX5UtD/LQplaQp9XRMWvG4ajyekrF4Usb72LcNrY2r/G5T3LguTlyTLK1LlLVUfWdCujIpHXdMBl5DlToo6iMfAZxWK1ySif7hQt0DMpWsygTuJag3pVObVa34kxK7k+I5M3gEc+J6hfL6rCS1aenXZqQTTMoK8l9oXNawHTQmxBmbVEl1TDjdRcyFbnow1INY1UpcmcCfR6WKZ1Z1tYcVtZaGsgZn24GTDSfqUEPVaTZkpV6TAQffNQtlNVwjmEb+piRIJ6UeFmp1x2SsMyHNXlWCrCsVPH+KI5GzJJBBUpVu1pRlPGvqEAz0o+lAHo46sj/qyqqXqfJKC19+A+cMZNuqr7p0fyIvvmdBrtp7VF6442yZ2LpJNb91p7SaLW1nYYOzYazHfhFnAFzEXRdgh3Gich/RHUoFWeBLyjmDYABUbGT1keYhMsR2AANDhaxmrtUkaDbFwTb24TQgdjX1a3XxcBxX6aL6Pc6siYhSp2LAxbWxAJFkBqfBxt6sAmfB6SmKySTqHPkLZxK4VBWll0DFGTzZeynPfZRi8JoSD4a8KtVGXQIYYNb3UktLi7K4uiYh7tOpwWFUa6oeztSLcukiih5EqQzgRAqJhIiSYdIlgTjHUSFX5ywaxLm0e4NCKDVwZlDOW1RjY6mP6BuKcM6jq6tyFCWdDoynNPHsoGB8TPJGVfo48xrytgYHQnHiOvaf0usj6qYi5Dfl88GfGf9xCXyKC8TjLqWCa9YR5Xsevz88X+SjG8W4z0xS9vRizysor9QEZQjpIL0Ppx97FRUbjznNB7vgBniWVI4SWWffQZGlNXnhNS+UK1/4YtXk1FTR1mIYT4I1FoPTv7E4l6oPQxpzRkuRP3jPn8rf3XKLpGedL9ULr0GkOqvpHRggzhs0UY1lQ9WRibxoMGzCDlZdGN44lvZqB/fd1XROWTw2MSXVVhNmr6gS6KeZTsSGQ7RWIqQVAhyqRHGaaJfVGcPnFrNHi89xDohE8wgOo/i5wVWpUQxwWkcbLHE9OBadpzTvi6wtytLeezT98KGDUmmMyfyWs2Vsw24Z1Oc1nZO/RTD3HB/BHj9FwyevCfsIB5eykRvnZ2MwYa2Gh6jeRanHiYt+TRWUfJquJy08v3qSSm+5aHQ9cmi/LB06DCPry8zcvGzYulnTG1MoacDZdmC0uTRnPBxfkVV85MSVFF6oGLaF6yEPPhxBzrET2Lf8Jemkf8wXnmWFjdHF7iglBRLBibODatPl6mCd4oPl/bKycERiltDGJiRCKYaE9Q0SR5mM+ygNRsX9xA/cK8ld/yoXzNflZ9/2Y7J5c5Fv9uZiF+OT2dj7rWKNxScOcwTgTOg1VKsw/i6+yv/1nj+Xv/7ExyXZvEPqF71IupOF4VxJ2S9eZLYey6ZaKhPd4t4mV0Idc7C4siRHFo7ivouuiCxVTG7cJFObNkttuujTnzUaEsJwhiiB9GDo+tq7BM8T1ozBb4rPXBi0HJ+RGJFuot0g2emS1SBDo48kH06BSzhqH0jQgFFzlo6It7hfguUF6T5wt6avLB6FI2jJ3IazZXJ+jzgz52q6Nz0laRPGEyUfnkGDb8BuqRGMXYw8cDQxezeVcMK3KtKrMNukBucXoGSQ99YkWV6W1cPFqOClQwdksLAi1V5NZsZmZWpzMVK6vnFanEk8i8a4JGN1LZkQ9nZiCYXT1cXD30xCR4QtSz50D+oNgK48hrxykrvxJBJv+Dv0vAYcFyL7qC/B6oIMFouun9G+r8ri/kf0nmqzGySd3KTp8exulP5q0qihvDFcuH/17jtltntA/u83vkJuvP46fIlFXnROoNPT/h/DHMGJ49S3coZhGMYJxUoE4HQvERBWr3D1KPLev/s7+fBN/yzhpm1SPfcq6U0U0eya40k/TmXM7coUovNqu4iK/SNr0l1dk8XVFVlrt9llX2GJoIHod3xug4xvKKadCCYmJa/XJKlUJEUpJGUbBMjLfulcIwDb4WwKOjaAjZMuojknb4s7rL5yslDSMJKkH0t/UJRAgm4qgyP7JVo4IPV+G6WCg5qeRvgeKjWp1KbFb8wjIj5L0yszs9JAqaAy1sRN+OIN8+LUqkX7CL67OE8lYR0/4LQILl57+MlXkqIqJet2JFpalN7RwxIuLkqEZ0DSQReReSZ+VBXPrYhT3l+rLv74hDRw7drsjHjjRUkp4bPwPAmqTW2DISwV5Yi1dIwCSiKsESIsDXAgmh9H0uyjRDCc7oFrM0RxJtHKiqRHH5P+YjEuJD3ygPTbyzJAvnO2kUwU03fI9C4JGmPSqrqSDgeIRY8+IC/a1JL/30/8gGzCdxYPq+LOhHlBrURw4jBHAE5nR8Cvj3W/XF/gsfse0rR//MCH5O577pRwbFbi2V3S9sc1vQ0j3WP3xN5RCeJFqDCGftjX3iTE87lcYzENRIJzcy79iIYLhpW4jZbU2fAIg+Q2G1JhIzSo1GEgeSzEMxWNpCLVjiutJVcqMHhOsl/i+Iim95IV6Yar0un25chwwp5+yPlruExiXTwnkwkp6sjZkMrBXmEaShfbFTgF4jstmalOyXhtEga4JkGryEutOaYL2Ot0GsIG48cdQdwfwGGuyWB5WdPC9qI4avQjCZJEaqxMBxWXrSI5jDiEW2F7CImSFPlgOgw58tlgzyNQa45LtT4mAZ4LF3ohOQevwWHm+J2leH55bTiqmg4Cn7m9gbj7FkQGbGbG/XcHMljrSNJhd98V8ZLCQdYrXalVHVyTq71F0hl+b6HDxXsCOAKumVBUrwU45oUXnyM/8pa3yvT0NuS9+B7OhKK/OYIThzkCcCY4Ak60dt+dRZ36B//2ffLYIw9KvzUtC96ULAxnt8zGpiRndD5Ykma2Ko3hPAtuty0+7tPlSl8wGZzOgHAahUR8iT1XkuGo2AjOJIZBYq8i1lnrClfEZZ93bJ0yui32r0V1me6MSQ3GzpeDMK3D+YC8njhBqhOutbmOAWDjrsMhvLg+a9XHh46Aq9FwFTHmJg4qslorRkrH8FCNtCb1vAGD93ge2U6RQExTaSquiX+6Ni+KPJykjlQ5B1IOB5CmiP4HOpaAVFz2rWeeEpyDzqC8z2KFNUb4MTxEVE6ZgUtz+ofMhYYlAj72zMHzYhuGj+daDrd2mROWShxpDfD9oeRBuE5yBfdezzkHUxcOuqj3990VOMhMMjiP0EukN4zyQzw3TsWBL0xqQ0ewZXpMbrz2xXLj9d8pc/Ob4HgLJ3O6lGy/EeYIThzmCMDp7gjYC4TLTa6tFlHuLTf/i/zjP/2DPNLJJZzdLb1aMYvnSq0F4wVDmLalFUSIYIvINXQ46yjOA7/AKgQuYk/UaQy7XXIhd0LDzSoXxssabZZVD8NjHFhEBLzHcHNErZxLCEa2We2g1FAYpgiGmLNaOpygzit6wUTMW8Z5PgNd6aueDRutEQFzSgauukgj3NbGZ0bpbAguDC/zVRp8lkZQ7sGB/O6oxzPksDGbDgHGn/goeQRwOj5KRG4WwQAX6ezMytvDI8RzwIWHDo7H0/nhaUmOksHwsUjGqTPgCLT659jz4+NhHvH8WApQTwmYf7x24Xwq4QD3VzhkuA6c2sV98lp0yMV96pTXeM/UCvJXG5YIpqoosR05KIOFR2XLbOFMX/2y6+Ul114vYxMbpIFSWrkO8pnQddQcwYnj9P91GIZhGN8SViIAp3VjMb8+RJdJEuN+irr9/Yf2yR/8zz+Sf33giNR3XS7pTNG4+pgznIJaeog6I/Gbw/scZ597RJ0JG1MZHRSRK+Jz/cePGI0RfsKJ15jOPbzhlMga5GLrIQDVcwyj3wTX7EsFp46lEbSxf9FYPIhCRMipeI2ahF7RhhHqAABfKk4NkW8utbyIfL0owg91gKshzkdkXU7elriZrOIrHFRYpYV4efhL5oA1DiRjNZema14LEJ/jf8j3sPuooGSg4wpwBEJ07FlE5ywR8I7byHtRGijPgWtrMQDn5nmG98/xAlzeMmCJqMyHbjk9Hf+PMw7zzTNrQ3KKe+JiNZzyVT/gBHUpShBVid2GxHgOJBdWheF+8F2PDyKZ6RVVRhtkSbLH7hE58pC87lUv0rTvfcubpd6clAF+3xw/McwKc33aYyWCE8fjfyHG6YvjSjgYyKDfU7UadWnUAxgajsztSjRUOOjBiONLh6WKY87DM1BJjw3ImXAmY4/q5SqdvhnKQhgu2Coqhf1MohS2i+KI3ljVi2PpU0mE00XSjQv1kC/O6RPA+HFEcqefqkJtIIaRheF34lxVgVENYGQd7J+FPdjFUMXqEg6a68IIdkMYSq+qSnJsI1dynC/HPUgPRhzKe8hkL8I2kqyHc/QGQ8XD/WK8TlTcPxsM77EP4TWlaXg0lTCX6oDtB0khrsyFe/dwr5SL/FF5MsBzwTMOOzDChaKoI3HSh5PmnEZdSQdtVdJflbCzKFEXn8epNmKrWF2Vwylxm/Zw/o7Kjdo6FxSn3qgla1JNl1WdIw9LtHpYzto8LS+45irV2NQUrh3hOy4aJOgAzgQnYJxYzBGcCcB4NjmPfaOqakzUZGbThPj1RKIUxsYLVVxWsocgqtOAQYZWq64qTGZgrDaicLERJYONiI3nVbEzK1E+pRp406owwGsfEac/IV1/XDrB2BPUrYxJu9qUzlBtBGf9YKDLW67UxmWtsUnVHd8hy40dcjSblbWoruokFVwLBh4ROJe3XAxd1ZLblF5rm/SmzpUlHHMw36A6jJi4606iZMA5h8awHVflMiaeA+VjiNRbOjdSIb5megvGdlyV8liH9zYjfX8e94S8Qe1gs3S9eRjccanj2GpaVXlZBaWdCp4TSjlsMA98VVj3pF9zpFvP8WwLtZs50nIZBBlKPSGeKZwFlKJ0k+Z9iZwIz6YiXUSwqoYjbR7L7w1KKnCeUMbCDrumwouPo1QwFrZV/pG9sjVfk++85ny55Kytql4HTpQlFrP+xjPAHMHpTtkAiW2EyJzynZrs2rlLxibGtaSgjZoQ56DXWThTRM5s0WV1DwXjwmoMjR5zVqkU/4p6BQebogFZG4Sp8ppAjyle6kc8RKcwGH7AOf0DXDeO4Yg6PdFRxBT38QIIVm4oNsSygZr5rNc5x1FFxXmNYuTZw+c8X4yIl2IffS3ioLQxzOwT0Kyu+6cNvNAT88/qI/4ZIE0zv15IwPPJ8czyBM8Q0itxPzbk0uCW4nPUh4gDy+OxT5ox4k90y/WiqShFaYTfAUdV6/PnSYfnZPdV6tgXQuF/fP54yaqPgwePqOJ+KFdeeZlcdt23Sd6aUfF0bOA3jGeCOYIzhBRGpdcdqFjNctnWTXL+WF0ay4dlfO2IalsaSbO7JJVeR2rsHRPTMPckc/ooMQwQ2UYSVqi4kJegBBBL7EPcQokPo+bCkLExAMo5CybXm3Ri2Cp8DqU5nA2MI8XXOKMuDylsw+CC51QWiXQXpdo9IvODh1WbBg/JZPseqa7cJY10v9SbsSpGZN1zBtLFucMARtLrqlwf5QZYR9bLa908rKAOXHNguDOub8y6dzwPHKtycZwD5V3Y3b5Kcq7rDLHei/vjOBXrwJB39j6KUUJJtN2BK6UFkqa4D87TxG2CLZWh6IMSjYPPvQgODHIjOLfQE7fnQsjfwFdVQ5QuoppUQpRQepPi9AtJOI3vA9u4IU7kSpCFqkayJDMhyj/RPvHW7pL24ldU5181L6940+sknZyT5UGkEhfXGrZFGMbTxRyBYRjGiGOO4AzB832ZmJhWcZpl16vL5eecJ7UklmjliKqVI8JGtMu5Q32tzmAEDGmfekTR7M+CaDp1cxWXQWSnmBwBfNEViNUViDbZ44VVS/z1lOmsjcBWO9F42A6VsfTAFYwDXK+JCLqsBwn7iOgd2bxlXi7bs1N13dUXyTVXXCDbNk8gGF+SfrimSmoOgm9OGYHSB9eqrOLaHGmL96yncXNOdOeINxTj4SJr2NdBCQH7US7uzXVTvMYW6ZSDPFMoSmCLg3iwiv9jTjnWgms3FxLtyVOkicP74evhe2xz1kdpFQ/EWh52fGJhI0S+okJ+7Ekl86WCEoUbNcWLWyo3a+KAqjh44Fq9g3xSfH6udKTXPiirq/vkrF1zqte85qWybftZUq01pVLjFBw13B9vwjCeGfarOVPIMu1CSvX7fak1Z+Xc8y+SuekZ6XUiVZ+9gNyaOHASWV6FoYIBo1hXHcNAYuuyC2mKLQVjpjZSh83iGqVwmtLQFQ0DQ3EuBoqv9RgKXiSpiZewugSGupuoxuAxLpickms2zMhZXqqa7a3JtTu2yHe8+FrZOrNBoj6cGMSenuzwyes5USZVmGdKR+CqzfUlz9hVkgO9hoO9sOUAaY4ApisqxFWVh0I6BdcH4w0ngC27Zz6h3h/vuUh/Soc2lONhP16UwplKh+KmsYrPMsMzpFhdlyEtxrm5EH2MY6kIjzzCY4l85KjSh6MtlDms2ikcUgXPrjUQ1Xg3ltZKT9LHDsjOSk1+5nvforr6wqtx85xamvkv7towng3mCM4QOGqV3Q6pCUTeM3OzctamrXLxzj0wwL4qXIwQmLNPekuipI6DxgpFsLBhpF0jaxFKDXhL1Vitjy379JdxrzZDFgUIHIufzzFHQENdLL2Sa59+vIe8DI4nnhK3Ny61jgOjRsMmclnQkhubVbnwyGPSfv+fqe579zukcsvH5CXjvrxox1kyXm2pcnYLZVSdwB1EicwmbdWGeFXqHNGb1ZEFznHEMcI6ThgOwIGQJWwjH8YXimF4y/aOpJRHLwPhKCfD0RwPMBQLQhH2D4MIxxVKvEgNtpslMPzYhthSA7yG0/J72A4QwUMO8so2X3UzAUs1rioKchlwW0Hpq7J6TLg5eDoac08akScbV1PVjkOrsumBvXJluytv3rNHXnHxpaoxd1yiGN+7dhXFzaoM45ljjuAMgGMCOd+8hpIUbEkSRdJoNmTzls262he10u3BNiNiZpQcwykEvkoNOYw9J5njVBKc2qCY3gBxNc7HBVbU8EMOSgpFrcnQ6BS7FVKYvk7Iju+7eh3OskmjVUzT4EkfEfOjBw/JHffcqzqyuiLv/4ePy3v++q+l0qjL3IY5Fas7OFWD+AHyz8i/iH8HuEf2JuL0GMdng7fE6+eI1r8ZPPexaJqGWI0xxGtSWvoZiq+hjD1/kgQFgKH4OuJazBG+i0TF8/LMWuXEKpvy++FDwWm0xFGWoCjmWfONS0Bc+IZq49yHl9fkgssukbMvOl+OtnsqznWUsuTG78cwvgX4qzROc6JwAMMdw/AUPXU6iEZX233pZplMNVJ54bSjml7+srQeu00mBwsyFmQ6vw7lOAjxOScNB0jBIJWOIEYaa0g4DTMHKFHasxEG3Esy8WAYOT8P5aQDfAC5XZyvg0h8TYVyiIzB4HlxX6PplVaoOhL0pFOBlZueQmFkTLW6VJV9j/Vk376eZANXSyQUJ4ULkM8gZ/4yWQ4aqqNBUwassnFC3DeLDKVwEHtF0TnSgbFooMLPPavA6FYhloggliakoUqlLjHSVHidcA1lOko4MnhEFSeIC/qpVHoxhHxhS/mw2H5SkUptAvtzWmyWvFhNBceqTQtwCTWUEiDxOGX0YVy7jWceSLU6pZr2azIPZ7196ZBsWbpPWvs/r6oe/aK89totcvY5MzK3c7tMTE2r6Dw4WaAtKG98q5gjMAzDGHHMEZwBcA3cSiVA9M7+84jy/UA4G2draoPs2LVTXnD+btUsSgfh4j7J+mtSqfqSI2JWIbpnNQXXFQ6jgZYEKFZTcFlFDlJj1ROlJQNEoJz2gVVMHBhF5VzJPo1wXYjNskGhGKWNOOKAMFzHcxCAF1qJutLpdWV6dkZecuV1qisvuFxeetVL5YrzL5NwFflYW1NVWCrBfaWDgVbHlIu3Z42WLojjsvcQq4BYjcP7wMbRKq1COuhMB1lxy+iZr4etHvoZF/lE2M71h4+J7xnKYzd8qlVikKQJSkQoCYQoUcVsJEapSOXgc1fSGAc4KHFQAUsUOAfHWuDZ5GlXJekaSicruHQifm0Sz5eDAfFMM0fGPE+q/bb09z8klf6y6trLz5bzzt0u511yqezYfZY+fxXvD/sbxreKOYIzAK5zyzWHdXUryIMjaI1PaPXOho0b5dpXvkx10Z49ksGoJ0vL0uz3ZCxLVFX8DGpBVefq53w8STdU+TBuNE5ZCCM/gBGEarmn8uEnApy/luE91JQaVJFmVpFG5mOL99AcDO0G6ch03JHaoC2VQV/Vb3fkIeRjHxzW/MtvUJ31+tfJplfdIIOztsrtRw/KocGaKqlzrYFMsiyEAcylCsNLNRNHuPax1um7NIyl8NaF8Ub6+r5ErFZyYMjZ0OvhXKocxjiLh8L7tJCbDsRLBiL9Pu67L3kMQw7pesO4ZASHGOJCKZwbxQnw2IicJqvITlvlOuz2GenxnPtIQl/luFPI4Jx4Tktafij19kGV31nA81+R7tKCpGFfrrz0UtV3vf7fyCVXXQdHcIF02yGeA58FHJ9hPEfY7KPgdF+qkl/h+q/RoXFid1C85j0GrOMGN9/0WXn3ez8sD7bbUj/rLMmnd2j6gj+NHRuSpLGEg0gbKkm91pAgqA3fa2gsfhCIT8NHQ4Ton43JhAY3xfEZnmvOhtLhY5tO2jLTWZRuFMrBaiBtRsjAa9YlaNWl1RqTHRs3aFoVn7WjvuxfOipHFpdhLNlvB/tOzgnXkfFh/MeYn1W8IchDv+pKzOHFuH9W4xM20LJxQAsKfC5s6AB0GuzoxK+UE2kojOR5K3yLz7VRmslwdLgRSXKOQGbbS5EXdlzVSZu0ZFFcR+FYjJwzJA1wXfZCwvVwIR6b4qKcQwk3rOlSwZY9qqKezA6WZBwlAJIMlqV/6FGph6vyqmsuke9/9Q2a3qxPil8fl/GJcUniuCjljCA2++iJYzR/UWcYbCykwypFy53BYLCaiHP89Hp91cUXXiIvvu5aadQbsnx0UfqdTqE1GKC1JYS5fakHjtRhUamUs2l2ViUddMRJwqFgGLFfCuPFJR/D9pKqs7Io7aOHZOXwAVk5+Kis7XtE9djeB+Shh+6XlRVco9vVSJfi/EM0/EcPL8hdX71rqK/J3gcelOUlVpsE9GKqlHMTwQhwBTUa3ziJVaymYhUQB3Hxn1pzvoYtZy+g4/+pyVYDzl5INPp8VLhPOIo4KWZTTVGiohI8uwglB84NxJlBy2o0jhMoHAu2dIbqJiF1ODw3k1GKYo8evPb8qlQrdMaBlki0VMJppzlDKISLIb+FOmurKNGFctXll8obXv0amd+0U+VWm1Kt1bSH0Kg6AePEYiUCcLqXCJ6MhHX8NDyeJ3FURKiNSkUOHViQ9/yfv5fPfvl2CSuF4eq4iGK5lCJ+CXEaSUiDB8p1B9itlCUB4nLZyhilhijTdYVbteIZNut1OBFfqojiG9jWYPzI3JZ52b3nPPHHZ2VfuyO3PlQsyH4oRJQ8MStHUx+GtiglOFzfF1ac1+BohCha1HTNGEsSMKZeAoO+VkThzeaEVtHEapD5Mx7+lFFyWN9moBYf0AdwaX0dcazHYIN9Hbxmd1DcaPEZ4J9FBsPOKh91Kmr8cQ59R5AHnrAshmg3VXyijnh4PTx7XacApTMfRryqbRNwDtinlgZSQUnJXbxD3JUFTa9VXLn+6ivkja98uUxNTmtJgjQa7NlU3Mrp+nt8LrASwYnDwgvDMIwRx0oE4EwsERCuV8uqhITVGSDArYzX6nLrl+6S9/ztB+SOh7+m6RObA9l9zk5ptiZkeXlJVjtFnXW12ZQKIvsBq2aGP5MAJQMull9BDNGoVmR6bEzTpybGZbLVRFoNpYQatsWzrY1PSGV2oyS1huxHFPeRW+/Q9JvufkQO5jVJxzdyJ01TWG2SM9pmhL5UpKGkoO0FTOciNknx/bjIRcqeOfodIX/8nGjwjtdlGD3MO6N9LtbjsJfUMGrXxgCWgBDxe9hoFdMQ7pF4rFQCWXFu9tbJ9FooZelPY7i/TjnBEgIS/aI9QfPR5yI2iGTxzFoo0RAu7ON0UUpY2ifeypdlM8dTgBuvf6m87lWvkAry6fg1qeKZEZZB+D1ycZ5RHjxmJYIThzkCcCY7AhqrPC2MB1cpozE5fPiIfOZTn5Hbbrtd03tBKC96yYvl8iuv1hHInW5H0xPX08nsdPWsocHzPBfGMBffC6RVqclEq/hjHK/DCdQqUnV8dRKBV+zfczJZ8EKJ8CuLM1++et8BTf/wF+6QL+5fkkFzTsLxzZpGe+xyBTD8o810giIf9GCDjCN5OZV0ACM5rclZF06D6xj4nG+HxnnoCPQXTUeAFzT4ZbUOHUHMenkaft2p+JwGFvfE51R2xtTcw+hmSOfRnN5a4VKS6ghonHHoMUeAI9lGEMNBwBESztMU9PvSxPcw5WdSHQw0vbuwIL0jCzImA9k168pV552t6RfsOU927dwhjea41OGwddQ3cHBfccrquaIKbVQxR3DiMEcAzlRHoLAee/gV6//xx1StV+XeO++QfV8pSgQf/eQnpTI2Li++/ga5/OrLZHrDvKa3uz3pR4igYYC4IAxh2wMbNHneKtsCtH8+gvbc1e6nNVzEhXHkqGOy1oQjmBgIF3cZ88ckXikM6j996V750FfvlYNJVVYndmtamMEBpJ5U3TquCdsarGm6OKGs5j0JXRp+fDf+TJEewTGwtMNr8T/23CF6z8NSTCnC/WjQ6RiGvZ30oTBLWgphQ/PQ4AO2j9DOc5fSEXAGU7iA4hz4mG5L8WCk6XBjnGcYyXMVg+agLdNxV8b7y5IdeFTTsyMHZMZL5YVXXSiXXHaJXHrFCzV9euMsfnMcJZ7C93GMwDCPeOZcCrRWZ68j5gPXGUHMEZw4TnMrZ3wj6OPZ06QUzQerGKJBLNvPPk9ufPObVS992SvkkQP75W///n3yqc/cJEeOHlVxLp821zpOQulGvUJhTyNwGs3BIJTl9qrqyMqSHFlekMW1ZVnprckajqN6g57EEQ100bunNTGu2rh1s8xv3CgVlCRyFzE25PlwJnAumZvi2rxWV9Ub9CXjNRt00DDLPZQUKDgh2uOcq5UliMRLMSrn2Af2ytExEEMNex/pgygdBN/j2rqYi6YVl+AYDK4qRqPMfVhBVPwrPsu1IReOAw6F0g9ouJFH33dUNOBcIa7dbsthlACOrq6qNm7fLte97AZ51eu+Q17wba8Uv9lUhWGq1W7MBhvo2UWXylD6quE5FRcxjOcecwSGYRgjjlUNgTO1aijGPXLmUJ2ZFLCOmRHnANE0659bwy6hywsL8oGPfUz+6VOfZpAt11z3Yk1/4fUvlenZWYnYp16rJIDr6WybOvtmmkswrDIKAk+czBGuY+AgYtYoGSAJcrUaqYX8NFmXDlbxq/vc/v3ywdvulpuPchI2BNMzZ0tQn0UpgNUviIRREiFcelJqHqfelxQRft4vzhF4XEyeo3i7wtHVRbw+BPkkTDlWjw84zYWmscEYsBapWNoRz0nHCAzPgefm8R6SSBe70aofEGcVlD54bwGifl+XyiSVeCANlJZq0pFaXDS2+4NVSRf3S7h4QCYqntxw+eWa/h2vfz2ulUmtNS6TM3MSDBuXy8nj8pzTdiAfw/flOJFRx6qGThz26zpTgR3JYMyCiq8NvBQNJW0LjXTTyaWedFQb5mfk5Te+Sm587Y1SqdXlE5/6hOrv/r+/lXvuv0eNeaVeU3FVMI4aduFEgmZV3KqnosPh4NsMRpXT7YR5rOI8RZz5k+MOOOo47vVUgZvL1g0zsufsHbIRWyqEg1peWpIo5FTOrM5i1VYu0SCUqN2VpNOTnHXwOj8QrouXfp6IC8OpU0XknFE1g4nOBO4KRjpXQ00bWooOTBuMdVEFCicZuovi9VAp51dKpIIH5qnzKIVrc60F7MK2+BBOgUrhpXTcAD5fOnRItf/BB8SHg7h8z9nyPW94rfxfP/SDqt1nnyvzW7fL9l1nSa1SUUO/fgZRB/fGRno6bcqcgHGisV/YGYyaflaB0xhCMSJWTlGgPW1gpD28pxyUfM7fuFXe+PJXyxtf9VrZNb1Rdf8X75B/et8H5Yufvkl6B46oxvKKtOAJaqkrQQxDy8nXIIHcEI4HRrLqBBB7ELEEwkXfPZQoYCx9ThbnqQYwss1aIBfv3izXnLtFNVXp4Dz7xc8WxU/bcBahCsE0DKwjVV7XDaTuuyouOxnB+6TshurUJHYbhZwmSjFVfBYgW3QLVVXqVFFygFyU+FxEkxBfZ8gnBY9WNEZTfJ+7krg+Sg8wxjHuD2qkoUxJX+azrmwaLMimlYdU04v3S33/16R/3xektbJfden8uPzw618jP/hdb5Kzt+3G6cdVK4hm2TTR73LuIu2DpDKMk4VVDYEztWqIy1YyohzW0iAaTuEI2DDqSstLpcZJ1UAaB1IL6uJVqtLp9+TBhx7U9E984p/l05/9jHj1ulx+9VWadvmVV8rsxo0StJriw0JrdQpIIkTa+CWx+6kPR1P+rAZpJj0YY053NC0hInY4ItDPQgm5Ulfdl68i2iefuXevfPXRI7LYRp7SmjhB8f0EnNtfG4bZq4d9eYpzxygdJHAQjKa54I4u8kLwnh1ej0EvSPAs9DWj7zINDkmtMs/J9PLPgb2I2LWUpQs4vLLjZgOljFYEB4Xn5K4tids+qukptvWkJzs2TcuLLjtf0yZqVbno0itk+9l7JMJz4ChvwrNyPIKub6wlEePpYFVDJw5zBOBMdQT8ajlbpnalBFmWwtYF+NIzVekhuMwl5/OBjdM5gJKwcBD3ffVr2pvo1i/dJvc98ICmzW2el2te9CI557w9smX7NqlwsBdgD6IoimC0q7oofcreOyBKHUngZDiF85jDmT2LvPThhGIcmk20ZCEonveDnZ586d5H5I57HpPFlUg7/JBabQJZ9YTV+qyO4XQYBeyx4xcGXo3/0LjD1Ca8Z9pY7lp+hzT03Ic3SvEd8wkjzZlK+TxKp8kxBzwPDXaFU09odRIuFcJprSxLDtU4adzQ5pw9Pym7t26QbRtm5bILz9M0z0PpaWJS6vUanAAXpC/yx++FJTNW1XHAnvH0MEdw4ij/ogzDMIwRxUoE4EweUMbG1nKgFb9p9nThVMssHRwD6ZxUjYUHBq2M7Em/vSYbt26TB+/5inziHz6sabd/9V5ZQjS8bdcOueSyy+W8Cy/Q9PlNG6VSbSC4TlAK4LKZw+iXU0P4FUTAqQ4q4wIuxMP12FnGr3KaiOIZd9xMDnY7cs9jh+Urd++TR/cX1S5hUpXcb6G4Upd+1Zde8fUgnzwnJ2RDKYcZL06tm4xTVODe2bzrc4gvcFFEiHlvyF91WDXERmU2NgfILxuwdZEbwBKBjweSId8uRzB3lzVdOoelEi7JrJvI1lZDdm8qBt+97jvfIDsuvEIe2vuoNBrs8y/SGmvplByc4oPPnM+esCGceRgM+tIYmzz2G+Of4vpGY+OJWIngxGGOAJzRI4ufJoUBYn27vuP/tC0hiWHYB12p6hTQIg88dI98+EPvl/sf2itH11ZlfLqY7uGCSy+W88+/UDbBIbTGx6TVKOYPinGu9iDUrqucxlnn+QEejKwv7CaaS0/r6EUG7M06NibLsOF3PrBf7rm/mI7isYNtWetnEjqBDGqedLhkGYEjEMF1HBhefk1PsKGl8SdFHZPnwGXgBl2H8woVn/t0GHBerCJK2ZieFE4wpcPA+Xtra3ACkYxnxRoI2yZFXnjudjl3siqzMOLzm7Zq+satW2Ru4zadPVWnqwb9fl9/YzEb6JE5b/gM2VbTqOI+1tri1JrHuo/S0JkjeGrMEZw4zBGAUXcET/UTYDrvv7DThXFbXlyQB++7W2rVmtxxx5fls7fcrOlLnTai23HZsWOXLo+5YThNxezMtMzPTkqVI4gbk+KwZw7gymecjoElCHF6mkZD3vEyWUO0HiPKX1ou8vXg3gW5/+HD8ujBZTmccvH7wqDWEG37XBmepQ827g6Nv09jiuieEb2njb5DR4At+xBxbIBEw2tGA/G4FCecXdhtI0ov0jmv0bjryUW7tsu22XnJh87qBVe9QM7duUsOHXhEztp9tmzZOqvp7XaM0kmCHDze559zPfEVj2TXUm9YCmGJoIL3IafvQGmJ01ITPm9zBE+NOYIThzkCYCWCb075M+F6yCwlDHpdGM9VOXjosKbf8bW75cu33yaLy2vSHzaEkm3z03Lh9g06hYIzv1taM9s1faI2JjW3AmPuy2SjGDgWwL4vZ6H0qqmMT87C+BZG9uhKilJBVx58ZEG+tnhY7opXNT2Dkec8/24SYl/2Wiqu6cH0cqlKH4aYi+lk/dLod+Ec4BR6qxK1h1U9Ib5vfMdzrbpMj9VlYqyo1tm+ZaPsntsqDj6vVyoyvf0cTb/0RddKHOZFGQOGSat59GWxdV0fxlxfFg3CyBMNvYuov8wf9/XgZFK8ZwOyGf+nhzmCE4c5AmCO4BkCu8X5drit14peQ521Nbnti/8qX/3aXbK8tgqHUIwWXjpyQDpLhyWiUZzcLJMz2zR9ZmJKxhstmRyflA2zxQhnP4BRbOCPexLn9Kv4cU5puluZFNeblMVOLHce2Ce3Hiy6tx5dXBYvZZSPkgWrdoZdWWGCxWE1FKt88Lkz7CbLBfDH64HU6ECG3Vg3Tk7I1ulZCfJI5jgH0qZi2cyL9lwoe845XwasKaKdLgoEkrH9AwapKCkV2+Mp/6TCQV8NfVCtF85hWB3FOYyOlRToJOw39rQwR3DisF+gYRjGiGMlAmAlgmcHe8KUdef9wUDicKBVHq1GTSo6fYPI3ocekrvvuVcOHT4sC0cWZGmxWGzm0MIhRHVreL6+1OrF847ZkOw6UqlXxOMUFsMBWLooC67FiJBVTkXjK66P/fOkr+0AHqdl8IrvimsQcz1jzuk/hYh/rDWm6YN+X86/8AKZHBvXdZvJngsultnNO6Tb6+P8uYTDZT3ZUN7Efj7P+SyrbnLOF6SHP/H4coF8Uo4tML45ViI4cZgjAOYIvnU4gtn3i3WPaVQH3WK0MNcumJ6ahsNg9U2i7Qvk0IH98ujD98vK8qp0YKAJ943xeWfQk263f6wHDw0/11AIKlU1zLV6YQCaMPQ1+Ip61ZOKH+i1Sa1Wk4mJCZmd3ygbN+2UoMF5/EUee/hh2bR5i/RwvZXlwiGNj0/J5MyM1JtNODFNUliLw6omGh/j1MAcwYnDHAEwR/DsKX8+639GfGacNI3o3EaI4tUBMPrliGZAQ7y0sKB96csIf/vW7TK1YVYOHTooj+59SJJhN8wM27N27pSJsYasdZalOhzNPDE5rw2xTuBJe60t+x55RNPZTl2rNWQcpYHx6Vk4haKtgQt8hWGmxwxXjYSxZx6TY42+6ykjeWvMPTUwR3DiMEcAzBE895SRdPnzYlUNLfQx48rulMMpHUobzIFd3J0L31RgqEv7yzNwJgj2BtIxAcPBamnuSxglWtXC3kzBcGAaG3fZiYeD5GjgyzwwT48b9fJnz3EF3Nj3fKpjjuDEYb9+44RAB6olAxp8iPZ3fWSdw0BzUryQcxSFPVWv15VOr6Mjm+mE2+1CHarTlXZ3IKvdFEpUvcFAe+DQqKcpp7zmfEchzhmhlFFMZU14Xaqc0rkQXw+neDYnYIw49hdgGIYx4pgjME4qRamBi7D44voBivU17UnzeOReiHP2sN2B0zFwdTWKx3D+njLSL37OnJHUBmkZxjPBHIFx0ikNN416YdC/nnKf42UYxreOOQLDMIwRxxyBYRjGiGOOwDAMY8QxR2AYhjHimCMwDMMYccwRGIZhjDjmCAzDMEYccwSGYRgjjjkCwzCMEcccgWEYxohjjsAwDGPEMUdgGIYx4pgjMAzDGHHMERiGYYw45ggMwzBGHHMEhmEYI445AsMwjBHHHIFhGMaIY47AMAxjxDFHYBiGMeKYIzAMwxhxzBEYhmGMOOYIngTHKWQYxqmF/W2eGJwcDF+PFGEYSrVa1dc///M/L+985zv19e37VqQ1NqGvO501cR3zlYZxKpDlmbRa4/q6016VS7dO6uu3v/3t8ju/8zv6ev3ftfH0MUcA1juCEI+joq8MwzhViaDqsGhgjuBbxxwB+OVf/mX5r//1v+rrt/zYT4rvBfo6xj6OayUCwzgVyLNMguHfbJLG8ld/9If6+pd+6ZfkN3/zN/W1OYJnh1k5wzCMEcdKBOCnfuqn5N3vfre+Ngzj9OKtb32rvOtd79LXViJ4doysI0jTVDzP09e33367fO5zn5O5uTlxrSrIME4LsiyThYUFedGLXiSXXnqppq3/uzaePiPrCAzDMIwCcwQgSRKVYx2UDeO0gubL932V8eyxehDDMIwRx0oEhmEYI46VCAzDMEYccwSGYRgjjjkCwzCMEcccgWEYxohjjsAwDGPEMUdgGIYx4pgjMAzDGHHMERiGYYw45ggMwzBGHHMEhmEYI445AsMwjBHHHIFhGMaIY47AMAxjxDFHYBiGMeKYIzAMwxhxzBEYhmGMOOYIDMMwRhxzBIZhGCOOOQLDMIwRxxyBYRjGiGOOwDAMY8QxR2AYhjHimCMwDMMYccwRGIZhjDjmCAzDMEYccwSGYRgjjjkCwzCMEcccgWEYxohjjsAwDGPEMUdgGIYx4pgjMAzDGHHMERiGYYw45ggMwzBGHHMEhmEYI445AsMwjBHHHIFhGMaIY47AMAxjxDFHYBiGMeKYIzAMwxhxzBEYhmGMOOYIDMMwRhxzBIZhGCOOOQLDMIwRxxyBYRjGiGOOwDAMY8QxR2AYhjHimCMwDMMYccwRGIZhjDjmCAzDMEYccwSGYRgjjjkCwzCMEcccgTHSZFkmaZrq1jBGFScHw9eG8YwpDehTGVIaWc/zxHEc3RqGcephjsB4XkmSRLeu66pOBnRa5bXb7bZ84QtfkN27d8uOHTuOObSTlTfDOBmYIzCeFTTovu/L5z//eX3/X/7Lf1FD2uv19LNKpaLpO3fulKuuukpe8pKXSKPR0LSSsrTwfLP+un/xF38h//bf/lt55StfKR//+Mf1M2KlF2OUMEdgPCvCMJRqtSp//Md/rO9/7Md+TLffiLm5OXn3u9+tr7/7u79bt/z5sdroeBiZlz/Ncsv9qKcTrZeR/fqfd2nc1zuCD3/4w/L6179e3vKWt8hf/uVffp0jWJ8PcryDWH8dqswjeap8rr8GX6+/v+PPbxjPB1b+NQzDGHHMERjfEs1mU0UuvvhiWV5e1gh37969qo997GPyK7/yK7Jp0yZZWFiQN73pTSpG4YRRMKPqMrImjJLL6JhiFRRVRsv8vIyqnwxWTfF4RuTlOSimr4/uSfn++HTCtPX5oEqY3ziO9Rrldco8lmlPlcf15yqPW39/hvF8Y47A+JZYb8RnZmZkcnJSX7O9gHr1q18t73jHO+TAgQPywQ9+UD8jZZUMKQ1nCQ3iegdxzz33qFOhYS2N7vFGs8wDoVHl8WS9gS/Tn8zoHw/Px32ptbU1efDBB1UlzEcQBMN3IkeOHNF8so2k5KkM+6FDh/ScJbfddptqaWlJ36+/F8N4PjBHYDxnlEaQhpbRMsW2BG4JDT9LCBShM7jvvvv0NSl7FB08eFC+7du+7ZjBP//882XXrl1qyNmou7KyolrPekfyrne9S+bn52Xbtm1PcBy/+qu/qp/zPE9F6XzK81133XUyMTEhv/mbv6laz6//+q+r46N4PeaTpaPLLrtMdcstt+h+pWF/9NFHVSwdveY1r9H73bhxo1x55ZWqt7/97bpf+RwM43kDf7SG8YwZDAa6/cu//EsVf0ovfOELNY3A+KlK1r8mL3jBC/SYt7zlLcOUguXlZU2nYExVf/VXf5W/733vyy+55BJNh5FWIYIeHlXwpje9ScV96vV6/gu/8Av5m9/85rxSqaiYDgM83Lvg/e9/v6Zzv+O58cYb9bPv/u7vHqY8znd+53fqZ6V+7ud+Lv/d3/3d/JprrnlC+kc/+tHhEXn+2GOPqZh+1VVX5Sgt6evyPv/kT/5E94Mj0K1hPF+YIzCeFd/MEaRpqloPSgbDV3n+f/7P/9Fj6BDWQ6PL9F/+5V8epjyR7/3e79XPqbe97W3D1Dz/yEc+cix9z549w9SCTqejKj9HSWT4SZ7/3d/9naZ93/d93zCl4Ed/9Ec1HaWYYcrj3HHHHcfOddttt6nWw3sr7++CCy4Ypub5I488oiqPveiii4afGMbJxaqGDMMwRhxzBMZJoWxURslCt4RtCR/96Ef19U/91E/plnAftjWQX/u1X9Mt+ZM/+ZPhK5F/9+/+3fCVyG/91m/ptjyu7Nn0V3/1V/KzP/uzWn9fUjb4lm0CbNimOD7iRS960bEGbp6rzOt//I//Ubd/+qd/KpdffrlqPWXPqPPOO0/uuusuufPOOzUdgdcTGqr/83/+z7rtdruqb9QTyjBOJOYIjJNC2YBabsn+/fu1wZkNw1u2bBmmig5cK0cq79mzRxtvKfa8KRui2Qhb8uIXv1i3PI4qefOb3yz/7b/9tyecuzTMW7dulX/8x3+U//Af/oOKjdXrG3t5/TIPnU5Ht8wrewBR7PVzxx13yBe/+EU5evSoio3VhD2mSNkLidABvfSlL9XXtVpN9VS9jAzjRGOOwDgpMAImNIAljJ4Je9Ks5/hImtF7GcGX51nP1NSUbtcfQ9gbh46jdB6k3OfP/uzP5LWvfa2+JpwWg5TXXn/Nhx56SLdvfetbtQcQxV4/l156qVx99dU6gpr6xCc+oft96Utf0u16R8D7LktFhnGyMUdgPC/QmK7vtsnInNx44426JaVTKKuBnor1RvnJqlPW9+VfD69fjiUoKR3B4cOHtSqo7A76zne+U6ecWL9vSTmA7hd/8RePdYf93//7f8t73vOeJ4hVR7//+78vb3zjG3X/9Y5gfHz82D2sTzeMkwL+EAzjGTN4kl5D7DpZwi6QpaIoOtYl8p//+Z9V3J86ePCgppNDhw5p2uzs7DClgL2P1nc/bTQaKu4Lo69pu3btOnbOAwcOaBqveXy31eP5wAc+oMdcfvnl+h7Ru6o81/79+zW93++rCLug8rObb75Z3z9deH/lPW7ZsmWY+uQ9rAzj+cRKBIZhGCOOOQLjOWP9lAvlaF6K6dx+5Stf0UZYirztbW97QntAORqYDa133333MLXoTVT22PnIRz6iVT8Ue+vU63VN/4mf+AndElbTEFYboVSgr8kP/dAPaRUM2wNKysZq1u+TK664QsVqH8KRzKRs0CXMJ1nfa4nXQonhCe0P99577xMasXlceSwbxhGI6Wtuy9eGcVJgscAwnill1dB73/teFX9K6weUlcAw6ujaH/mRH9F9SsHgHzsHt+XrX/3VX9XPr7vuOn1/PDDSx87xv/7X/xqm5vnCwsKxdIrvS+655x5V+dknP/nJ4Sd5/vd///eadvwIZ3LttdfqZ29961uHKQVl9Q71+c9/XrWeW265RcXP4QSPVSmVVKtV/ay857IKzTBOFuYIjGdFacQQfatKw0jD12w2c5QAVGV6KUTlKrYblBxfR87pF9Yfc8MNN+RXX331sfcvf/nLVSWlEX3HO96hKvfbunVrvnnz5mPvqZ/5mZ/RfUv+5m/+RtPf8IY36Pv1TolTWJTH/fqv/7qq5A//8A+PfUYh0tdpJzZs2PCE9K997WvDI3K9Z6r8jKOdiTkC42RjC9MYzwoYLu2BUw4A++Ef/mE5++yztVqH1S1llQurerhKGbtTolQgF1xwgaYT7lP2nCH8KZa9Zzih24c+9CF9zb75rALiQLDv//7vf8Jgs/XHlHAyO/ZK4upprK4pu4Ky+ujHf/zH9XXJZz7zGfk3/+bfyE//9E/Lf/pP/+lYFQ2renh/zAO7iZZdPW+66aZj3VOZr3KAG6uy2K2UM7CWA9Y4YIw9kco88pkRODZ9/alPfUrvq3xW65+FYTyf2C/PMAxjxLESgXFSYMTNBuTjebII/6k4vkTxdHm2x5FvlD82FK9vMDeM0wVzBMYJhQafP7HS+K4fVPZUcF9WnZRGtTS85bm+2Tl4LK9VGvvyJ05DXU4T8XThNXmeJzP+ZVUPWZ8nHkOeTl4N41TAHIHxLVHWb38jnm30XVJe45mch8eUP+3SiD/V8d/s/Ovv8Rvtw+utdxjP9nqG8XxjjsAwDGPEsZDEMAxjxDFHYBiGMeKYIzAMwxhxzBEYhmGMOOYIDMMwRhzrNWScEJ5Ol0vDME4NzBEYhmGMOBaqGYZhjDjmCIwTyvoqIsMwTk3MERjPKeU8O9dff72KE8vdc889mlZ+ZhjGqYU5AuM5pWxyevDBB1Vk/eRs/JxiWukYoihSlWlhGB47D2EaP+e2fE09VWmD6eX5+Hr9cevzcjzlceV+669bsj7fx8N05p1bqjzf8fdjGKca1lhsPKfQUHLGzd27d+t7LtbCRVv27NmjhvGZ9CAqf5pPNe3z8TzT/Z9Lns69ncz8GcY3whyB8ZxSOoKzzjpL33Px9rvuukvOP/98fd/pdHTLFche+9rX6kL2//Iv/6JpH/jAB9RIciH5N73pTcemoeZC9Vy0/pOf/KSe+yUveYmmf+/3fq9uCX/G6w3s+973Pvnc5z4nDz/8sK6ORi688EL5vu/7PpmdndX3TwaPIR//+MdldXVVrrnmGj2mhKuObd26VVdbI3QAhE6A+fzbv/1bufPOOzVt3759ulrZeeedJ9/1Xd+laeT4vBrGycaqhgzDMEYdlggM47kijmPdbt++XcWfGEoEmkb4mmL6T/7kT+aIsPX18eJC8CUTExNPus9v/MZv6Ocohei25JJLLnnS/UvddNNNwz0fzy9B5P+k+4+Pj+df/vKXVXw/PT09POJxbr/99hylla87ttTLXvay4Z4F6brF+g3jZGOOwHhO+WaOYO/evar1RvJ3f/d3VeS9733vsfRqtapqNBrHjPev/uqvPuHYMAw1nbzuda9TMf2CCy7IB4OBph85ckT1Yz/2Y/oZz3c8f/zHf6yf0elQDz300PCTPH/Na15z7HrU5ZdfPvzkcebm5vSzG264YZhScM899+RXX321fvb6179eRY53XoZxMrE2AuM55Zu1EbDxmJSNyTfffLNcd911+rrkx3/8x+WP/uiPZHJyUt/DiD9hLeDNmzfr9uDBg/LAAw8cOxeciW7/5//8nyp2X+XPe319fLPZ1Lp8npOU7Qfnnnuu3H///doWQdh+sf5YGH/dfuUrX9F6f5QO9D0ciG7hZLQN4qtf/aq+Xw+fyfr8Hz16VGZmZrRn0ZOt22wYzzfWRmA8r9CwrjfM650AInjdXnzxxbotxyLQiNKYcs1hMj09rSL33nuvbsm///f/XsU0HkeOb5RFSUG3KysrKkKDjFKKvkZEryJl90/Cxt6ywXd97yA6Mor80i/9km6Ph47x537u54bvRN7znvfolvdkGKcC5ggMwzBGHHMExvMKq0LK6hB2E11PmV6v13U7Pz+vIozOy89f+MIXqsja2ppu18ORzG9729tkw4YNx0ogpb74xS8O93qcdrut0Xmj0dBrl9dn5F9G/6wOokhZMiFf+MIXVISlkY0bNx4rsVBTU1Oybds2reoq4QAzwziVMEdgnDSeagBW2WzF7ZM1Ya13JmU/fvJ7v/d7KrZH/I//8T9kbGxMxwD80A/9kOqXf/mXZWJiYrj345RjG56MsmqJYwcosv6ay8vLKsK6/8OHDx9Lo1j9xPEE648pq4TKcxvGycYcgXHS4ICtZwONamlYyzp/GuCf/dmfVZF/+Id/0Cku3vve98qf/umfqn7jN35Ddu3apZ+vj/ZL5/BkdfblddjuULZHrHdgPF95zg996EPHnNfxYqmjnL7iV37lV3T/SqWiW8M42ZgjME4aZVT/rVBW47A3T8kLXvACufHGG/V1t9vVLWFjdNnbZ32polarqVGmkeb+5TGsAiqdA48rj13fA4g9hShy66236raca+h4eBxlJQHjVMMcgXFaUxrq9VUv640wu4uWvOUtbxm+Ern99ttVhMa5jOr//M//XEXoHOho2A7x7ne/W0XWX+tVr3qVirDUQdY7mZJXvvKV8oM/+IMqlhDI+vMYxsnEHIFhGMaIY47AOCGU1SBkfXRc9t4hT1VHzn735bZ8vZ4nO/c555yjW8KeQZwcjrAHEXsnUZxI7nu+53s0nb14qLKh97d/+7d1+9a3vlX1a7/2a9omUA5sW18F1O/3dUve+MY3qjj2gRPcXXvttU9oT2BeXv/618snPvEJHcRGWdWQccqBYqphPGeUU0zMzMyo+BODMdQ0cuedd6qYzjl81lNOF/Hf//t/189/4Ad+QEU4XUQynJahnKqB+9x2222aRt7xjneomP5k4jkeeOCBr0svz/t7v/d7X/cZ9aM/+qN5lmUqvn+yKSZ439/+7d/+dceWesMb3jDcsyC1uYaMUwibYsJ4TmG9N3vVcBpowmkbfuqnfkq7cpIymubUDFu2bHnC9Mys22eEz2M4+pbTPBCOGeBnPC+j6c9//vOa/ulPf1p+5md+Rlqtlr4vue++++RjH/uYNg7v2LHjCdNVE05zwV5FhF1CYaT19Xo++9nPal3+S1/6Un3/N3/zN7pld1Rek91Tmacyui97EnHKi1tuuUVfHzhwQEsTV111laqE57VSgXEqYY7AOGMof8pPZWRLJ/VksFrnS1/60rEqpksuuUS3JT/90z+t23e9613qFFjFxF5GZfXWN7s2KRuHnyoPhnGyMEdgnBDKOXpo/GgsS+NXGkN2zaTRfLJ2Akba/Hx9W8F6yp5C3K4/dwnTyxJEeX1SGunyc8KfP7uP/sEf/IG2DZSwVFE6BU5E97rXvU5fk6eaNI7XKkV4Pb7mlvdgDsA4VbFfpmEYxohjJQJjpOHPvywpvOIVr9DlMNfDUcfrR0BzrACnqzi+NGAYpzPmCIyRZ70z+OAHP6jbP/zDP9S1BTigjI3VbPAmV199tW4N40zCHIFhGMaIY47AMIawYbdsiF7fuMtqoLJx+ckatw3jdMccgWE8BXQM1tPHGAXsV24YhjHiWInAMAxjxLESgWEYxohjjsAwDGPEMUdgGIYx4pgjMAzDGHHMERiGYYw45ggMwzBGHHMEhmEYI445AsMwjBHHHIFhGMaIY47AMAxjxDFHYBiGMeKYIzAMwxhxzBEYhmGMOOYIDMMwRhxzBIZhGCOOOQLDMIwRxxyBYRjGiGOOwDAMY8QxR2AYhjHimCMwDMMYccwRGIZhjDjmCAzDMEYccwSGYRgjjjkCwzCMEcccgWEYxohjjsAwDGPEMUdgGIYx4pgjMAzDGHHMERiGYYw45ggMwzBGHHMEhmEYI445AsMwjBHHHIFhGMaIY47AMAxjxDFHYBiGMeKYIzAMwxhxzBEYhmGMNCL/fxk57NmlQ7xxAAAAAElFTkSuQmCC;" vertex="1" parent="1">
          <mxGeometry x="2540" y="1804" width="386" height="375" as="geometry" />
        </mxCell>
      </root>
    </mxGraphModel>
  </diagram>
</mxfile>
